<svg width="70" height="58" fill="none" xmlns="http://www.w3.org/2000/svg"><path d="M18.242 53.797c-.187-.52-.789-2.288-1.162-3.308-.394-1.04-.996-2.933-1.1-3.266-.104-.333-.125-.478-.477-.52-.353-.041-1.266-.104-1.723-.062-.083 0-.228 0-.29.25-.063.228-.768 2.35-1.059 3.245-.311.873-1.162 3.411-1.287 3.765a258.91 258.91 0 00-1.017 3.037c-.124.396-.145.52.104.52h.685c.25 0 .374 0 .457-.187.104-.229.913-2.642.913-2.642h3.735s.146.25.457 1.29c.332 1.04.436 1.581.913 1.581h1.681c.228 0 .311-.083.311-.27 0-.188-.186-.604-.186-.604s-.789-2.288-.955-2.808m-4.068-.312c-.913 0-1.515-.021-1.515-.021s.125-.458.706-2.226.768-2.288.768-2.288.228.603.83 2.434c.581 1.83.664 2.1.664 2.1h-1.453zm30.632.291a133.49 133.49 0 00-1.162-3.308c-.374-1.04-.996-2.933-1.08-3.266-.103-.333-.124-.478-.477-.52-.353-.041-1.245-.104-1.722-.062-.083 0-.208 0-.29.25-.084.228-.769 2.35-1.06 3.245-.29.873-1.182 3.411-1.265 3.765a258.91 258.91 0 00-1.017 3.037c-.125.396-.145.52.104.52h.685c.249 0 .373 0 .456-.187.104-.229.913-2.642.913-2.642h3.715s.145.25.457 1.29c.332 1.04.415 1.581.913 1.581h1.68c.229 0 .312-.083.312-.27 0-.188-.187-.604-.187-.604s-.788-2.288-.954-2.808m-4.068-.312c-.913 0-1.515-.021-1.515-.021s.125-.458.706-2.226c.58-1.768.767-2.288.767-2.288s.25.603.83 2.434c.582 1.83.665 2.1.665 2.1h-1.453zm-17.163-6.533c0-.312-.518-.29-.81-.29h-1.099c-.394 0-.519.186-.519.623s.02 2.455.02 3.329c0 .873.042 5.741.042 6.282 0 .541.25.583.644.603.394 0 .975-.02 1.37-.02.394 0 .435-.208.435-.708 0-.499-.041-4.119-.041-4.888 0-.77-.042-4.598-.042-4.91m10.937-.312h-1.058c-.29 0-.768 0-.768.291 0 .25-.021 2.954-.021 4.286h-3.569c0-1.352-.042-4.036-.042-4.286 0-.29-.498-.29-.768-.29H27.25c-.395 0-.498.186-.498.623s.02 2.455.02 3.329c0 .873.021 5.741.021 6.282 0 .541.25.604.623.604s.934-.021 1.307-.021c.374 0 .415-.208.415-.708v-4.327h3.549v4.327c0 .5.041.708.415.708s.934.02 1.307.02c.374 0 .623-.041.623-.603v-6.282c0-.853.042-2.871.042-3.329 0-.457-.104-.624-.498-.624m18.614.146c-.311 0-2.366-.063-2.822-.063h-2.47c-.332 0-2.387.042-2.553.042-.145 0-.228.187-.228.562 0 .374.042.624.25.624h2.613c.062 0 .145 0 .145.062 0 .063.042 1.581.042 2.164 0 .582-.02 2.122-.02 2.746 0 .624.04 2.642.04 2.912s0 .874.021 1.207c0 .333 0 .416.146.437.166.041.767.104 1.203.125.436 0 .996.104.996-.52v-8.988s.021-.124.146-.124c.124 0 1.307.02 1.764.02h.747c.104 0 .249.042.249-.145.02-.187.041-.541.062-.728 0-.188 0-.312-.311-.333m2.595 2.142c0-.623.457-1.143 1.515-1.143 1.619 0 2.054.728 2.366.728.083 0 .166-.084.166-.188v-.79c0-.167-.042-.25-.332-.395-.29-.146-1.142-.416-2.304-.416-1.432 0-3.196.436-3.196 2.808 0 3.245 4.483 3.724 4.483 6.012 0 .416-.187 1.082-1.328 1.082-2.013 0-2.49-.687-2.926-.687-.146 0-.166.25-.166.479v.437c0 .145 0 .312.27.395.269.083 1.618.458 2.635.458 1.515 0 3.466-.604 3.466-2.871 0-3.246-4.649-4.057-4.649-5.908zm13.759-1.996h-.747c-.145 0-.187.104-.187.312v1.976c0 1.31.042 4.514.042 5.346 0 2.164-1.619 2.164-2.055 2.164-2.241 0-2.054-2.039-2.054-3.141v-5.825c0-.853-.229-.895-.436-.895h-.747c-.29 0-.498.021-.83.021-.332 0-.353.166-.353.374 0 .209.041 5.18.041 6.97 0 1.789 1.142 3.557 4.462 3.557s3.258-2.455 3.258-3.141v-3.225c0-3.037-.041-4.14-.041-4.306 0-.166-.145-.166-.394-.166M4.088 46.62H.478c-.291 0-.478 0-.478.354v5.325c0 1.81.042 4.452.042 4.723 0 .27 0 .374.622.416.623.02 3.05 0 3.777 0 2.947 0 4.441-2.122 4.441-5.16 0-5.034-2.801-5.658-4.814-5.658m-.353 9.715c-.602 0-1.328-.042-1.328-.042v-8.217c0-.27.228-.25.373-.25h.851c1.307 0 2.864.021 2.864 4.161s-1.411 4.348-2.76 4.348zM0 41.544h70V0H0v41.544zM8.488 10.09l15.98 15.956s39.202-3.454 39.202-7.594c0-2.496-17.515-4.68-26.086-5.388-7.658-.624-16.125-.582-16.125-.582l11.87 11.858-8.446.853-15.13-15.124s9.88-.604 27.852.998c17.972 1.623 27.954 4.369 27.954 7.26 0 7.698-48.687 15.208-48.687 15.208l4.358-6.803L4.545 10.235l3.964-.187-.021.041z" fill="#757887"/></svg>