<svg width="70" height="70" fill="none" xmlns="http://www.w3.org/2000/svg"><path d="M35 0C15.669 0 0 15.526 0 34.672 0 53.818 15.669 69.37 35 69.37s35-15.526 35-34.697C70 15.502 54.331 0 35 0zm0 68.046c-13.153 0-23.466-6.84-28.374-16.275l.748-.275c1.27 2.097 2.94 3.92 5.181 6.39 2.765 3.046 11.51 8.912 22.42 8.912 11.633 0 21.872-6.04 27.602-15.277.448-.124.597-.324.423-.699 2.616-4.642 4.41-10.459 4.41-16.15 0-3.594-.524-6.515-1.37-9.111-.624-1.972-1.496-3.919-1.87-4.693a.772.772 0 01-.124-.45c.15.126.2.2.324.375.498.924 1.644 3.195 2.167 4.693.723 1.972 2.018 4.718 2.018 9.186 0 18.247-14.922 33.374-33.58 33.374M6.925 51.022L31.438 33.35l-2.093-1.198L7.498 50.348c-2.466-4.468-4.16-10.184-4.16-15.626 0-17.224 13.701-31.152 31.04-31.277l-4.46 27.857 2.093 1.223 2.79-29.08c.05-.375.299-.375.299 0l.174 30.653 4.982-2.92-4.783-27.733c17.04.45 31.164 14.228 31.164 31.227 0 5.492-1.669 11.208-4.16 15.701L40.655 32.151l-2.093 1.198L62.03 50.4c.572.398.398.573-.225.249L35.474 35.42v5.716l26.405 10.11c-5.53 9.036-15.52 14.827-26.954 14.827-11.434 0-21.274-5.766-26.804-14.827l26.456-10.11V35.42L7.149 51.271c-.647.35-.822.15-.224-.274m-.623.3c-1.17-2.397-2.391-5.791-2.89-8.462 0-.15-.024-.275 0-.425.1.1.125.225.2.425.797 2.47 1.495 4.667 3.288 7.987l-.622.5.024-.025zm62.203-22.49s-.124-.226-.199-.4c-2.566-7.913-4.733-11.009-8.943-15.627C53.858 6.69 44.815 1.998 35.199 1.973c-18.36 0-33.28 14.952-33.28 33.35 0 5.466 1.195 10.209 2.142 12.58 1.12 2.746 3.064 6.465 3.163 6.64.075.2.1.274.1.45-.15-.1-.2-.2-.324-.375-.548-.8-2.84-4.943-3.562-6.74-1.545-3.919-2.69-8.188-2.69-12.68C.771 16.224 16.117.848 35.05.848c16.914 0 30.566 11.782 33.455 27.558 0 .15.05.274 0 .4z" fill="#757887"/></svg>