<svg width="70" height="32" fill="none" xmlns="http://www.w3.org/2000/svg"><path d="M29.71 9.66c-.889 1.398-.971 2.064-.998 2.512-.028.449-.028 1.237.698 1.889 1.218 1.073 2.928.896 4.447.896h12.481c.534 0 .684-.149.972-.53.999-1.507 1.45-3.138 1.45-4.605 0-3.138-2.052-7.078-7.266-8.857l-.589.828c4.133 1.943 5.844 4.47 5.844 8.03a5.159 5.159 0 01-.862 2.934h-12.14c-.724 0-.82-.816-.56-1.264a49.535 49.535 0 013.476-5.27 255.596 255.596 0 013.695-4.715c.342-.435.11-.87-.561-1.005A22.077 22.077 0 0035.103 0c-9.95 0-13.59 5.651-13.59 9.85 0 4.537 3.668 9.822 13.603 9.822 5.53 0 9.142-1.767 11.236-4.022h-2.108c-1.833 1.671-4.967 2.853-9.114 2.853-8.43 0-11.537-4.687-11.537-8.722.069-3.6 3.394-8.572 11.742-8.735.315 0 .561.272.342.543-1.423 1.74-5.501 7.364-5.966 8.084m37.497 16.221H59.23c.11-.965.944-1.766 1.793-1.766h8.074l-.028-1.671h-8.567c-2.71 0-4.872 2.228-4.94 4.809 0 .176.11.285.315.285l9.716-.027c.493.068.876.462.876.924 0 .516-.479.937-1.054.937H54.727V22.47H51.58v6.942h-5.79c-1.573 0-1.901-.937-1.901-1.807V22.43H38.66c-.52.354-1.013.734-1.547 1.047l-3.092 1.888-4.024-2.907h-12.18c-1.601 0-2.833.407-3.75 1.127-1.642 1.277-2.162 2.636-2.134 3.233h2.134c-.93.693-1.573 1.522-1.902 2.487H5.16c-1.259 0-2.066-.883-2.066-1.74v-5.162H0v5.366c0 1.93 1.848 3.26 4.83 3.26h23.471c.493-.325.944-.678 1.464-.977l3.19-1.916 4.036 2.853h4.598l-6.076-4.524 3.12-2.024c.671-.435 1.369-.802 2.053-1.196v4.565c0 1.916.493 3.247 4.407 3.247l22.102-.054c1.71.027 2.805-1.141 2.805-2.554 0-1.413-1.259-2.554-2.805-2.554m-39.51 3.382H16.231c.027-.883.985-1.78 1.847-1.78h7.212v-1.779h-9.155c-.11-.516.876-1.535 1.628-1.535h8.225v-.951l5.338 3.79-3.64 2.255z" fill="#757887"/></svg>