<svg width="70" height="71" fill="none" xmlns="http://www.w3.org/2000/svg"><path d="M37.776 58.328a26.646 26.646 0 0012.882-5.043c1.283-.944 3.552-3.155 4.607-4.467 2.681-3.316 4.538-7.254 5.432-11.537.344-1.566.344-1.865.367-4.95 0-2.856-.023-3.478-.276-4.767-1.49-7.783-6.12-14.3-12.995-18.237-2.407-1.382-5.524-2.487-8.504-3.017-1.994-.345-5.913-.414-7.816-.138-6.486.967-12.193 4.076-16.319 8.842-5.867 6.816-7.839 15.843-5.34 24.524 2.017 7.046 7.197 13.171 13.844 16.372 2.406 1.151 5.73 2.118 8.389 2.418 1.42.16 4.309.16 5.753 0m-6.647-3.27c-7.93-1.336-14.83-6.885-17.695-14.208-1.1-2.809-1.513-4.881-1.627-7.875-.092-2.464.091-4.19.596-6.263 2.246-8.957 9.145-15.59 17.992-17.316 1.971-.392 2.109-.369 2.36.207.528 1.29 1.032 3.96 1.514 8.29.206.391-.046 3.385.802 3.016.16-.092.252-.414.32-1.151.528-5.388 1.353-9.856 1.972-10.477.16-.162.344-.162 1.49.023 4.721.76 9.03 3.016 12.537 6.54 1.834 1.841 3.003 3.407 4.103 5.549 1.994 3.868 2.82 7.46 2.659 11.605-.07 2.096-.275 3.408-.803 5.342-2.223 8.198-8.961 14.6-17.236 16.418-.802.185-1.742.369-2.085.415l-.62.092-.206-.483c-.618-1.474-1.375-5.78-1.718-9.51-.092-.922-.161-1.774-.207-1.912-.069-.23-.481-.3-.619-.115-.023.07-.206 1.428-.39 3.04-.55 4.812-1.283 8.543-1.764 8.865-.206.138-.16.138-1.398-.07l.023-.022z" fill="#757887"/><path d="M35.324 32.423l.046-6.655.481-.046c.436-.046.482-.07.528-.46l.045-.415-1.33-.046c-1.741-.046-1.764-.046-1.718.46.046.369.092.415.481.484l.459.069v3.016c.045 1.658 0 2.97-.046 2.925-.069-.046-.734-1.612-1.49-3.477l-1.398-3.431h-1.673l-1.674.069v.391c0 .346.046.392.482.415l.481.046v6.079l-.069 6.079h-1.146l-1.329-6.171c-1.604-7.484-1.513-7.115-1.765-7.208-.527-.207-.596 0-1.765 5.343-1.169 5.388-1.49 6.447-2.246 7.23a2.669 2.669 0 01-1.948.852h-.642l.046-6.079v-6.08l.481-.068c.413-.07.459-.115.459-.46v-.392h-3.966l-.045.368c-.046.415.137.599.664.599h.367v12.112h-.298c-.527 0-.71.138-.71.53 0 .207.045.391.091.414.046.046 1.65 0 3.553-.023l3.438-.092.39-1.934.39-1.934L24 34.886c1.009-.046 1.055-.023 1.124.254.229 1.082.458 2.349.458 2.556 0 .16-.115.253-.413.276-.366.046-.412.092-.412.438v.391h3.071c2.659.07 3.095.046 3.21-.138.274-.369.068-.691-.46-.737l-.458-.046-.046-4.767c0-2.625 0-4.812.07-4.858.045-.046.985 2.118 2.062 4.812 2.682 6.678 2.384 6.033 2.796 5.987l.344-.046v-6.655l-.023.07zm-12.377 1.335c0-.3.963-4.674 1.032-4.674.091 0 1.008 4.513.916 4.674-.023.046-.48.092-1.008.092-.527 0-.963-.046-.963-.092h.023zm18.382 5.25c1.1-.3 1.949-1.497 2.338-3.316.252-1.105.183-1.312-.32-1.312-.46 0-.46 0-.78 1.243-.344 1.336-.756 2.05-1.352 2.234-.848.276-1.605-.092-2.017-1.013-.252-.553-.275-.852-.321-3.938-.069-4.743.206-6.47 1.123-6.954 1.192-.622 2.2.253 2.567 2.188.16.852.252 1.013.619.944.206-.046.252-.23.298-2.05.046-1.105.046-2.072 0-2.164-.092-.277-.665-.184-.803.138l-.137.3-.619-.392c-.573-.346-.71-.392-1.467-.346-.664.046-.94.139-1.375.438-1.49 1.06-2.544 3.845-2.544 6.747 0 3.362 1.33 6.378 3.14 7.184.481.207 1.008.23 1.65.046v.023zm14.44-.184c.275-.345.115-.645-.435-.714l-.505-.069-1.444-6.7c-.802-3.685-1.444-6.725-1.444-6.725s-.183-.023-.39-.023c-.458 0-.366-.253-1.214 3.73a784.06 784.06 0 01-1.33 6.172l-.733 3.408-.619.046-.619.046.046-6.079v-6.102l.482-.07c.39-.068.458-.114.458-.46v-.391h-3.965v.391c0 .346.046.392.458.46l.436.07v12.112l-.436.07c-.39.045-.458.114-.481.483l-.046.414 3.048-.046h3.049l.046-.391c.023-.3 0-.369-.367-.438-.206-.046-.39-.115-.39-.161s.138-.714.298-1.497l.298-1.404 1.055-.047c1.008-.046 1.054-.023 1.123.254.229 1.082.458 2.349.458 2.556 0 .184-.092.253-.32.253a.584.584 0 00-.46.253c-.183.323-.16.346.07.576.275.276 3.667.3 3.896 0l-.023.023zm-5.73-5.25c.046-.161.252-1.22.481-2.395.23-1.151.459-2.095.505-2.095.045 0 .275.99.504 2.21.229 1.22.435 2.303.481 2.395.046.115-.206.161-.985.161-1.032 0-1.055 0-.986-.3v.024z" fill="#757887"/><path d="M34.43.024C45.844.116 57.396 4.422 69.086 12.55l.573.39.069.715c1.1 13.724-1.124 25.375-6.808 34.908-5.684 9.533-14.783 16.879-27.413 21.968l-.55.23-.55-.23C20.724 65.029 11.762 57.176 6.422 47.505 1.104 37.857-.615 26.46.187 13.863l.046-.668.527-.414C11.762 4.054 23.016-.07 34.453 0M66.84 14.577C55.861 7.024 45.043 3.04 34.453 2.97 23.864 2.88 13.435 6.68 3.121 14.692c-.665 11.767.963 22.405 5.89 31.34 4.951 8.957 13.248 16.28 25.946 21.507 11.736-4.813 20.17-11.675 25.442-20.494 5.249-8.82 7.357-19.642 6.44-32.445v-.023z" fill="#757887"/></svg>