<svg width="70" height="52" fill="none" xmlns="http://www.w3.org/2000/svg"><path d="M52.567 5.753C48.181 1.014 41.003 0 34.977 0 28.95 0 21.502 1.014 17.18 6.023a3.041 3.041 0 00-.206.27c-2.114 2.535-3.423 6.165-3.423 11.03 0 15.01 12.18 17.404 21.424 17.404 9.245 0 21.504-2.393 21.504-17.403 0-4.866-1.31-8.496-3.424-11.032a17.113 17.113 0 01-.473-.554M21.03 8.686c2.887-4.454 8.361-5.548 13.962-5.548 5.6 0 10.965 1.03 13.9 5.405.046.095.125.206.173.301-4.986 2.932-10.65 3.043-14.073 10.382-3.723-7.133-9.34-7.18-14.262-10.017.095-.175.19-.349.3-.54m13.962 22.888c-8.282.08-16.076-2.33-16.076-14.25 0-.887 0-1.774.142-2.535.047-.159.079-.333.126-.491 2.793.935 5.57 1.886 8.362 2.837 3.281 1.379 5.474 3.297 7.446 7.608 1.988-4.311 4.118-6.499 7.462-7.878 2.809-1.014 5.617-2.013 8.425-3.027.032.063.032.143.047.222.142.95.205 2.124.205 3.28 0 11.92-7.872 14.313-16.155 14.25m1.373 11.728l4.417-3.677h-9.292v3.677h4.875z" fill="#757887"/><path d="M66.324 39.624H58.12v3.345h6.516c1.893 0 1.593 1.236 1.593 1.236h-5.222c-.646 0-2.682-.095-3.675 1.49v-.587c0-5.626-4.229-5.484-4.229-5.484H42.076l-11.233 8.908v-5.468c0-3.582-3.676-3.44-3.676-3.44h-8.204v3.345h6.516c1.893 0 1.64 1.236 1.64 1.236h-5.221c-.647 0-2.635-.095-3.629 1.442v-1.395c0-4.929-4.433-4.628-4.433-4.628H0v12.347h4.18v-8.67h2.935v8.654h3.976v-8.653h1.34c1.941 0 1.689 1.584 1.689 1.584v7.07h4.133v-1.649c.994 1.648 2.982 1.648 2.982 1.648h11.438l11.28-9.113v9.066h8.85c1.689 0 3.282-.84 4.024-3.138.441 3.138 3.58 3.185 3.58 3.185H70v-8.907c0-3.582-3.676-3.44-3.676-3.44m-39.283 8.956h-4.37s-.884.047-.884-.84c0-.745.694-.793.947-.793h4.323v1.649l-.016-.016zm24.627-.254h-3.723v-5.23h3.77s1.783.142 1.783 2.44c0 2.299-.836 2.79-1.83 2.79zm14.467.254h-4.37s-.9.047-.9-.84c0-.745.742-.793.994-.793h4.276v1.649-.016z" fill="#757887"/><path d="M33.967 51.971h9.292v-3.63h-4.875l-4.417 3.63z" fill="#757887"/></svg>