<svg width="70" height="77" fill="none" xmlns="http://www.w3.org/2000/svg"><path d="M34.967 0l-11.67 20.29 11.67 20.201 11.736-20.202L34.967 0z" fill="#757887"/><path d="M34.967 40.491l11.736 20.202H70L58.35 40.49H34.967zM0 60.693h23.297l11.67-20.202H11.65L0 60.693zM8.612 70.98l-1.888-4.425H4.816v9.72h1.713v-6.342l2.083 4.62 2.19-4.62v6.342h1.714v-9.72h-1.909L8.612 70.98z" fill="#757887"/><path d="M14.946 76.275v-9.72" stroke="#757887" stroke-width="1.402" stroke-miterlimit="10"/><path d="M16.616 68.037h2.06v8.238h1.736v-8.238h2.082v-1.482h-5.878v1.482zm9.696 2.593c-1.388-.697-1.909-1.046-1.909-1.743 0-.61.434-.959 1.215-.959.868 0 1.302.785 1.302 1.57h1.735c-.087-1.657-.867-3.052-3.037-3.052-1.995 0-2.95 1.046-2.95 2.528 0 1.395.868 2.18 2.17 2.942 1.822 1.046 2.255 1.308 2.255 1.896 0 .698-.52 1.133-1.388 1.133-1.041 0-1.475-.871-1.475-1.721h-1.649c.087 1.808.868 3.29 3.124 3.29 1.649 0 3.124-.958 3.124-2.767 0-1.57-.955-2.267-2.517-3.138m8.091 2.637c0 1.046-.52 1.634-1.453 1.634-1.15 0-1.67-.61-1.67-1.634v-6.69h-1.714v6.69c0 2.593 1.822 3.203 3.384 3.203 1.453 0 3.189-.697 3.189-3.203v-6.69h-1.736v6.69zm7.636-2.092c.434-.087 1.388-.872 1.388-2.18 0-1.569-1.15-2.44-2.95-2.44h-3.21v9.72h3.557c1.736 0 2.95-1.134 2.95-2.703a2.437 2.437 0 00-1.735-2.42m-1.649 3.64h-1.388v-6.777h1.302c.78 0 1.388.348 1.388 1.22s-.52 1.22-1.388 1.22h-.695v1.548h.695c1.04 0 1.648.349 1.648 1.307 0 1.046-.607 1.482-1.562 1.482zM60 70.369h-3.492v-3.814h-1.801v9.72h1.8v-4.25h3.558v4.25H61.8v-9.72H60v3.814z" fill="#757887"/><path d="M45.596 76.275v-9.72" stroke="#757887" stroke-width="1.428" stroke-miterlimit="10"/><path d="M64.338 76.275v-9.72" stroke="#757887" stroke-width="1.402" stroke-miterlimit="10"/><path d="M51.323 70.543c-1.41-.785-1.909-1.133-1.909-1.743 0-.61.52-.96 1.193-.96.868 0 1.302.698 1.389 1.57h1.648c-.087-1.656-.846-3.051-3.037-3.051-1.995 0-2.928 1.046-2.928 2.528 0 1.373.868 2.157 2.17 2.876 1.821 1.025 2.255 1.373 2.255 1.983 0 .698-.499 1.134-1.367 1.134-1.04 0-1.475-.96-1.475-1.83h-1.648c.087 1.917.867 3.312 3.123 3.312 1.65 0 3.124-.96 3.124-2.68 0-1.657-.954-2.267-2.516-3.139" fill="#757887"/></svg>