<svg width="70" height="50" fill="none" xmlns="http://www.w3.org/2000/svg"><path d="M54.43 36.648c.1.1.249.217.53.184.4-.05.416-.652.416-.652s.1-1.386.1-2.773c0-1.753-1.362-3.29-1.362-3.29S39.972 14.449 35.008 14.449c-4.963 0-19.09 15.668-19.09 15.668s-1.36 1.537-1.36 3.29c0 1.387.1 2.773.1 2.773s0 .602.414.652c.266.033.415-.084.532-.184 1.576-1.386 14.192-12.277 19.42-12.277 5.23 0 17.845 10.89 19.439 12.277" fill="#757887"/><path d="M15.04 22.4c.265.033.414-.084.53-.184 1.577-1.387 14.193-12.277 19.422-12.277 5.229 0 17.844 10.907 19.421 12.277.116.1.266.217.531.184.399-.034.415-.652.415-.652s.1-1.386.1-2.773c0-1.754-1.361-3.29-1.361-3.29S39.955 0 35.008 0c-4.946 0-19.09 15.685-19.09 15.685s-1.36 1.536-1.36 3.29c0 1.403.1 2.773.1 2.773s0 .618.414.652m30.411 20.762c-1.727-.05-3.47 0-3.486 0-2.108 0-3.818 1.454-3.818 3.258s1.71 3.307 3.818 3.307c.016 0 1.76.033 3.486 0 2.108 0 3.817-1.487 3.817-3.307 0-1.788-1.676-3.224-3.817-3.258zm-1.179 5.663s-.63.017-1.112 0c-1.195 0-2.507-.919-2.507-2.405 0-1.487 1.279-2.356 2.507-2.356 0 0 .614-.033 1.112 0 1.228 0 2.523.886 2.523 2.356 0 1.47-1.311 2.405-2.523 2.405zm21.978-5.579h-5.428c-.083 0-.3.017-.3.234v5.93c0 .167.117.25.233.25h2.258v-4.961c0-.217.166-.334.332-.334h2.506c.698 0 1.71.618 1.71 1.988v3.04s0 .25.266.25H70v-3.14c0-1.837-1.627-3.274-3.702-3.274m-40.568.017h-9.313a.245.245 0 00-.25.25v1.02h2.242c.83 0 1.394.718 1.394 1.402v3.508c0 .117.1.25.25.25h2.257v-4.81c0-.184.15-.334.332-.334h3.336v-1.019c0-.133-.1-.25-.249-.25m-11.139-.017h-2.008c-.132 0-.249.117-.249.234v5.93c0 .15.133.25.25.25h2.257v-6.164c0-.133-.116-.233-.25-.233m20.717 4.042c1.112-.267 1.843-1.07 1.843-2.005 0-1.002-.963-2.07-2.523-2.07h-6.01a1.28 1.28 0 00-1.294 1.302v4.86c0 .134.1.251.232.251h2.258v-2.271h2.141c1.892 0 2.672 1.386 2.722 2.271h2.49c-.066-1.67-1.842-2.338-1.842-2.338m-1.577-1.07h-3.918V44.95c0-.351.25-.602.598-.602h3.32c.498 0 .93.418.93.936a.949.949 0 01-.947.952m-28.7-2.189c.132 0 .63-.033 1.095 0 .897 0 1.76.485 2.208 1.22 0 .033.083.117.2.117h2.44c-.515-1.337-2.06-2.289-3.67-2.289-.879 0-2.456-.05-3.485 0-1.195.067-1.942.334-2.69.986C.399 44.715 0 45.55 0 46.436c0 1.837 1.627 3.274 3.768 3.34 1.477.05 1.627.05 3.569 0 1.793-.05 3.07-.868 3.619-2.288h-2.44a.23.23 0 00-.2.117c-.448.769-1.278 1.22-2.174 1.236H5.013c-1.262-.016-2.523-.902-2.523-2.422s1.278-2.388 2.523-2.388m47.989 4.142v-1.219h5.096v-1.136h-5.112v-1.102s0-.334.381-.334h5.86v-.902c0-.267-.282-.25-.282-.25h-8.2s-.25 0-.25.25v4.86c0 .652.498 1.303 1.312 1.303h7.17c.184 0 .25-.183.25-.233v-.902h-5.893c-.2 0-.332-.134-.332-.335zm1.295-7.249a1.788 1.788 0 00-.863-.217c-.332 0-.631.083-.863.217-.233.134-.366.317-.366.534 0 .218.117.385.366.535.232.15.53.217.863.217.332 0 .63-.067.846-.2.216-.134.448-.351.697-.351.25 0 .465.2.681.334.216.134.531.217.863.217.349 0 .648-.083.88-.217.232-.15.349-.334.349-.535 0-.2-.117-.384-.366-.534-.232-.15-.53-.217-.863-.217-.332 0-.647.083-.863.217-.232.134-.415.334-.68.334-.266 0-.432-.2-.681-.334z" fill="#757887"/></svg>