<svg width="70" height="54" fill="none" xmlns="http://www.w3.org/2000/svg"><path d="M42.458 13.16l.814.424c.196-.56.557-1.576.858-2.547a28.997 28.997 0 01-.647-1.652c-.151.5-.317 1.03-.482 1.53a49.31 49.31 0 00-.468 1.547.554.554 0 01-.557.425c-.136 0-.316-.046-.542-.137-.136.546-.257.94-.377 1.365-.106.318-.211.682-.347 1.167.588.895 1.552 2.335 2.14 3.2h.03c-.512-.744-1.025-1.517-1.356-2.002.407-1.516.603-1.88.934-3.335M22.525 32.066c.346.076.693.212 1.054.364a5.565 5.565 0 00-1.506-1c.196.272.437.62.437.62m17.025-5.533s.106.076.18.121c-.03-.015-.105-.075-.18-.12zM26.804 16.83l3.284-.046-.663-.804-3.314.06c-.257.607-.935 1.365-2.29 1.456a.99.99 0 01.21.015c.151.213.543.789.543.789.919.151 2.034-.561 2.23-1.47zm-3.767-.183c-.316.046-.738.182-.874.53l-.166.456h-.015c.196.197.422.409.709.53a1.4 1.4 0 01.994-.667h-.663v-.515l.03-.35-.015.016zm23.61-7.55c-.106-.227-.226-.455-.302-.713-.271-.955-.06-2.259.543-3.305a.61.61 0 00-.317-.076c-.346 0-.648.319-.798.577-.407.727-.392 1.288.09 2.91.301 1.062 1.055 2.927 1.507 4.049l.105.242c.528 1.334.754 1.88 1.07 3.502.271 1.304-.211 2.623-.784 3.306-.964 1.167-2.44 1.576-3.314 1.728.467 1.03.753 1.728.889 2.153.12.364.331.622.633.788a52.928 52.928 0 00-.799-1.97s2.155-.259 3.45-1.82c.483-.591.995-1.562.98-2.714-.03-2.623-2.095-6.474-2.607-7.793-.09-.212-.21-.515-.331-.864M24.95 10.31a55.8 55.8 0 01-.693-.925c-.256.076-.587.106-.994.106-.377 0-.904-.03-1.371-.121l.482.682c.874.334 1.522.41 2.576.258zm7.805-5.807c.15.03.301.03.422.03.226 0 .407-.03.572-.076-.27-.288-.617-.318-.798-.318-.331 0-.633.121-.829.333.211 0 .437.016.618.046m16.197 30.05c.286.06.452-.41.361-.773-.166-.637-.557-1.532-.587-1.926v-5.276a12.515 12.515 0 01-.829-1.167v5.382c-.045.44.18 1.016.301 1.198.241.348.226.834.06 1.122-.12.227-.33.379-.557.379h-.105a10.758 10.758 0 00-.769-.137c-.798-.151-1.37-.258-1.943-.258-.739 0-1.477.182-2.562.637l-.226.091-.21-.136-.046-.03c-.482-.304-1.356-.834-2.395-.97.376.5.663.894.663.894 1.476 0 2.576.758 3.148 1.121 2.396-1.015 3.345-.59 5.726-.166M20.837 8.37l.106-.092.331-.273c-.346-.349-.617-.41-.813-.41-.045 0-.106 0-.151.016 0 .045-.015.091-.015.091s.271.364.482.682c.015 0 .045 0 .06-.015zm10.848-.244v.016s.015.03.045.06c0-.03.015-.045.03-.076h-.075zm19.572 4.564c.407-.318-.603-1.956-.573-2.29.03-.303.03-.575.136-.909.105-.364.271-.895.392-1.44.196-1.062-.271-2.38-1.04-3.306.211.577.286 1.229.226 1.91-.06.486-.21.926-.316 1.29-.03.09-.06.166-.09.242-.091.288-.166.53-.181.788 0 .122.165.486.27.713.332.758.694 1.531.136 1.956-.075.045-.195.121-.376.121a.952.952 0 01-.347-.076c.316.258.588.455.754.561 0 0 .858.561 1.024.425m-7.97-7.915a27.06 27.06 0 00-.543-.954c.181.363.347.712.513 1.06 0-.045.03-.075.045-.105" fill="#757887"/><path d="M37.592 25.122s1.43 1.046 2.139 1.516c1.13.743 1.642 1.092 2.757 1.653.15-.06.317-.106.467-.121 0-.137-.03-.364-.15-.546-.136-.197-.347-.303-.648-.303a1.7 1.7 0 00-.377.045h-.06l-.362.046h-.15l-.121-.061s-1.838-1.031-3.194-2.032c-.317-.227-.633-.47-.904-.682-.181-.121-.347-.258-.482-.364-2.577 2.396-5.65 5.595-5.876 6.156-.272.652-.12 1 0 1.258.18.41.15.88-.046 1.183a.657.657 0 01-.557.318c-.075 0-.136 0-.211-.03-.301-.106-1.898-.607-3.45-.607-.754 0-1.356.121-1.748.38l-.105.075c.346.243.647.546.919.91 1.386-.91 4.505-.076 5.665.303.316.136.587-.106.557-.561-.03-.5-.527-1.228-.256-2.047.497-1.47 4.189-4.533 6.207-6.459" fill="#757887"/><path d="M19.813 7.202c.166-.03.376-.091.602-.091h.06c.438 0 .965.182 1.507.985l-.301.243-.422.333c.12.091.452.182.874.243.362.06.753.09 1.13.09.497 0 .934-.06 1.175-.196 0 0 .497.667 1.07 1.425.753.97 1.612 2.092 1.778 2.183.15.091-1.04.152-2.38.243-1.146.015-2.215.03-3.074.06-.754 0-1.311.592-1.492 1.092-.18.5-.392 1.546-.301 2.001l.437-.136c.09.167.165.288.226.41.331.545.452.727 1.024.94.317-.804 1.356-.88 1.703-.88h.12v.894c2.004 0 2.185-1.47 2.185-1.47l3.932-.061 1.07 1.304 1.416 1.728c-2.034 2.138-3.45 4.76-4.987 7.58.739.668.482 2.048-.738 2.184h-.136c-.678 0-1.416-.485-2.26-.485-.15 0-.3.015-.467.045-1.356.304-1.084 1.395-2.154 2.836.24.06.467.136.708.227a6.342 6.342 0 012.23 1.592c.527-.334 1.25-.455 2.019-.455 1.356 0 2.862.38 3.6.637h.061c.21 0 .286-.44.136-.804-.136-.333-.317-.834.03-1.652.316-.743 3.812-4.321 6.298-6.595 0 0 .03.015.09.06.21.152.92.683 1.642 1.228 1.341 1 3.12 2.017 3.12 2.017l.451-.046c.18-.045.347-.06.497-.06.09 0 .181.015.256.03.03 0 .06.03.106.03.06.015.135.06.196.091.045.03.09.06.135.106.015 0 .015.015.03.015.302.289.422.713.422 1.031 0 .122-.015.243-.045.334a.853.853 0 01-.18.303c-.016.015-.046.03-.06.06-.076.062-.136.122-.212.168l-.09.045a1.132 1.132 0 01-.271.106c-.121.015-.272.03-.407.015-.663-.045-1.371-.363-2.245.152-.874.485-.513 2.153-1.04 2.85.347 0 .693.046 1.01.122.994.227 1.793.727 2.23 1 2.395-1.015 3.118-.697 5.56-.273.18.03.285-.454.105-.788-.151-.273-.437-.925-.392-1.44v-5.883c-.482.046-.889.03-1.22-.06a1.887 1.887 0 01-.799-.395 1.617 1.617 0 01-.211-.242 2.13 2.13 0 01-.286-.592c-.196-.636-.769-1.895-1.145-2.713 0 0 1.597-.046 2.908-.925.286-.197.557-.425.783-.713.166-.197.316-.44.437-.728a3.946 3.946 0 00.271-2.137c-.196-1.44-.723-2.654-1.024-3.457-.422-1.137-1.311-3.093-1.643-4.26-.24-.834-.406-1.426-.437-1.926v-.364c.03-.364.121-.697.347-1.061.226-.44.723-.864 1.31-.819.136 0 .302.046.453.122.527.242.407.394.346.485-.18.273-.316.56-.422.864-.3.788-.391 1.622-.195 2.274.226.758.753 1.425 1.235 1.91.316.304.603.546.814.667 0 0 .873.561 1.04.44.406-.318-.649-1.82-.619-2.304.016-.319.106-.592.211-.91.106-.364.332-.91.392-1.456.12-1.06-.21-2.061-.859-2.744a2.77 2.77 0 00-1.642-.834c-.437-.06-2.215-.333-3.45 1.532a4.738 4.738 0 00-.362.773c-.105.364-.196.773-.18 1.183-.603-1.456-1.342-3.124-2.155-4.352a18.84 18.84 0 00-.723-.849c-.257-.273-.498-.515-.618-.546C38.932.515 36.928.03 36.37 0h-.03c-.452.045-3.767 1.243-3.887 1.395l-.392.41c-.783.196-2.41.454-2.546.606-.347.424-.106.834 0 1 .045.06.301.986.768.986h1.266c.286-.485.828-.758 1.4-.758a1.57 1.57 0 011.51 1.061c-.06.03-.12.06-.181.076-.317.136-.618.258-1.1.258-.136 0-.271 0-.422-.03h-.06a3.457 3.457 0 00-.558-.046c-.557 0-1.07.106-1.37.227-.197.076-.317.137-.317.197.015.258 1.326.334 1.672.334.392 0 .904.045 1.447.045.256 0 .512 0 .753-.03-.06.09-.136.167-.211.243-.407.363-.98.5-1.401.5h-2.02c.106.424.272.819.513 1.152h.829c.377.03.407.121.361.288-.015.091-.06.182-.09.288a4.722 4.722 0 01-.18.455c-.227.561-.558 1.213-1.025 1.637-2.034-1.789-4.776-4.032-6.705-5.458-.377-.272-1.477-.485-2.516-.485-.573 0-1.13.06-1.537.213-.331.12-.542.409-.663.621l.573.167c-1.055.637-.392 1.834-.392 1.834m22.916 11.766s-.12-.016-.18-.046c-.648-.94-1.793-2.653-2.366-3.548.407-1.516.603-1.895.934-3.335 0 0 .633.349.86.349h.044s.015 0 .015-.03c.151-.638 1.19-3.67 1.371-4.64 0 0 .151.424.362 1.061.18.546.377 1.046.588 1.516.301.743.617 1.456.904 2.168.632 1.623.858 2.32 1.07 3.412.165.864.075 1.667-.257 2.122-.18.228-.467.53-.919.743-.015 0-.03 0-.045.015a7.452 7.452 0 01-.331.137c-.03 0-.046.015-.076.03-.06.03-.12.03-.196.046-.045 0-.075.015-.12.03-.12.015-.241.03-.347.045h-.392c-.12 0-.24 0-.361-.03-.09 0-.166-.015-.241-.03-.09 0-.181-.03-.287-.046M33.373 2.395a1.586 1.586 0 01-.03-.803c.497-.076 1.205-.182 1.672-.182.06 0 .12.015.15.045.151.107.181.364-.044.47-.392.182-1.115.425-1.703.622-.03-.06-.03-.106-.06-.152M55.626 42.83c-3.133.077-5.198 2.245-5.137 5.368.075 3.153 2.064 5.018 5.228 4.942 3.209-.075 5.168-2.183 5.168-5.503 0-2.941-2.14-4.897-5.274-4.821m.136 9.127c-1.642 0-2.637-1.35-2.697-3.73-.06-2.593.889-4.17 2.652-4.184 1.748 0 2.576 1.637 2.621 3.957.03 1.425-.407 3.942-2.576 3.942M37.426 51.7s-.03.03-.09.06c-.317.152-.965.228-1.628.122-1.672-.227-2.787-1.774-2.787-3.82 0-2.441 2.14-3.76 3.57-3.821 1.432-.06 2.381.242 2.833.379l.377-1.152c-1.01-.47-2.29-.637-3.405-.637-4.58 0-6.087 3.093-6.087 5.185 0 2.714 1.793 5.125 5.62 5.125 2.636 0 4.143-.91 4.143-.91v-4.154h-2.531v3.608l-.015.015z" fill="#757887"/><path d="M39.234 44.59c-.181-.046-.09-.03 0 0zm21.922-.076h3.089v8.202h2.576v-8.202h3.18v-1.32h-8.845v1.32zm-53.11-.955c-.693-.304-1.13-.364-3.029-.364H0v9.52h2.697v-3.517h2.546c2.35 0 4.324-.5 4.324-3.244 0-.925-.648-2.032-1.506-2.395m-3.436 4.578H2.697v-3.745h2.049c1.175 0 2.094.834 2.094 1.865 0 1.031-.904 1.88-2.215 1.88zm21.666 1.577c0 1.304-.843 2.137-2.018 2.137-1.176 0-2.05-.788-2.05-2.243v-6.429h-2.516v5.746c0 1.607.392 2.35.934 2.911.905.91 1.914 1.304 3.632 1.304 1.717 0 2.727-.455 3.63-1.38.558-.545.89-1.212.89-2.774v-5.807h-2.517v6.535h.015zm-15.624 3.002h7.278v-1.531h-4.716v-3.093h3.826v-1.168H13.23v-2.38h4.716v-1.35h-7.278v9.522zm31.46 0h7.277v-1.501h-4.716v-3.093H48.5V46.97h-3.812v-2.396h4.716v-1.38h-7.277v9.522z" fill="#757887"/></svg>