<svg width="70" height="58" fill="none" xmlns="http://www.w3.org/2000/svg"><path d="M47.4 51.117c-.062-3.423-2.845-6.186-6.23-6.186-3.47 0-6.253 2.763-6.232 6.186 0 3.381 2.762 6.144 6.231 6.186 3.386-.042 6.17-2.805 6.232-6.186zm-9.679 0c-.062-2.165 1.496-3.918 3.448-3.898 1.87 0 3.407 1.733 3.427 3.898-.02 2.123-1.557 3.876-3.427 3.917-1.952-.02-3.51-1.773-3.448-3.917zm16.721-3.567h3.594v-2.124h-9.992v2.123h3.76v9.424h2.638V47.55zm6.709 6.825h4.757l.976 2.598H70l-4.757-11.547h-3.26l-4.924 11.547h3.116l.976-2.598zm2.472-6.186l1.62 4.227h-3.282l1.641-4.227h.021zM3.614 56.973h2.617V47.55h3.615v-2.124H0v2.123h3.614v9.424zm19.339-5.856c-.042-3.423-2.825-6.186-6.232-6.186a6.214 6.214 0 00-6.231 6.186c0 3.381 2.783 6.144 6.231 6.186 3.407-.042 6.19-2.805 6.232-6.186zm-9.66 0c-.04-2.165 1.496-3.918 3.449-3.898 1.89 0 3.448 1.733 3.448 3.898s-1.537 3.876-3.448 3.917c-1.932-.02-3.49-1.773-3.448-3.917zm15.559 5.856h1.308V52.58l4.59-7.155h-2.928l-2.97 4.887-2.784-4.887h-3.116l4.59 7.155v4.392h1.31zm5.462-16.991c17.74 0 32.196-8.97 32.196-19.98C66.51 8.99 52.053 0 34.314 0 16.576 0 2.12 8.97 2.12 20.001c0 11.032 14.436 19.98 32.195 19.98zm0-38.992c17.2 0 31.2 8.536 31.2 19.011s-14 19.012-31.2 19.012C17.116 39.013 3.116 30.476 3.116 20S17.095.99 34.314.99z" fill="#757887"/><path d="M26.463 14.805l.478.082.083-.494c.768-4.599 2.43-8.207 4.57-9.898l1.225-.969-1.558.082c-7.54.454-13.003 2.434-13.938 5.052a2.875 2.875 0 00-.145.825c0 .433.125.887.374 1.3 1.038 1.772 4.279 3.216 8.91 4M18.259 8.99c.706-2 5.546-3.732 11.736-4.31-1.765 1.98-3.116 5.176-3.822 9.053-4.03-.742-6.896-2.02-7.748-3.444a1.516 1.516 0 01-.249-.804c0-.165.02-.33.083-.495zm11.631 5.712l-.104.536.54.041a50.27 50.27 0 003.968.145c1.33 0 2.68-.062 3.967-.145l.54-.04-.083-.537c-.748-4.145-2.389-6.619-4.424-6.619-2.036 0-3.677 2.474-4.425 6.619m4.425-5.65c1.37 0 2.659 2.062 3.344 5.258-1.1.062-2.202.124-3.344.124-1.143 0-2.244-.041-3.344-.124.664-3.216 1.952-5.258 3.344-5.258zm7.291 5.361l.083.495.477-.082c4.632-.784 7.873-2.248 8.911-4 .395-.681.478-1.423.229-2.125-.935-2.598-6.398-4.598-13.938-5.051l-1.558-.103 1.226.969c2.14 1.69 3.801 5.32 4.57 9.897zm8.786-5.402c.062.165.083.33.083.495 0 .268-.083.536-.25.804-.85 1.423-3.738 2.701-7.768 3.443-.706-3.876-2.056-7.072-3.822-9.052 6.17.557 11.01 2.31 11.736 4.31M31.012 36.538l1.495.104-1.142-.97c-2.95-2.494-4.777-8.454-4.777-15.506v-1.67l-.395-.082c-7.083-1.258-12.11-4.227-12.837-7.527l-.166-.783-.644.515c-3.386 2.825-5.172 6.166-5.172 9.671 0 8.269 10.157 15.238 23.617 16.248M12.63 11.857c1.288 3.34 6.128 6.124 12.961 7.423v.866c0 6.557 1.558 12.207 4.155 15.258C17.469 34.105 8.37 27.734 8.37 20.27c0-3.01 1.475-5.897 4.258-8.412zm26.503 7.732v-.722l-.54.041a48.789 48.789 0 01-4.279.186c-1.433 0-2.887-.062-4.278-.186l-.54-.04v.72c0 6.558 2.077 11.527 4.819 11.527 2.741 0 4.819-4.948 4.819-11.526zm-4.819 10.537c-1.827 0-3.76-4.083-3.842-10.187 1.267.083 2.555.145 3.843.145a57.75 57.75 0 003.822-.145c-.063 6.104-2.015 10.187-3.822 10.187zM42 18.496v1.67c.02 7.073-1.807 13.012-4.757 15.506l-1.142.97 1.495-.104c13.481-1.01 23.618-7.98 23.618-16.248 0-3.505-1.787-6.866-5.172-9.67l-.624-.516-.187.783c-.706 3.32-5.753 6.269-12.836 7.527l-.416.082H42zm13.98-6.619c2.783 2.516 4.257 5.403 4.257 8.413 0 7.465-9.098 13.836-21.374 15.135 2.576-3.052 4.155-8.701 4.155-15.259V19.3C49.852 18.001 54.69 15.218 56 11.877" fill="#757887"/></svg>