<svg width="70" height="52" fill="none" xmlns="http://www.w3.org/2000/svg"><path d="M40.835 16.544L35.51 8.378l2.808-6.827-9.69 14.911 6.217 8.738 5.989-8.672v.016zm-5.94-6.451l4.771 6.843-4.771 6.974-4.983-6.974 4.983-6.843z" fill="#757887"/><path d="M31.113 33.284l.162.262h7.596l.162-.278 9.868-16.348.179-.294-.179-.294L39.098.278 38.936 0h-8.018l-.178.278-9.64 16.07-.18.294.18.294 9.997 16.365.016-.017zm.438-32.157h6.752l9.446 15.499h-5.957l-8.537 12.412 1.136-2.793-6.686-9.603H22.25v-.032l9.284-15.5.016.017zM11.117 42.316c0-2.614-2.158-2.99-2.158-2.99H0c.065.768 1.412 1.536 1.412 1.536v8.019l-1.006.49v1.209H6.2v-1.21l-1.136-.49v-3.495l.52-.033 1.914 5.178h3.993v-1.11l-2.71-4.001s2.336-.507 2.336-3.12m-3.96 1.666H5.064V41.5h2.093s.374.686.374 1.274-.374 1.208-.374 1.208m14.38 2.776h-2.402v1.944h-2.11V45.55h1.396l.536.702h1.217v-3.136h-1.071l-.698.702h-1.38v-2.596h2.078v1.208h2.58v-3.136H12.19v1.046l1.055.473v8.036l-1.055.686v1.094h9.348v-3.87zm6.979 3.871h3.051v-9.587l1.234-.523.032-1.24H28.63v1.208l1.055.36.032 3.87-3.116-5.439-4.35.017v1.012l.666.36v8.378l-1.055.67v.914h4.187v-.915l-1.006-.62v-4.23l3.473 5.765zm8.781-.033h5.859v-1.208L42.1 48.93l-3.392-9.652h-4.886v1.209l1.396 1.339-2.142 7.12s-.503.393-1.12.621v1.045h3.976v-1.045l-1.038-.359.6-2.041h2.386l.665 1.78-1.233.653v1.012l-.016-.016zM36.03 45.24l.486-1.665.617 1.665H36.03zm11.46 6.075c3.748 0 4.17-2.956 4.17-2.956v-7.317l.877-.36v-1.208h-3.814v1.176l1.2.392v7.627s-.81.523-1.558.523c-.746 0-1.363-.523-1.363-.523v-7.627l1.363-.555V39.44l-6.93.033v1.045l1.737.523v7.382s.552 2.89 4.3 2.89m12.141-2.089h-1.915v-7.676l1.59-.865V39.44h-6.28v1.209l.876.392v8.362l-1.023.36v1.159l8.862.032V47.28h-2.11v1.943z" fill="#757887"/><path d="M60.49 43.312h2.271l.033-1.796h.795v7.333l-1.542.702v1.372h6.59V49.55l-1.542-.67v-7.365h.681v1.796H70v-3.838h-9.51v3.838z" fill="#757887"/></svg>