<svg width="70" height="64" fill="none" xmlns="http://www.w3.org/2000/svg"><path fill-rule="evenodd" clip-rule="evenodd" d="M15.125 20.567v.755c0 10.428 8.402 18.864 18.747 18.864 8.594 0 15.824-5.805 18.054-13.737l-30.09.31 7.229-5.612-13.94-.6v.02zm.673-4.334l30.283-.29-7.383 5.65 13.901.6c0-.291.02-.581.02-.872 0-10.409-8.403-18.864-18.747-18.864-8.595 0-15.844 5.824-18.055 13.776h-.019zM30.603 55.8c.98 0 1.692-.503 1.692-1.78 0-1.277-.711-1.78-1.692-1.78h-5.441s-.173.077-.173.154v3.25s.077.175.173.175h5.441v-.02zM55.1 49.512c0-.155.134-.271.269-.271h4.46c.154 0 .27.116.27.27v10.39s.077.175.173.175h9.46c.154 0 .269.116.269.27v2.419c0 .155-.115.27-.27.27H55.254s-.173-.076-.173-.154v-13.37h.019zm-1.634-.271c.153 0 .269.116.269.27v2.42c0 .154-.135.27-.27.27H43.217s-.154.077-.154.155v2.109s.077.174.154.174h7.98c.154 0 .269.116.269.27v2.42c0 .154-.116.27-.27.27h-7.979s-.154.078-.154.174v2.11s.077.173.154.173h10.248c.154 0 .27.116.27.271v2.419c0 .154-.135.27-.27.27H38.218s-.173-.077-.173-.174V49.357s.077-.174.173-.174h15.248v.058zM12.105 59.863c.77-.116 1.539-.639 1.77-1.626.134-.522.115-3.617 0-4.237-.25-.967-1.02-1.412-1.77-1.509a25.222 25.222 0 00-5.537 0c-.77.097-1.538.523-1.769 1.51-.135.619-.135 3.714 0 4.236a2.14 2.14 0 001.769 1.626c1.692.213 3.672.213 5.537 0zm2.25 3.154c-3.634.425-6.787.406-10.114 0-1.5-.233-3.422-1.103-3.903-3.019-.48-1.915-.423-5.669 0-7.778.48-1.915 2.404-2.805 3.903-2.98 3.327-.406 6.46-.425 10.114 0 1.5.175 3.423 1.065 3.903 2.98.423 2.09.48 5.863 0 7.778-.48 1.916-2.403 2.786-3.903 3.019zm18.17-4.238h-7.384s-.172.078-.172.155v3.831c0 .155-.116.27-.27.27h-4.46a.264.264 0 01-.27-.27v-13.37s.077-.174.173-.174h12.383c2.595 0 4.48 1.393 4.48 4.76 0 3.366-1.885 4.779-4.48 4.779v.02zM12.683 20.451l-6.576-.29v-3.85l7.172-.078C15.53 6.907 23.893 0 33.852 0c11.69 0 21.17 9.539 21.17 21.302 0 .33 0 .658-.02.968l6.538.29v3.773l-7.114.077c-2.288 9.306-10.633 16.194-20.574 16.194-11.69 0-21.188-9.538-21.188-21.321v-.87l.02.038z" fill="#757887"/></svg>