<svg width="70" height="44" fill="none" xmlns="http://www.w3.org/2000/svg"><path d="M45.059 29.95l2.897 3.227h-.738c-4.03 0-7.306 1.533-7.306 4.85 0 2.67 3.275 4.85 7.306 4.85 4.03 0 7.306-2.18 7.306-4.85 0-2.668-3.33-5.968-5.02-8.06h-4.445v-.017zm5.65 7.97c0 1.388-1.566 2.506-3.473 2.506-1.907 0-3.49-1.118-3.49-2.507 0-1.388 1.565-2.506 3.49-2.506 1.925 0 3.473 1.118 3.473 2.506zm-15.385.72c0 2.651-4.337 2.651-4.337 0v-5.21h-3.742v5.553c0 5.428 11.732 5.482 11.732 0V33.43h-3.653v5.21z" fill="#757887"/><path d="M57.403 42.842V33.43" stroke="#757887" stroke-width="4.746" stroke-miterlimit="10"/><path d="M14.45 30.274l1.296 1.587-7.216 10.98h4.337l1.17-1.946h8.241l1.224 1.947h4.516l-8.655-12.55h-4.912v-.018zm1.134 8.06l2.483-4.11 2.591 4.11h-5.074zM57.763.018a12.312 12.312 0 00-7.72 2.596 12.331 12.331 0 00-7.36-2.56 12.369 12.369 0 00-7.719 2.579 12.343 12.343 0 00-7.378-2.56c-2.879-.055-5.542.919-7.683 2.542-2.034-1.57-4.57-2.489-7.324-2.543C5.741-.018.11 5.5.001 12.333-.089 19.185 5.4 24.83 12.237 24.92c2.88.036 5.56-.92 7.684-2.56a12.262 12.262 0 007.341 2.542c2.898.036 5.579-.92 7.72-2.578 2.051 1.568 4.589 2.542 7.36 2.56 2.897.054 5.578-.938 7.72-2.579a12.29 12.29 0 007.359 2.56c6.838.091 12.47-5.409 12.578-12.26C70.089 5.752 64.583.108 57.763 0m-.306 23.44a10.987 10.987 0 01-7.396-2.993c-2.123 1.93-4.714 3.066-7.683 3.011A10.907 10.907 0 0135 20.465c-2.07 1.93-4.877 3.047-7.72 3.011a11.093 11.093 0 01-7.36-2.957 9.767 9.767 0 01-1.097.884 10.832 10.832 0 01-6.586 2.091c-4.48-.054-8.331-2.83-9.969-6.743a4.875 4.875 0 01-1.133-.216 12.147 12.147 0 01-.702-4.22C.523 5.915 5.651.721 11.967.505c.162.252.36.577.522.974h.054a11.034 11.034 0 017.54 3.155l-.09-1.55A11.851 11.851 0 0127.01.503c.09.145.341.488.557.975 2.771.036 5.597 1.262 7.54 3.137l-.09-1.479A11.621 11.621 0 0142.072.505c.18.252.36.577.522.956h.054c2.789.036 5.56 1.316 7.557 3.209l-.108-1.569a12.072 12.072 0 017.054-2.65c.09.144.504.973.576.973 5.902.27 10.599 3.823 10.85 11.162.18 6.058-5.092 10.926-11.138 10.854" fill="#757887"/><path d="M16.178 16.553a11.364 11.364 0 01-.702-4.22 11.88 11.88 0 012.573-7.248c.612 0 1.224-.036 1.584-.036a10.332 10.332 0 00-7.072-2.94C6.84 2.039 2.124 6.637 2.052 12.352c-.054 4.995 3.42 9.214 8.098 10.278.162-.198.342-.415.522-.649.521.09 1.08.144 1.637.162 2.178.036 4.175-.667 5.902-1.947l1.44.036a11.221 11.221 0 01-2.321-3.48 5.913 5.913 0 01-1.116-.198m-3.905 5.102c-5.038-.072-9.069-4.219-9.015-9.268.072-5.03 4.229-9.087 9.267-9.033A8.999 8.999 0 0117.6 4.959c-1.565 2.055-2.519 4.598-2.537 7.374a12.442 12.442 0 002.537 7.7c-1.115.739-3.005 1.659-5.29 1.622z" fill="#757887"/><path d="M21.558 9.52c.198-.505.558-.793.558-.793-.342-1.208-1.314-2.47-2.195-3.39a10.564 10.564 0 00-2.88 6.996c-.053 1.84.648 4.742 2.052 6.365.27.306.468.649.846.974l.036-1.317c1.331-1.586 2.015-3.642 2.051-5.734 0-1.081-.144-2.127-.468-3.1zm-1.637 8.168a9.212 9.212 0 01-1.638-5.319 8.933 8.933 0 011.62-5.067 9.085 9.085 0 011.62 5.338 8.977 8.977 0 01-1.62 5.066M36.584 9.52c.197-.522.557-.793.557-.793-.288-1.028-1.331-2.524-2.159-3.354a10.3 10.3 0 00-2.825 6.978 10.39 10.39 0 002.879 7.32l.036-1.225c1.116-1.803 1.961-3.534 1.98-5.806 0-1.082-.145-2.128-.468-3.102m-1.602 8.114a9.057 9.057 0 01-1.584-5.283 9.196 9.196 0 011.584-5.012 9.309 9.309 0 011.584 5.265 9.304 9.304 0 01-1.584 5.03z" fill="#757887"/><path d="M46.336 16.498a11.741 11.741 0 01-.701-4.219c.036-2.74 1.007-5.247 2.573-7.248h1.547c-1.925-1.822-4.39-2.921-7.107-2.957a10.308 10.308 0 00-7.27 2.848 10.919 10.919 0 013.005 7.7c-.036 2.722-1.116 5.445-2.97 7.41a10.291 10.291 0 004.805 2.56c.162-.215.342-.432.522-.648.522.09 1.08.144 1.638.162 2.357.036 4.336-.83 6.01-1.965l1.313-.036a11.227 11.227 0 01-2.249-3.408 5.929 5.929 0 01-1.116-.199zm-3.94 5.103a9.188 9.188 0 01-5.093-1.623 12.368 12.368 0 002.52-7.338c.053-2.885-.918-5.536-2.538-7.682A9.18 9.18 0 0142.648 3.3a9.146 9.146 0 015.074 1.64 12.37 12.37 0 00-2.52 7.34 12.428 12.428 0 002.538 7.68c-1.116.74-3.023 1.677-5.344 1.641zm24.922-12.91c-.828-2.94-4.985-6.635-9.591-6.635-2.807-.037-5.362 1.063-7.27 2.848 1.961 2.056 3.06 4.869 3.041 7.718-.036 2.65-1.115 5.5-3.005 7.41a10.514 10.514 0 004.804 2.543c.163-.198.342-.415.522-.65.522.109 1.08.163 1.638.163 5.308.072 9.68-4.201 9.77-9.502 0-1.1-.161-2.128-.485-3.102.198-.505.576-.793.576-.793zm-9.843 12.91a8.947 8.947 0 01-5.075-1.623c1.566-2.037 2.484-4.58 2.52-7.338a12.39 12.39 0 00-2.538-7.681 9.084 9.084 0 015.345-1.66c5.02.073 9.069 4.238 9.015 9.287-.072 5.03-4.229 9.087-9.267 9.015z" fill="#757887"/><path d="M51.663 9.484c.216-.523.558-.793.558-.793-.324-1.19-1.296-2.47-2.196-3.372a10.47 10.47 0 00-2.825 6.978 10.349 10.349 0 002.933 7.375V18.41c1.35-1.822 1.944-3.426 1.997-5.825 0-1.081-.143-2.127-.485-3.1m-1.602 8.131c-1.044-1.496-1.62-3.336-1.601-5.301a9.051 9.051 0 011.583-5.013 9.085 9.085 0 011.62 5.284c-.036 1.875-.612 3.606-1.602 5.03zm-18.786-1.081a12.146 12.146 0 01-.702-4.22 12.032 12.032 0 012.574-7.248l1.493-.036c-1.961-1.821-4.3-2.885-7.054-2.921-2.789-.036-5.326 1.046-7.215 2.83 1.961 2.092 3.077 4.725 3.04 7.718-.035 2.777-1.151 5.445-3.04 7.447 1.313 1.244 3.023 2.127 4.804 2.524.162-.216.324-.433.522-.667.522.108 1.08.162 1.637.162 1.944.036 4.481-.63 5.957-1.983h1.385a10.678 10.678 0 01-2.25-3.426 6.129 6.129 0 01-1.133-.198m-3.959 5.102a8.863 8.863 0 01-5.038-1.604 12.377 12.377 0 002.555-7.357c.036-2.903-.935-5.572-2.555-7.717a9.137 9.137 0 015.29-1.623 9.205 9.205 0 015.093 1.64 12.37 12.37 0 00-2.52 7.34c-.035 2.866.9 5.535 2.52 7.662-1.116.74-3.023 1.695-5.345 1.66z" fill="#757887"/></svg>