<svg width="72" height="36" fill="none" xmlns="http://www.w3.org/2000/svg"><path d="M20.74 34.996h.693v-1.663h1.199v-.55h-1.2v-.915h1.277v-.55H20.74v3.678z" fill="#757887"/><path d="M51.597 35.011v-3.663" stroke="#757887" stroke-width=".805" stroke-miterlimit="10"/><path d="M60.222 31.868h.815v3.128h.692v-3.128h.815v-.535h-2.322v.535z" fill="#757887"/><path d="M1 35.011v-3.663" stroke="#757887" stroke-width=".827" stroke-miterlimit="10"/><path d="M42.065 34.08v.031-.03l-.938-2.763h-.814v3.663h.584V32.22l.953 2.762h.8v-3.663h-.585v2.763z" fill="#757887"/><path d="M71 35.011v-3.663m-39.666 3.663v-3.663" stroke="#757887" stroke-width=".827" stroke-miterlimit="10"/><path d="M11.608 34.08l.016.031h-.016v-.03l-.937-2.763h-.815v3.663h.584V32.22l.969 2.762h.799v-3.663h-.6v2.763zM35.992 0C21.08 0 8.995 6.029 8.995 13.461c0 6.029 7.933 11.126 18.864 12.851l8.133-19.246 8.149 19.246c10.931-1.725 18.864-6.822 18.864-12.85C63.005 6.028 50.921 0 36.008 0M48.4 20.222L36.008 5.982l-12.346 14.21c-6.088-1.679-10.101-4.624-10.101-8.242C13.56 6.227 23.539.84 35.977.84s22.662 5.372 22.662 11.11c0 3.648-4.074 6.609-10.24 8.272z" fill="#757887"/></svg>