<svg width="70" height="61" fill="none" xmlns="http://www.w3.org/2000/svg"><path d="M64.963 24.14a.926.926 0 00-.576-.187h-2.546a27.378 27.378 0 00-3.084-6.552l4.218-4.033 2.768 3.23a.982.982 0 001.078.28c.372-.13.632-.504.632-.933L67.249.955a.927.927 0 00-.316-.691.906.906 0 00-.706-.262L50.823.898a.955.955 0 00-.874.691 1.01 1.01 0 00.353 1.064l3.68 2.67-3.698 3.584a28.19 28.19 0 00-15.33-4.5c-12.58 0-23.245 8.233-26.869 19.546H5.837a.85.85 0 00-.52.15c-.223.149-5.185 3.453-5.315 8.344-.074 3.024 1.691 5.9 5.259 8.55.167.112.371.187.576.187h2.36C11.894 52.347 22.504 60.43 34.954 60.43c12.45 0 23.041-8.083 26.757-19.246h2.639c.204 0 .39-.056.557-.187.205-.15 4.999-3.547 5.092-8.457.055-3.005-1.654-5.824-5.073-8.4M34.954 6.35a26.189 26.189 0 0114.902 4.61c.372.262.892.206 1.227-.112l5.091-4.947a.951.951 0 00-.111-1.474l-2.416-1.755L65.317 2l.148 11.294-1.691-1.998a.956.956 0 00-.688-.317c-.26 0-.52.075-.706.28l-5.556 5.283a.95.95 0 00-.13 1.25 26.238 26.238 0 013.103 6.161h-7.246c-3.085-6.59-9.737-11.182-17.43-11.182s-14.345 4.574-17.41 11.182h-7.526C13.734 13.723 23.508 6.35 34.99 6.35m15.404 17.604h-30.51c2.917-5.488 8.658-9.222 15.255-9.222 6.596 0 12.32 3.734 15.255 9.222zM34.991 58.49c-11.372 0-21.071-7.225-24.713-17.305h7.785c3.215 6.179 9.644 10.435 17.058 10.435s13.843-4.24 17.059-10.436h7.507c-3.623 10.062-13.323 17.305-24.695 17.305zM20.293 41.184h29.693c-3.028 5.077-8.547 8.475-14.846 8.475-6.3 0-11.818-3.398-14.847-8.475zm43.778-1.96H6.208c-2.861-2.185-4.292-4.425-4.218-6.721.075-3.36 3.327-5.955 4.218-6.627h57.863c2.713 2.11 4.07 4.35 4.032 6.608-.055 3.36-3.14 6.049-4.032 6.74z" fill="#757887"/><path d="M19.773 28.956h-5.594v1.102h1.487l-2.564 4.816-2.806-4.798h2.044v-1.12H4.22v1.12h1.877l.743 1.382 2.081 3.845.837 1.512h4.478l1.71-3.136 1.95-3.603h.056l1.82-.018v-1.102zm5.017-.224c-3.177 0-5.76 1.867-5.76 4.144 0 2.278 2.564 4.163 5.76 4.163 3.196 0 5.742-1.867 5.742-4.163 0-2.296-2.565-4.144-5.742-4.144zm-.093 7.056c-.836 0-1.505-1.344-1.505-2.986 0-1.643.669-3.006 1.505-3.006.836 0 1.505 1.344 1.505 3.005 0 1.662-.669 2.987-1.505 2.987zm36.271-7.056h-.111c-3.178 0-5.742 1.867-5.742 4.144 0 2.278 2.545 4.144 5.704 4.163h.038a7.39 7.39 0 001.97-.261c2.21-.579 3.771-2.11 3.771-3.902 0-1.792-1.505-3.248-3.642-3.864a6.826 6.826 0 00-1.988-.28zm.037 7.019s-.149.056-.241.056c-.818 0-1.487-1.344-1.487-2.987s.67-2.987 1.487-2.987c.13 0 .241.019.334.075.669.299 1.152 1.493 1.152 2.912 0 1.419-.557 2.726-1.263 2.95m-22.428-.168h-1.933v-5.507h1.84v-1.12H31.07v1.12h1.877v5.507h-1.97v1.213h11.298v-3.64H41.05c-.056 1.941-1.766 2.427-2.49 2.427zm17.243-6.646h-5.574v1.102h1.468l-2.583 4.816-2.787-4.798h2.044v-1.12h-8.102v1.12h1.858l3.661 6.74h4.497l2.137-3.977 1.505-2.763h.334l1.542-.018v-1.102z" fill="#757887"/></svg>