<svg width="70" height="12" fill="none" xmlns="http://www.w3.org/2000/svg"><path d="M2.901.015H.62C.19.015 0 .22 0 .635v10.423c0 .413.206.605.619.605H2.9c.427 0 .604-.207.604-.62V.62C3.505.207 3.3 0 2.887 0M18.38 5.713c-1.208-.384-7.732-2.45-8.027-2.539-.235-.074-.25-.236-.206-.354.03-.118.118-.163.324-.163h8.94c.412 0 .604-.192.604-.605V.62c0-.413-.177-.62-.604-.62h-9.043C7.864 0 6.79 1.373 6.79 2.982c0 1.27.619 2.303 2.239 2.85.339.118 8.13 2.583 8.365 2.657.221.074.25.25.221.354-.044.118-.133.192-.31.192h-9.91c-.428 0-.62.192-.62.605v1.388c0 .458.192.62.62.62h9.97c2.282-.03 3.608-.945 3.608-2.864 0-1.61-.692-2.465-2.548-3.07M36.362.015H34.05c-.442 0-.618.192-.618.605v6.614c0 1.092-.162 1.742-1.665 1.786-.353 0-.986.015-1.443.015-.457 0-1.001 0-1.355-.015-1.502-.044-1.767-.694-1.767-1.786V.62c0-.413-.206-.605-.604-.605h-2.297c-.428 0-.604.192-.604.605v7.16c0 1.846.412 3.824 3.873 3.868 1.267.015 2.754.03 2.754.03s1.4 0 2.666-.03c3.667-.059 3.976-1.949 3.976-3.868V.62c0-.413-.191-.62-.618-.62m33.033.015H67.07c-.427 0-.618.192-.618.605v6.614c0 1.092-.162 1.742-1.665 1.786-.353 0-.986.015-1.443.015-.456 0-1.001 0-1.355-.015-1.502-.044-1.767-.694-1.767-1.786V.62c0-.413-.206-.605-.604-.605H57.32c-.428 0-.604.192-.604.605v7.16c0 1.846.412 3.824 3.873 3.868 1.267.015 2.754.03 2.754.03s1.4 0 2.666-.03C69.676 11.59 70 9.7 70 7.78V.62c0-.413-.192-.62-.604-.62M53.299 9.05h-9.926c-.177 0-.265-.06-.31-.192-.044-.103 0-.28.221-.37.236-.073 8.027-2.538 8.35-2.657 1.62-.546 2.24-1.58 2.24-2.849 0-1.594-1.076-2.982-3.58-2.982h-9.042c-.427 0-.619.207-.619.62v1.432c0 .428.192.605.604.605h8.94c.191 0 .294.045.324.163.03.118.03.28-.206.354-.295.089-6.834 2.155-8.042 2.54-1.855.605-2.547 1.46-2.547 3.07 0 1.934 1.325 2.835 3.608 2.864.854.015 9.97 0 9.97 0 .442 0 .619-.162.619-.62V9.64c0-.413-.192-.605-.619-.605" fill="#757887"/></svg>