<svg width="70" height="27" fill="none" xmlns="http://www.w3.org/2000/svg"><path d="M33.058 21.715s1.237-.602 1.237-2.014c0-.516-.233-2.248-2.597-2.248H23.72v8.56s4.926.038 7.977 0c2.646-.024 2.769-1.645 2.769-2.407 0-1.363-1.385-1.891-1.397-1.891m-6.788-2.53c.061-.037 3.014 0 4.693 0 .502 0 .968.307.968.872 0 .65-.405.921-.883.921-1.85 0-4.704.037-4.766 0v-1.806l-.012.013zm4.815 5.097c-2.046 0-4.742.037-4.815 0v-1.855c.061-.037 3.21-.024 4.779-.037.539-.024 1.041.357 1.041.97 0 .64-.502.922-1.005.922zm25.695-1.572c.061-.012 1.287-.835 1.287-2.211 0-1.609-.638-3.046-3.002-3.046h-7.621v8.56h2.573v-2.652s3.087.024 4.619 0c.662-.012 1.2.688 1.2 1.29v1.363h2.292v-1.327c0-1.253-1.311-1.977-1.336-1.977m-2.083-.921c-1.85 0-4.656.024-4.692 0v-2.604h4.692c.638 0 1.042.749 1.042 1.363s-.429 1.24-1.042 1.24zm-15.732-4.336l-4.607 8.56h2.56l.969-1.731h5.367l.93 1.732h2.525l-4.62-8.561h-3.124zm-.16 4.987l1.68-3.096 1.764 3.096h-3.443zm28.598-4.987c.05.062 0 3.746-.036 6.117 0 .32-.123.725-.6.725h-4.45c-.526 0-.722-.308-.722-.688 0-2.653-.099-6.117-.05-6.19h-2.524c-.036.06-.036 4.139 0 6.84.025 1.327 1.41 1.77 2.966 1.77 2.205 0 3.418.036 5.869 0 1.286-.025 2.144-.7 2.12-1.77-.025-2.37-.037-6.791-.037-6.791h-2.537v-.013zM9.153 20.708c-2.046-.098-4.534-.074-6.065-.16-.846-.037-.846-1.646.085-1.646h4.693c.637 0 .637.7.637.725h2.328c-.049-.098.245-2.493-2.01-2.493H2.047c-1.115 0-1.923.688-1.923 1.523v1.805c0 1.167 1.041 1.732 2.487 1.781 2.12.05 3.406.123 5.097.197 1.397.073 1.2 1.817 0 1.842-1.605.037-2.61 0-4.374 0-1.005 0-.968-1.007-.968-1.007H.037a2.253 2.253 0 000 .81 2.233 2.233 0 002.205 1.929h6.702c1.017 0 2.059-.565 2.047-1.769l-.037-1.805c0-1.044-.846-1.67-1.801-1.732zm11.027-3.255c.037.062.037 3.746 0 6.117 0 .32-.122.725-.6.725h-4.497c-.478 0-.723-.308-.723-.688 0-2.653-.037-6.13 0-6.19H11.8c-.05.06.012 4.139.036 6.84.025 1.315 1.36 1.77 2.928 1.77 2.243 0 3.456.036 5.857 0 1.287-.025 2.181-.7 2.169-1.77-.024-2.37-.037-6.791-.037-6.791H20.18v-.013zm6.874-15.267c-2.353 1.4-3.835 3.292-3.835 5.22 0 1.929 1.482 3.795 3.81 5.183 2.243 1.314 5.281 2.187 8.565 2.187s6.36-.86 8.614-2.174c2.352-1.388 3.835-3.255 3.835-5.184 0-1.928-1.495-3.832-3.848-5.22C41.953.873 38.902 0 35.606 0c-3.296 0-6.31.872-8.552 2.199m20.633 5.22c0 1.793-1.409 3.55-3.65 4.863-2.194 1.29-5.184 2.125-8.43 2.125-3.248 0-6.188-.847-8.382-2.125-2.242-1.314-3.639-3.083-3.639-4.864 0-1.78 1.422-3.574 3.652-4.9C29.43 1.216 32.396.356 35.606.356s6.225.848 8.406 2.15c2.254 1.326 3.675 3.12 3.675 4.912z" fill="#757887"/><path d="M31.048 1.928l-1.151 2.923-5.098 1.094 5.098 1.093 1.213 3.107L32.322 7.1l5.526-1.154-5.587-1.216-1.213-2.8zm6.31 5.662l-2.18.48 2.18.49.552 1.34.478-1.278 2.364-.553-2.364-.479-.54-1.215-.49 1.215zm6.311-1.215l-.54 1.215-2.132.48 2.132.49.54 1.34.49-1.278 2.364-.553-2.364-.479-.49-1.215zm-1.508-.062l.478-1.339 2.365-.491-2.365-.491-.551-1.216-.478 1.216-2.18.491 2.18.491.551 1.339zm-2.254 2.972l-.54 1.229-2.131.479 2.132.49.539 1.278.54-1.277 2.376-.491-2.426-.54-.49-1.168zm-6.31.369l-.49 1.29-2.181.478 2.18.43.552 1.327.49-1.277 2.365-.48-2.365-.552-.551-1.216z" fill="#757887"/></svg>