<svg width="70" height="45" fill="none" xmlns="http://www.w3.org/2000/svg"><path d="M17.07 22.963c.191.989.43 1.977.812 2.934.223.543.461 1.069.811 1.563.637.925 1.48 1.595 2.514 2.041.413.176.843.335 1.273.463 1.209.367 2.465.558 3.722.654a92.01 92.01 0 003.628.239c1.75.064 3.5.096 4.868.112 1.463-.016 2.545-.032 3.611-.048a87.66 87.66 0 004.55-.207c1.13-.08 2.26-.192 3.373-.4.907-.175 1.813-.398 2.673-.78 1.416-.623 2.497-1.611 3.134-3.047.27-.606.509-1.212.684-1.85.334-1.212.557-2.44.732-3.683.159-1.228.302-2.472.43-3.7a41.73 41.73 0 00.222-3.7c.048-1.978.063-3.971-.111-5.948-.064-.766-.191-1.516-.43-2.233-.398-1.228-1.066-2.28-2.1-3.062-.668-.51-1.416-.845-2.211-1.116-1.066-.351-2.148-.527-3.246-.67A56.704 56.704 0 0041.97.19c-1.4-.064-2.8-.128-4.2-.16a132.605 132.605 0 00-5.633 0c-2.116.048-4.231.128-6.331.32-1.05.095-2.1.207-3.134.398-.875.16-1.735.383-2.562.75-1.4.606-2.466 1.562-3.134 2.966-.382.781-.605 1.626-.716 2.488a22.718 22.718 0 00-.19 2.743c0 1.18-.017 2.36 0 3.54.031 2.105.238 4.21.477 6.3.127 1.163.318 2.296.54 3.444m.907-11.45c.032-1.005.064-2.026.128-3.03.047-.893.143-1.77.413-2.632.334-1.1.923-2.025 1.861-2.695.526-.383 1.13-.654 1.75-.861.685-.223 1.4-.367 2.116-.463a90.22 90.22 0 012.991-.334c.7-.064 1.4-.112 2.1-.144 1.162-.048 2.323-.128 3.5-.128 1.719-.016 3.42 0 5.139.016 1.289.032 2.593.096 3.898.176 1.384.08 2.768.207 4.136.43.891.128 1.782.32 2.61.67 1.017.415 1.86 1.053 2.465 1.994.334.542.557 1.148.716 1.77.143.622.239 1.26.286 1.914.16 1.913.175 3.827.144 5.757a49.155 49.155 0 01-.223 3.412c-.08.925-.175 1.85-.287 2.775-.19 1.5-.43 2.998-.906 4.45-.16.494-.35.988-.589 1.435-.589 1.164-1.511 1.977-2.705 2.472-.731.303-1.511.478-2.29.606-1.353.223-2.705.319-4.073.398-1.862.096-3.739.144-5.6.144h-.446v.032c-1.607-.032-3.23-.064-4.852-.128a84.95 84.95 0 01-3.516-.223c-.986-.08-1.94-.223-2.895-.462a8.185 8.185 0 01-1.369-.479 5.156 5.156 0 01-2.577-2.552 11.831 11.831 0 01-.827-2.392 27.825 27.825 0 01-.589-3.412c-.127-1.292-.27-2.584-.366-3.86-.143-1.547-.159-3.093-.127-4.64M8.082 37.188c.095 0 .175.032.254.032.255.032.51.064.78.096.318.032.477.191.525.51 0 .032.016.08.016.112v1.291s-.016.016-.016.032c-.239.032-4.725.032-4.868 0v-1.403c.032-.303.207-.479.509-.526.143-.032.286-.032.43-.048.206-.016.413-.048.636-.08v-.542c0-.176.016-.351-.016-.51H0v1.068c.095 0 .175.032.255.032.254.032.509.064.78.096.317.031.476.19.54.51v4.258c0 .096 0 .191-.016.287-.064.303-.223.447-.525.494-.27.032-.509.064-.78.08-.095 0-.174.032-.254.048v1.037c.207.047 6.205.031 6.348 0v-1.037c-.334-.032-.653-.08-.97-.112-.398-.048-.573-.207-.59-.606V41s0-.015.017-.031c.27-.048 4.709-.032 4.868.016v1.26s0 .111-.016.159c-.048.303-.207.462-.51.494l-.429.048c-.207.032-.413.048-.62.08v1.068h6.347v-1.068c-.11 0-.206-.032-.302-.048-.254-.032-.493-.048-.748-.08-.286-.047-.445-.191-.493-.478-.016-.112-.016-.223-.016-.32v-3.922c0-.096 0-.208.016-.32.064-.302.223-.462.541-.493l.446-.048a7.02 7.02 0 00.572-.08v-1.069H8.114v1.069l-.032-.048zm28.907-1.053v1.037s.063.016.11.016c.303.032.606.08.908.111.334.048.509.208.54.543v3.939s0 .08-.015.143c-.064-.08-.127-.143-.16-.207a410.632 410.632 0 01-3.96-5.23c-.192-.256-.43-.4-.733-.4h-5.568v1.069s.143.032.223.032l.796.096c.334.032.493.191.556.526.016.096 0 .191 0 .271v4.146c-.032.367-.206.543-.588.59-.143 0-.287.032-.446.048-.19.016-.366.048-.557.08v1.053c.207.047 4.916.031 5.06 0 .031-.24.031-.91 0-1.053-.096 0-.191-.032-.287-.032-.254-.032-.493-.048-.732-.096-.318-.032-.493-.223-.525-.542v-4.05h.048c.048.063.08.111.127.175 1.32 1.738 2.641 3.492 3.962 5.23.207.288.477.4.811.4h3.93v-6.14c.031-.351.206-.527.556-.575.16-.015.303-.031.446-.047.19-.016.382-.048.573-.08v-1.069c-.303-.032-4.932-.016-5.075 0m18.709 3.509c-.096-1.005-.525-1.85-1.32-2.472a4.672 4.672 0 00-1.178-.638c-.843-.303-1.734-.415-2.625-.415H42.7v1.069c.286.032.557.064.827.08.51.048.653.223.653.733v4.338c-.064.319-.223.478-.557.51-.143 0-.302.032-.446.048a7.08 7.08 0 00-.572.08v1.068h7.7c.445 0 .906-.016 1.368-.063a5.94 5.94 0 002.02-.543c.907-.446 1.56-1.1 1.878-2.073.19-.574.222-1.148.175-1.738m-3.755 1.547a1.917 1.917 0 01-.239.59c-.238.399-.62.606-1.066.686a4.702 4.702 0 01-.668.063h-2.657v-4.863h2.737c.286 0 .588.031.875.127.445.144.748.447.922.861.175.399.207.83.223 1.26 0 .43 0 .861-.111 1.276m-25.773-4.115c-.589-.43-1.257-.685-1.957-.877-.986-.255-2.004-.334-2.99-.334-.94 0-1.846.063-2.737.27-.684.144-1.352.367-1.94.734-1.21.734-1.846 1.802-1.846 3.206 0 1.371.572 2.44 1.718 3.205.318.207.652.367 1.018.51.796.303 1.639.447 2.498.51 1.272.096 2.53.065 3.786-.175.716-.143 1.416-.367 2.052-.733 1.162-.67 1.83-1.659 1.925-2.998.08-1.372-.397-2.504-1.527-3.318zm-2.243 4.02c-.191.876-.716 1.419-1.575 1.61a4.836 4.836 0 01-2.386-.016c-.86-.207-1.353-.765-1.512-1.627-.063-.303-.08-.621-.127-.94.016-.383.048-.75.143-1.1.207-.782.684-1.277 1.464-1.484a5.163 5.163 0 012.418-.032c.843.207 1.384.734 1.559 1.595a4.605 4.605 0 010 1.977m44.37 1.308c-.588-.909-1.193-1.818-1.781-2.727-.653-1.005-1.32-1.993-1.973-2.998-.207-.335-.477-.51-.891-.51h-5.966v1.068s.143.032.223.032c.382.048.748.08 1.13.128.333.032.492.319.333.621-.031.048-.047.096-.08.144-.874 1.435-1.765 2.855-2.64 4.29a.711.711 0 01-.127.175.75.75 0 01-.493.287c-.128 0-.287.032-.43.048-.19.032-.398.048-.589.08v1.053c.287.047 4.916.031 5.06 0v-1.037c-.128 0-.24-.032-.367-.048a4.128 4.128 0 01-.62-.08c-.334-.063-.43-.319-.255-.59.096-.16.207-.319.287-.478.064-.128.159-.16.302-.16h4.582c.048 0 .095.032.127.064.127.192.27.383.366.59.127.224.048.43-.19.526a2.02 2.02 0 01-.446.096c-.239.032-.477.048-.732.08v1.053s.048.015.064.015H70V43.01c-.302-.032-.62-.08-.907-.112-.366-.032-.62-.207-.827-.51m-8.146-2.169c.494-.797.987-1.579 1.464-2.376.111.096 1.432 2.073 1.575 2.36-.143.048-2.736.048-3.039 0" fill="#757887"/><path d="M23.8 4.607a93.1 93.1 0 01.127 2.042c.064 1.116.143 2.232.207 3.349.064.909.111 1.834.175 2.743.064 1.068.143 2.136.223 3.189.048.845.111 1.706.175 2.552.08 1.164.175 2.328.254 3.476.08.941.144 1.898.223 2.839.096 1.1.175 2.185.27 3.285 0 .096.017.191.032.271.684.144 3.198.271 3.803.271.016-.08.047-.16.08-.255.317-1.196.651-2.392.986-3.588.19-.654.413-1.292.731-1.898.382-.765 1.003-1.18 1.846-1.308a14.555 14.555 0 012.195-.175c.732 0 1.48.048 2.212.175.795.144 1.4.543 1.782 1.26l.238.479c.255.59.477 1.212.636 1.834.303 1.068.573 2.153.876 3.221.031.08.047.175.079.24.748.047 3.452-.16 3.802-.288.716-8.5 1.241-17.016 1.782-25.548-.875-.127-1.75-.175-2.64-.207-.017.08-.033.128-.048.191-.35 1.611-.716 3.206-1.066 4.816a172.597 172.597 0 01-1.719 7.001c-.206.75-.445 1.5-.795 2.201-.652 1.356-1.734 2.105-3.23 2.313-.556.08-1.113.095-1.67.111-.811 0-1.639 0-2.434-.16-1.002-.19-1.846-.653-2.482-1.466-.318-.4-.54-.878-.732-1.356-.334-.83-.557-1.674-.795-2.536-.875-3.396-1.639-6.81-2.387-10.238-.063-.303-.143-.59-.206-.909-.891.016-1.75.08-2.625.191v.16l.095 1.643" fill="#757887"/></svg>