<svg width="70" height="48" fill="none" xmlns="http://www.w3.org/2000/svg"><path d="M67.78 13.178H59.5c-1.09 0-2.04-.905-2.536-1.672C52.564 4.426 44.163 0 35.01 0c-9.154 0-18.03 4.642-22.33 12.116l-.04.079c-.078.294-.376 1.003-1.446 1.003H2.2c-1.209 0-2.2.982-2.2 2.202v14.713c0 1.219.99 2.183 2.2 2.183h7.489c.574 0 1.09.334 1.545.983.1.157.277.374.476.63.336.452.772 1.022 1.07 1.475 4.557 7.356 13.096 11.938 22.31 11.938 9.212 0 16.94-3.835 21.516-10.286.12-.177.278-.413.476-.669.594-.826 1.387-1.947 2.02-3.206.397-.708.674-.846 1.23-.846h7.449c1.228 0 2.219-.983 2.219-2.183V15.42c0-1.2-.99-2.203-2.22-2.203m-56.11.61v-.04c.793-.137 1.367-.629 1.565-1.376C17.435 5.153 25.757.649 34.99.649c9.233 0 17.139 4.288 21.418 11.211.614.964 1.744 1.967 3.071 1.967h8.282c.357 0 .654.118.912.295l-2.061 1.908a1.358 1.358 0 00-.694-.197H4.022a1.27 1.27 0 00-.713.216l-1.684-2.104a1.73 1.73 0 01.554-.098h9.451l.04-.02zm5.984 26.356c-.634-.472-1.407-1.279-2.16-2.203-.555-.669-1.09-1.397-1.605-2.085a48.9 48.9 0 01-1.387-1.987c-.436-.688-.753-1.18-.812-1.317-.278-.531-.535-1.18-.08-1.79.436-.61 1.586-1.298 2.279-1.554l4.34 2.518-.199.334-3.705-2.045c2.873 8.123 11.095 13.964 20.764 13.964 9.669 0 17.08-5.743 20.07-13.63l-3.248 1.691-.1-.157s-.04-.098-.079-.157l4.478-2.577 2.853 2.262c-.911 2.301-3.467 6.235-6.954 5.822-4.597 5.055-9.907 7.494-17.02 7.494-7.113 0-13.394-2.833-17.693-7.317l-2.12-.689c.693 1.397 1.664 2.636 2.358 3.383m33.544-7.67c-2.418 6.805-9.967 9.382-16.208 9.5-6.24-.118-13.77-2.675-16.207-9.5-.08-.197-.06-.315-.02-.354 0 0 .06-.02.08-.02h32.315s.08 0 .08.02c.039.039.039.157-.04.354zm15.434-15.361v10.01a.687.687 0 01-.694.69H4.022a.687.687 0 01-.693-.69v-10.01a.7.7 0 01.693-.689h61.896a.7.7 0 01.694.689z" fill="#757887"/><path d="M18.961 15.302h32.712c1.149 0 .673-.964.396-1.475 1.328.216 2.338.787 3.19 1.514C52.386 6.608 44.441 2.4 35.089 2.4c-9.352 0-17.297 5.114-20.15 13.178.694-.53 2.06-1.298 3.071-1.475-.04.57.218 1.22.971 1.22m.08-1.75c2.773-7.14 9.034-9.56 15.949-9.56 6.915 0 14.384 2.321 16.683 9.56 0 0 .02.117.04.157 0-.02 0-.08-.04-.158.099.433.06.61-.436.61H19.615c-.317 0-.733-.079-.535-.61m-4.042 10.561l-2.655-6.569H8.421V26.2h2.417v-6.845l2.794 6.845h3.843v-8.635h-2.437v6.57z" fill="#757887"/><path d="M20.665 26.199v-8.635" stroke="#757887" stroke-width="2.995" stroke-miterlimit="10"/><path d="M44.382 17.564L41.27 26.2h2.516l.535-1.554h3.626l-.674-1.908h-2.278l1.149-3.226 2.377 6.688h2.497l-3.071-8.635h-3.566zM28.59 20.907h-2.595v-1.396h4.894v-1.927h-4.993c-1.308 0-2.378.629-2.378 2.478 0 .865.139 2.793 2.933 2.793h2.635v1.396h-5.33v1.967h5.41c1.267 0 2.495-1.023 2.495-2.675s-.91-2.616-3.07-2.616m29.937 3.206l-2.655-6.569H51.93V26.2h2.398v-6.845l2.813 6.845h3.824v-8.635h-2.437v6.57zm-20.744-3.226h-2.596v-1.396h4.894v-1.927H35.09c-1.307 0-2.397.629-2.397 2.478 0 .865.158 2.793 2.932 2.793h2.655v1.396h-5.33v1.967h5.41c1.267 0 2.496-1.023 2.496-2.675s-.912-2.616-3.091-2.616" fill="#757887"/></svg>