<svg width="70" height="71" fill="none" xmlns="http://www.w3.org/2000/svg"><path d="M35 0C15.712 0 0 15.72 0 35.072c0 19.352 15.687 35.071 35 35.071 19.313 0 35-15.72 35-35.072C70 15.72 54.288 0 35 0zm0 69.159C16.241 69.159.982 53.869.982 35.071.982 16.274 16.241.96 35 .96s34.018 15.29 34.018 34.087c0 18.798-15.259 34.088-34.018 34.088" fill="#757887"/><path d="M15.058 21.295s.075.05.1.076h.026c.68-.883 1.36-1.74 2.039-2.599.252-.303.504-.63.755-.933.252-.303.303-.732.151-1.085-.2-.379-.553-.631-1.007-.631-.352 0-.63.202-.856.48l-.906 1.135c-.63.782-1.234 1.539-1.838 2.321.327.252.63.505.956.782.202.152.378.303.554.454" fill="#757887"/><path d="M35 1.564c-18.457 0-33.414 14.988-33.414 33.482 0 18.495 14.957 33.482 33.414 33.482s33.414-14.987 33.414-33.482C68.414 16.552 53.457 1.564 35 1.564zm-5.389 2.094l3.123-.353L35 9.941l2.266-6.636 3.123.353.352 9.412-2.442-.354-.227-6.282-2.19 6.282h-1.738l-2.216-6.282-.227 6.282-2.442.354.352-9.412zm-21.1 15.518l-.756-.606-.075-.076s.075-.1.126-.151c.654-.807 1.284-1.615 1.939-2.447.755-.934 1.51-1.893 2.266-2.852.15-.176.277-.353.428-.555.252-.328.604-.555.982-.706a2.284 2.284 0 012.367.505c.302.302.529.68.63 1.085.1.428.075.832-.051 1.261.05-.05.1-.1.176-.151.73-.505 1.687-.656 2.518-.278.831.379 1.36 1.136 1.486 2.019.025.328 0 .68-.076 1.009-.201.63-.63 1.11-1.032 1.59-.78.983-1.561 1.942-2.342 2.926-.655.808-1.31 1.615-1.939 2.423-.05.075-.1.126-.15.176 0 0-.051-.05-.076-.05-.227-.202-.479-.379-.73-.58-.957-.758-1.889-1.515-2.846-2.271-.957-.758-1.914-1.54-2.87-2.297m26.489 36.813c-11.533 0-20.874-9.36-20.874-20.942 0-11.581 9.341-20.917 20.874-20.917 11.532 0 20.874 9.361 20.874 20.917 0 11.556-9.342 20.942-20.874 20.942zm19.892-31.741l-1.209-2.069 4.13-5.425-6.194 2.851-1.738-1.614 5.64-7.444 1.738 1.615-3.273 4.29 5.212-2.397 1.536 1.917-3.475 4.567 4.885-2.246 1.208 2.07-8.485 3.91.025-.025z" fill="#757887"/><path d="M14.982 15.315c.076-.353 0-.706-.252-.958a1.036 1.036 0 00-1.183-.253c-.302.127-.479.379-.655.631-.755.908-1.46 1.842-2.216 2.75 0 0-.176.202-.15.202.15.126.301.227.453.353.402.328.78.631 1.158.96.403-.48.78-.96 1.158-1.464.403-.48.78-.959 1.158-1.438.177-.253.403-.455.504-.757m.227 19.731h19.841V15.189c-10.827.278-19.54 9.033-19.841 19.857" fill="#757887"/><path d="M35 54.929c10.828-.278 19.54-9.033 19.842-19.883H35V54.93z" fill="#757887"/></svg>