<svg width="19" height="19" fill="none" xmlns="http://www.w3.org/2000/svg"><path fill-rule="evenodd" clip-rule="evenodd" d="M4.763.601a5.053 5.053 0 00-2.878 1.374C1.113 2.715.63 3.583.397 4.648c-.07.321-.079.454-.076 1.21.004.921.066 1.523.245 2.41.957 4.731 4.52 8.584 9.174 9.92 1.175.336 2.244.49 3.438.491.714.002.86-.008 1.176-.077a5.206 5.206 0 003.076-1.951c.569-.758.932-1.75.996-2.72.026-.404-.008-.555-.156-.694-.1-.093-5.793-2.39-6.012-2.425-.144-.024-.34.06-.443.188-.045.056-.308.668-.585 1.36l-.502 1.257-.233-.008a4.17 4.17 0 01-.574-.078 5.74 5.74 0 01-4.487-4.64 3.557 3.557 0 01-.062-.525c.01-.09.079-.122 1.286-.603 1.403-.559 1.474-.6 1.523-.89.023-.135-.063-.366-1.15-3.086C6.383 2.171 5.82.806 5.78.754 5.635.57 5.35.526 4.763.601zm1.24 3.47c.531 1.326.96 2.416.952 2.422-.007.005-.547.223-1.2.483-1.268.506-1.398.579-1.448.814-.044.205.019 1.017.114 1.477a6.806 6.806 0 005.674 5.374c.31.045.773.07 1.094.06.067-.002.145-.048.233-.136.11-.113.204-.317.603-1.32.26-.653.478-1.193.483-1.2.006-.007 1.098.422 2.427.953l2.415.966-.02.216c-.046.485-.318 1.195-.645 1.688-.62.931-1.684 1.582-2.842 1.738-.754.101-2.238-.04-3.38-.323a11.971 11.971 0 01-4.62-2.287c-.5-.4-1.44-1.34-1.84-1.84-1.535-1.922-2.411-4.153-2.61-6.645-.047-.6-.025-1.33.052-1.68a4.058 4.058 0 011.502-2.379 4.879 4.879 0 011.002-.563c.283-.102.793-.224.943-.226l.147-.002.965 2.41z" fill="#fff"/></svg>