<svg width="48" height="55" fill="none" xmlns="http://www.w3.org/2000/svg"><path fill-rule="evenodd" clip-rule="evenodd" d="M14.906.168c-.676.243-1.352.958-1.54 1.63-.08.283-.144.98-.145 1.549 0 .943-.034 1.07-.38 1.454-.3.334-.49.423-.933.434-.506.013-.634-.06-1.435-.822-.975-.929-1.56-1.231-2.379-1.231-.89 0-1.41.313-2.9 1.75-2.537 2.448-2.696 3.451-.856 5.419.918.981.952 1.04.881 1.56-.044.325-.207.673-.41.874-.303.3-.481.343-1.797.422-1.56.094-1.796.17-2.363.763-.58.607-.649.98-.649 3.486 0 2.244.015 2.38.324 2.902.516.873 1.215 1.18 2.886 1.271 1.263.07 1.426.108 1.66.394.638.781.5 1.392-.556 2.484-.802.827-1.212 1.542-1.21 2.11.002.884.297 1.358 1.793 2.876 1.334 1.353 1.545 1.516 1.91 1.481.341-.033.418-.105.455-.428.039-.338-.14-.573-1.375-1.806-.78-.78-1.457-1.57-1.502-1.757-.128-.524.122-.991 1.067-1.989.62-.654.897-1.06.963-1.41.224-1.182-.314-2.388-1.284-2.879-.402-.203-.796-.27-1.598-.27-2.192 0-2.319-.171-2.319-3.12 0-2.192 0-2.194.356-2.546.322-.32.453-.353 1.382-.354 1.236 0 1.953-.178 2.56-.632.861-.644 1.218-2.092.744-3.018-.12-.235-.573-.796-1.004-1.245-.866-.9-1.047-1.333-.803-1.918.09-.215.82-1.026 1.625-1.803 1.364-1.32 1.497-1.414 2.002-1.414.483 0 .65.1 1.556.932.558.513 1.183.97 1.39 1.016.208.046.48.11.607.145.36.096 1.346-.213 1.828-.574.707-.53.896-1.024.977-2.554.067-1.27.099-1.397.444-1.74.368-.364.39-.368 2.407-.411 2.073-.044 2.614.043 2.98.48.1.12.205.764.251 1.556.098 1.693.381 2.312 1.298 2.845.47.273.811.368 1.315.365.855-.004 1.36-.266 2.447-1.269.968-.893 1.382-.991 2.162-.514.507.311.937.253 1.064-.145.281-.878-1.591-1.67-2.838-1.2-.198.075-.734.492-1.192.928-1.004.955-1.424 1.145-2.071.933-.744-.243-.98-.776-.982-2.204 0-1.103-.035-1.265-.387-1.816-.629-.983-1.044-1.114-3.66-1.151-1.671-.025-2.36.016-2.766.161zm13.22 9.025c-3.188.367-5.887 1.348-8.553 3.113-1.34.887-3.82 3.368-4.717 4.718-2.152 3.244-3.044 6.204-3.042 10.098.001 3.638.776 6.398 2.66 9.478.355.58.575 1.086.536 1.232-.082.314-1.31 1.461-1.563 1.461-.105 0-.356-.129-.558-.286l-.367-.287-1.501 1.457c-9.203 8.934-9.263 9.004-9.266 10.762-.002 1.164.3 1.988 1.019 2.78.766.844 1.71 1.261 2.892 1.277 1.724.024 1.65.08 7.378-5.578l5.152-5.089-.329-.388c-.242-.285-.296-.448-.205-.617.153-.284 1.441-1.49 1.591-1.49.06 0 .534.25 1.052.553 2.183 1.281 4.288 2.06 6.675 2.467.986.17 1.795.203 3.508.149 3.152-.1 5.04-.57 7.707-1.916 5.107-2.58 8.678-7.45 9.632-13.137.28-1.674.21-4.991-.14-6.573-1.186-5.351-4.756-9.93-9.647-12.372-2.847-1.422-6.886-2.16-9.913-1.812zm-12.573.747c-2.834.757-5.04 3.058-5.637 5.88-.348 1.643-.23 2.943.288 3.177.254.114.37.095.584-.096.228-.205.254-.35.184-1.019-.183-1.733.557-3.683 1.904-5.02 1.19-1.182 2.802-1.918 4.213-1.921.817-.003 1.283-.593.826-1.045-.215-.214-1.486-.19-2.362.044zm17.826.746c5.91 1.183 10.85 5.608 12.684 11.363.755 2.369.968 5.522.539 7.964-1.211 6.885-6.803 12.41-13.784 13.622-1.51.262-4.253.264-5.754.004-5.43-.938-9.945-4.308-12.366-9.227-3.132-6.365-1.971-13.73 2.97-18.847 4.125-4.27 9.857-6.05 15.711-4.88zm-5.185 2.141c-3.794.43-7.526 2.546-9.86 5.59-.848 1.106-2.049 3.51-2.411 4.826a14.326 14.326 0 004.887 15.049c1.365 1.09 3.859 2.33 5.563 2.765 1.061.27 1.52.308 3.642.298 2.028-.009 2.6-.057 3.464-.293 2.68-.729 4.712-1.898 6.663-3.832 1.96-1.944 3.162-4.003 3.855-6.607.356-1.337.488-4.299.255-5.74-1.042-6.445-6.313-11.403-12.831-12.066-1.522-.155-1.777-.154-3.227.01zm4.991 1.532c3.705.92 6.96 3.537 8.638 6.945 1.045 2.121 1.278 3.186 1.275 5.818-.002 2.388-.1 2.936-.901 4.996-1.152 2.965-4.229 6.01-7.23 7.156-2.083.795-2.607.886-5.086.885-2-.002-2.432-.042-3.373-.313-2.999-.865-5.427-2.498-7.218-4.855-4.083-5.372-3.412-12.874 1.563-17.489 3.337-3.094 7.873-4.25 12.332-3.143zm-9.019 3.846c-.081.098-.27.569-.419 1.046-.525 1.687-1.784 3.168-3.332 3.919-1.018.495-1.274 1.168-.514 1.357.691.172 2.703-1.126 3.666-2.366 1.098-1.414 1.81-3.43 1.39-3.932-.208-.249-.592-.26-.79-.024zm9.683.948c-.257 1.01-.58 1.195-2.255 1.284-1.586.085-1.817.166-2.431.86-.501.566-.744 1.367-.62 2.049.129.706.253.901 1.22 1.923.736.776.86.978.86 1.401 0 .451-.137.631-1.566 2.065-2.024 2.032-2.233 2.075-3.67.737-.497-.461-1.035-.908-1.197-.992-.401-.21-1.573-.194-2.107.027-.885.366-1.739 1.781-1.509 2.5.17.529 1.145.441 1.145-.102 0-.388.423-1.073.755-1.223.768-.347 1.204-.207 2.177.698.502.467 1.06.926 1.24 1.02.44.23 1.643.206 2.12-.042.547-.284 3.512-3.3 3.683-3.748.21-.546.174-1.51-.074-1.999-.12-.235-.588-.805-1.042-1.265-.73-.739-.826-.898-.826-1.365 0-.396.094-.626.376-.918.359-.371.444-.393 1.778-.452 1.24-.054 1.464-.103 1.952-.424.647-.424 1.03-.994 1.153-1.715.107-.627-.087-.91-.626-.91-.344 0-.403.065-.536.591zM17.167 39.94c.426.442.775.907.775 1.033 0 .125-.265.49-.59.812-.324.322-.692.585-.819.585-.242 0-1.76-1.361-1.987-1.782-.109-.202 0-.375.61-.98.87-.863.86-.865 2.011.332zm-2.71 2.39c1.316 1.291 1.731 1.78 1.732 2.04 0 .269-.921 1.25-4.418 4.707-4.203 4.154-4.455 4.378-5.16 4.584-1.39.405-2.83-.204-3.427-1.451-.3-.626-.276-1.742.05-2.409.342-.7 8.875-9.17 9.238-9.17.143 0 1.002.735 1.985 1.699z" fill="#fff"/></svg>