<svg width="121" height="31" fill="none" xmlns="http://www.w3.org/2000/svg"><g clip-path="url(#clip0_1_385)" fill="#fff"><path d="M5.862 12.05l11.589-1.388-.025-.24c-1.927.08-3.855.221-5.782.228-1.952 0-3.91-.08-5.856-.221-1.933-.142-3.86-.405-5.788-.614l.018-.16c1.29-.104 2.578-.215 3.861-.313 4.444-.344 8.784-1.246 13.08-2.375 6.15-1.62 12.289-3.284 18.458-4.825C40.984.75 46.637-.098 52.4.012c4.855.092 9.587.921 14.234 2.32 6.273 1.891 12.638 3.383 19.139 4.248 2.848.38 5.72.546 8.575.86 4.701.509 9.28 1.497 13.589 3.56 1.553.742 3.253 1.172 4.837 1.86 2.713 1.178 5.107 2.823 6.918 5.223.196.264.368.546.503.89-2.05-2.191-4.579-3.572-7.476-4.647l1.915 2.535-.061.025c-.94-.804-1.866-1.627-2.818-2.412-1.51-1.24-3.394-1.467-5.211-1.854-4.407-.927-8.888-1.326-13.375-1.62-4.726-.313-9.28-1.37-13.694-3.051-4.573-1.75-9.275-3.02-14.124-3.67a56.27 56.27 0 00-14.259-.093c-4.05.485-8.004 1.4-11.89 2.633a.902.902 0 00-.367.197c4.898.337 9.753.939 14.54 2.08-.723-.055-1.454-.147-2.178-.171-3.683-.11-7.36-.258-11.043-.276-2.105-.013-4.217.178-6.322.325-.552.037-1.093.27-1.62.503 4.542-.264 9.066-.319 13.596-.037 4.511.283 8.973.878 13.374 1.928-1.215-.098-2.436-.246-3.652-.283-3.234-.092-6.482-.337-9.704-.147-6.887.411-13.755 1.068-20.63 1.602-5.45.43-10.908.626-16.358-.086-.958-.123-1.91-.258-2.971-.405h-.006zm56.593-9.57C49.94.08 37.927 2.167 26.302 7.237c.755 0 1.503-.037 2.252-.086.964-.068 1.952-.025 2.88-.252 3.731-.896 7.432-1.933 11.177-2.799 4.585-1.062 9.225-1.78 13.945-1.786 1.995 0 3.99.11 5.899.166zM26.4 23.509v-1.215c0-2.094.018-4.18 0-6.274 0-.478.153-.62.62-.62 4.745.013 9.483.013 14.228 0 .491 0 .78.099.7.676-.062.49.208 1.074-.73 1.068-4.07-.043-8.14-.019-12.21-.019-.84 0-1.19.491-.871 1.265.05.116.264.227.411.233.491.03.988.018 1.486.018h11.128c.786 0 .749.006.792.982.03.62-.209.75-.78.743-4.07-.024-8.139-.012-12.208-.012-.768 0-1.191.65-.81 1.307.08.141.417.19.638.19 3.891.013 7.777 0 11.668.013 1.608.006 1.553-.356 1.412 1.633h-15.48l.006.012z"/><path d="M96.773 23.497v-7.464c0-.332-.012-.627.467-.627 4.941.013 9.888.013 14.829.019.062 0 .123.043.215.08v1.614H98.565v1.492h13.701v1.743H99.732c-.905 0-1.287.495-1.148 1.485h13.688v1.645H96.779l-.006.012zm-73.436-2.444c.602.798 1.185 1.578 1.78 2.376-1.307.393-1.983.27-2.602-.798-.798-1.369-1.836-1.805-3.407-1.706-2.376.147-4.763.049-7.145.03-.46 0-.657.117-.626.602.037.49-.012.988.012 1.485.019.418-.16.571-.558.534-.203-.018-.405-.006-.608 0-.387.025-.57-.116-.565-.54.019-2.338.025-4.677.019-7.01 0-.466.178-.626.638-.62 1.418.019 2.83 0 4.248 0 2.811 0 5.622 0 8.427.007 1.676.006 2.204.552 2.204 2.234v1.08c0 1.54-.3 1.934-1.823 2.32l.006.006zm-6.058-1.755c1.774 0 3.554.012 5.328-.012.257 0 .712-.142.742-.283.099-.51.135-1.068.013-1.565-.043-.172-.602-.3-.927-.3a720.892 720.892 0 00-9.643-.007c-1.645.006-1.412-.264-1.455 1.48-.012.509.129.712.681.7 1.756-.031 3.505-.013 5.26-.013zm25.927 4.174V15.83c0-.454.313-.417.601-.417h12.608c1.774 0 2.327.564 2.333 2.35 0 1.283.018 2.56-.006 3.843-.025 1.283-.62 1.94-1.91 1.946-4.45.024-8.9 0-13.35 0-.061 0-.123-.037-.282-.08h.006zm7.636-1.608c1.798 0 3.597-.013 5.395.006.577 0 .823-.246.816-.804-.006-1.031 0-2.069 0-3.1 0-.577-.233-.847-.853-.84-3.572.017-7.15.011-10.723 0-.491 0-.608.202-.601.644.024 1.123.03 2.246 0 3.37-.019.54.128.748.712.742 1.755-.03 3.504-.012 5.26-.012l-.006-.006zm42.966-.369c.019-.319.037-.558.037-.791 0-1.529.013-3.057-.018-4.586-.006-.503.104-.73.669-.712 1.068.025 1.068-.006 1.068 1.05v7.022c-.902.061-1.676.104-2.474-.307-3.603-1.866-7.23-3.677-10.852-5.506-.153-.08-.313-.147-.546-.264v6.095h-1.627v-8.028c.718-.08 1.418-.148 2.13.22 3.652 1.86 7.323 3.696 10.987 5.531.172.086.35.16.614.276h.012zm-32.194-6.089v6.458h13.83v1.645H59.931v-1.087c0-2.087.019-4.18-.012-6.267-.012-.589.154-.828.755-.755.282.037.577.006.945.006h-.006zM27.499 26.302h6.488c1.16 0 1.626.693 1.252 1.823a.856.856 0 00-.006.54c.405 1.136-.086 1.866-1.277 1.866h-6.451v-4.235l-.006.006zm.896 3.364c1.909 0 3.744.006 5.58-.019.147 0 .294-.24.441-.368-.165-.13-.325-.356-.49-.362-.964-.037-1.934-.019-2.898-.019h-2.633v.768zm.012-1.75c.258.012.43.03.608.03 1.657 0 3.314.007 4.972-.018.147 0 .288-.227.435-.35-.147-.128-.288-.355-.441-.362-.694-.043-1.388-.024-2.081-.024h-3.493v.73-.006zm38.345 2.59h-.866v-3.118c-1.405.565-2.7 1.117-4.02 1.602-.32.117-.755.129-1.074.012-1.388-.497-2.744-1.055-4.211-1.632v3.13h-.823v-4.24c.455.073.896.086 1.295.227 1.179.423 2.351.877 3.505 1.362.51.215.952.234 1.467 0a55.465 55.465 0 013.432-1.374c.38-.142.81-.154 1.289-.234v4.266h.006zm29.708-1.27l-.055 1.276h-.829c0-1.166-.03-2.308.019-3.443.018-.467.356-.767.865-.767 2.02 0 4.045-.007 6.065 0 .546 0 .84.362.859.859.037 1.099.012 2.191.012 3.333h-.865v-1.258H96.46zm2.959-.933c.871 0 1.749-.019 2.621 0 .423.006.472-.227.466-.559-.006-.313-.043-.577-.466-.577-1.707.012-3.407.012-5.113 0-.455 0-.492.288-.51.62-.018.362.117.528.503.516.83-.025 1.658-.007 2.486-.007l.013.007zm-73.123 2.191h-.848l-.073-1.264h-5.979l-.061 1.27h-.81c0-1.16-.025-2.302.012-3.437.018-.485.356-.767.86-.767h6.002c.54 0 .872.307.89.81.043 1.117.013 2.234.013 3.388h-.006zm-6.881-2.259h5.935c.074-.712-.225-1.068-.896-1.068H20.28c-.963 0-.994.037-.865 1.068zm31.249-1.927c.939 0 1.884-.013 2.823 0 .755.012 1.05.307 1.068 1.068.019.718.019 1.436 0 2.154-.018.688-.313.995-.988 1-1.952.013-3.904 0-5.856.013-.644 0-.963-.344-.994-.94a25.108 25.108 0 010-2.356c.025-.663.35-.933 1.05-.94.963-.005 1.927 0 2.89 0h.007zm-.05 3.357c.786 0 1.572-.024 2.358.006.515.019.76-.14.712-.687a7.867 7.867 0 010-1.142c.03-.503-.19-.669-.682-.663-1.209.025-2.424.006-3.64.006-1.915 0-1.909 0-1.755 1.934.03.393.178.558.577.552.81-.018 1.614 0 2.425 0l.006-.006zm21.269.872h-2.83c-.767 0-1.074-.27-1.11-1.031a21.037 21.037 0 010-2.155c.036-.785.319-1.043 1.092-1.043 1.89-.006 3.775 0 5.666 0 .78 0 1.043.276 1.062 1.055.012.719.018 1.437 0 2.161-.013.73-.295 1-1.038 1.007-.945.006-1.89 0-2.83 0l-.012.006zm0-3.352c-.405 0-.81-.012-1.209 0-2.222.062-1.756-.454-1.823 1.965-.012.374.141.521.516.521 1.657-.006 3.32-.012 4.978 0 .398 0 .576-.135.564-.546a14.015 14.015 0 010-1.344c.025-.448-.178-.596-.595-.59-.804.013-1.614 0-2.425 0l-.006-.006zm12.86-.957V30.5h-.841v-3.136c-.7.356-1.265.638-1.83.933-1.252.656-2.492 1.331-3.75 1.964-.38.19-.829.251-1.338.393V26.35h.81v3.118c1.179-.614 2.247-1.166 3.315-1.719.798-.417 1.577-.865 2.388-1.24.362-.165.785-.184 1.246-.276v-.006zm-7.655-2.731V15.51c.086-.037.148-.08.209-.086.974-.086 1.46.36 1.46 1.338v6.74h-1.669v-.006zm17.261 6.953c-.848.314-1.246-.097-1.474-.723-.245-.67-.675-.866-1.374-.841-1.523.055-3.051.018-4.66.018V30.5l-.852.043v-4.205h.804v1.602h3.425c.362 0 .724-.049 1.074.013.865.147 1.4-.184 1.675-1 .222-.658.682-.811 1.375-.572-.288.547-.601 1.062-.828 1.615-.098.245-.105.595 0 .835.227.552.546 1.067.84 1.62h-.005zm-48.835-4.112v.835h-3.978v3.315h-1.025V27.21H36.51v-.872h9.005z"/><path d="M81.618 26.62c-1.313.29-1.651.154-1.534-.607 1.3-.288 1.645-.153 1.534.608z"/></g><defs><clipPath id="clip0_1_385"><path fill="#fff" d="M0 0h120.19v30.648H0z"/></clipPath></defs></svg>