<svg width="24" height="19" fill="none" xmlns="http://www.w3.org/2000/svg"><path d="M1.2 3.167h21.6c.318 0 .623-.167.848-.464.226-.297.352-.7.352-1.12 0-.42-.126-.822-.352-1.12C23.424.168 23.118 0 22.8 0H1.2C.882 0 .577.167.351.464A1.87 1.87 0 000 1.584c0 .42.126.822.351 1.119.226.297.53.464.849.464zm21.6 12.666H1.2c-.318 0-.623.167-.849.464A1.87 1.87 0 000 17.417c0 .42.126.822.351 1.12.226.296.53.463.849.463h21.6c.318 0 .623-.167.848-.464.226-.297.352-.7.352-1.12 0-.42-.126-.822-.352-1.119-.224-.297-.53-.464-.848-.464zm0-7.916H1.2c-.318 0-.623.166-.849.463A1.87 1.87 0 000 9.5c0 .42.126.823.351 1.12.226.296.53.463.849.463h21.6c.318 0 .623-.167.848-.463.226-.297.352-.7.352-1.12 0-.42-.126-.823-.352-1.12-.224-.297-.53-.463-.848-.463z" fill="#fff"/></svg>