<svg width="22" height="20" fill="none" xmlns="http://www.w3.org/2000/svg"><path fill-rule="evenodd" clip-rule="evenodd" d="M19.777.721c-.11.033-1.623.63-3.36 1.326L7.642 5.563c-3.088 1.237-5.73 2.308-5.87 2.38-.278.142-.564.406-.668.619-.104.21-.122.51-.045.754.083.262.388.58.707.736.122.06 1.067.362 2.1.673l1.879.566 1.013 3.043c.668 2.01 1.06 3.125 1.151 3.284.172.297.447.56.74.705.193.096.273.11.624.11.336 0 .437-.016.613-.1.332-.157.491-.294 1.701-1.463.626-.605 1.152-1.1 1.17-1.1.018 0 .762.619 1.654 1.374a80.01 80.01 0 001.818 1.51c.439.31 1.092.392 1.525.191.36-.168.708-.585.857-1.026.035-.104.719-3.574 1.52-7.712 1.323-6.837 1.455-7.56 1.454-7.925-.003-.683-.226-1.1-.725-1.358a1.553 1.553 0 00-1.083-.103zm.576 1.258c.027.028.048.11.048.18 0 .222-2.897 15.168-2.97 15.32-.187.395-.283.348-1.69-.841-3.85-3.252-4.778-4.045-4.778-4.087 0-.026 1.404-1.611 3.12-3.524 1.715-1.913 3.152-3.531 3.192-3.596.097-.155.096-.462 0-.64-.081-.147-.371-.326-.53-.326-.102 0-.566.245-6.678 3.525l-3.915 2.101-1.81-.541c-.996-.298-1.81-.551-1.81-.563 0-.011 1.163-.486 2.585-1.054a4649.723 4649.723 0 007.496-3.003 8158.33 8158.33 0 017.426-2.971c.108-.042.265-.031.314.02zm-6.62 5.582c-.807.884-4.173 4.664-4.217 4.736-.031.051-.241.882-.467 1.847a67.947 67.947 0 01-.435 1.803c-.014.027-.393-1.055-.841-2.405-.449-1.35-.811-2.458-.805-2.463.02-.015 3.869-2.079 5.323-2.854a55.157 55.157 0 001.487-.808.138.138 0 01.08-.036c.021 0-.034.08-.124.18zm-2.619 6.791c.37.313.673.58.671.592-.005.035-2.135 2.082-2.15 2.066-.007-.007.148-.698.344-1.535l.38-1.62c.013-.054.037-.092.053-.084.016.007.332.269.702.581z" fill="#fff" stroke="#A8AAB8" stroke-width=".381"/></svg>