<svg width="23" height="22" fill="none" xmlns="http://www.w3.org/2000/svg"><path fill-rule="evenodd" clip-rule="evenodd" d="M10.085.197a10.45 10.45 0 00-3.63 1.059c-1.645.814-2.894 1.902-3.927 3.42-2.231 3.28-2.34 7.574-.283 11.096l.231.395-.893 2.38c-.675 1.801-.885 2.416-.86 2.525.04.183.306.407.483.407.075 0 1.168-.433 2.43-.962l2.295-.962.814.408c2.389 1.194 5.056 1.49 7.611.845 3.635-.917 6.526-3.803 7.413-7.403.383-1.55.382-3.439 0-4.984-.787-3.178-2.973-5.818-6.002-7.248C14.033.354 11.975 0 10.085.197zm2.028 1.035a9.918 9.918 0 018.741 7.895c.106.516.121.744.12 1.786 0 .938-.02 1.294-.094 1.661-.47 2.331-1.654 4.254-3.472 5.641-3.078 2.348-7.372 2.553-10.789.516-.267-.16-.503-.263-.597-.263-.086 0-.982.346-1.992.77a69.01 69.01 0 01-1.85.76c-.009-.005.305-.865.696-1.91.392-1.045.712-1.954.712-2.02 0-.067-.11-.296-.246-.51-2.02-3.193-2.012-7.209.02-10.253 1.91-2.859 5.274-4.425 8.75-4.073zm-4.5 3.202c-.613.243-1.388.902-1.791 1.52-.438.673-.566 1.28-.45 2.138.304 2.259 1.818 4.68 4.03 6.444 1.722 1.375 3.635 2.168 5.256 2.18.44.002.595-.02.908-.129.895-.312 1.852-1.206 2.21-2.064.204-.49.136-1.022-.167-1.322-.089-.088-.421-.313-.739-.5-.317-.189-.835-.499-1.15-.69-.893-.54-1.272-.606-1.76-.308-.216.132-.392.314-.964 1l-.194.232-.2-.07c-.493-.174-1.468-.908-2.126-1.603-.664-.7-1.259-1.565-1.259-1.83 0-.056.161-.226.386-.407.509-.41.906-.845.983-1.075.131-.393-.033-.802-.833-2.074-.788-1.25-.811-1.282-1.057-1.41-.28-.146-.761-.16-1.084-.032zm.805 1.287c.1.171.352.58.561.908.21.329.431.695.493.815l.113.218-.353.301c-1.058.905-1.176 1.08-1.07 1.59.143.678.733 1.58 1.629 2.493 1.16 1.183 2.306 1.903 3.038 1.912.382.004.578-.129 1.098-.744.617-.73.556-.699.939-.492.177.095.654.375 1.06.622.404.247.78.474.833.506.145.083.08.31-.202.7-.449.62-1.13 1.083-1.685 1.145-.364.04-1.218-.097-1.815-.292-3.138-1.029-6.083-4.246-6.606-7.218-.163-.93-.025-1.426.576-2.062.384-.407.894-.751 1.08-.73.097.012.177.096.311.328z" fill="#fff"/></svg>