<svg width="23" height="24" fill="none" xmlns="http://www.w3.org/2000/svg"><path fill-rule="evenodd" clip-rule="evenodd" d="M8.014.187C4.653.493 1.712 2.703.617 5.745.175 6.973.123 7.529.149 10.777c.022 2.682.037 2.866.293 3.727.711 2.385 2.517 4.392 4.826 5.366l.395.166v1.314c0 1.443.013 1.515.278 1.62a.58.58 0 00.278.026c.09-.018.61-.433 1.503-1.2l1.366-1.17 2.717-.027c2.182-.02 2.795-.04 3.117-.096 1.9-.334 3.43-1.085 4.75-2.334 1.322-1.25 2.14-2.762 2.466-4.56.095-.523.143-5.05.062-5.89-.193-1.998-1.052-3.743-2.533-5.144C18.204 1.191 16.35.367 14.285.183 13.67.13 8.62.131 8.015.187zm6.66.913c3.402.516 6.01 2.982 6.552 6.197.108.637.109 5.503.001 6.146-.535 3.207-3.114 5.665-6.513 6.21-.34.055-1.002.073-3.207.089l-2.777.02-.766.652c-.421.359-.893.764-1.049.901l-.283.249-.024-.963c-.027-1.08-.045-1.146-.368-1.28-1.2-.5-1.882-.889-2.545-1.452-1.238-1.049-2.043-2.346-2.462-3.967l-.122-.471-.018-2.829c-.02-3.03-.008-3.229.23-4.07.8-2.835 3.268-4.947 6.348-5.431.6-.095 6.382-.095 7.004 0zm-3.123 2.461a.35.35 0 00-.124.285c0 .258.132.377.579.517 1.265.397 2.27.974 3.217 1.847.99.911 1.633 1.869 2.09 3.11.178.48.286.628.494.67.154.033.395-.07.468-.198.129-.228-.038-.787-.517-1.732-.906-1.787-2.4-3.207-4.276-4.062-.73-.333-1.38-.554-1.628-.554a.392.392 0 00-.303.117zM6.58 4.646c-.407.289-1.515 1.247-1.683 1.456-.463.578-.54 1.397-.217 2.346.12.352.218.519.76 1.289 1.389 1.974 2.708 3.287 4.522 4.502.956.64 2.636 1.601 3.473 1.987.692.319 1.36.325 2.045.02.492-.22.78-.519 1.438-1.493.62-.918.655-1.02.425-1.25-.15-.15-2.817-1.789-3.13-1.923-.528-.227-1.23-.046-1.613.415a1.739 1.739 0 01-.227.242c-.02.007-.257-.068-.528-.167-1.311-.479-2.117-1.243-2.685-2.546l-.144-.332.29-.267c.388-.357.49-.575.488-1.035-.002-.274-.025-.4-.102-.537-.097-.177-2.289-2.607-2.487-2.758-.158-.12-.412-.1-.625.051zm5.289.853c-.247.094-.33.431-.159.638.056.067.236.165.437.236 1.305.466 2.23 1.235 2.82 2.344.098.184.206.415.239.513.123.367.226.508.405.554.207.054.35.009.486-.154.132-.159.127-.303-.023-.698-.582-1.533-1.932-2.81-3.552-3.36-.362-.123-.486-.137-.653-.073zM7.932 6.683c.473.516.89 1.003.926 1.082.096.214.021.343-.434.75-.465.417-.465.418-.255.981.333.892.745 1.565 1.304 2.126.636.64 1.344 1.04 2.477 1.403.802.257.842.25 1.174-.215.283-.397.35-.45.564-.449.141 0 .393.136 1.434.775.788.483 1.251.794 1.232.825-.316.502-.847 1.207-1.008 1.338a1.414 1.414 0 01-.974.29c-.328-.026-.846-.269-2.102-.985-2.59-1.477-3.887-2.544-5.391-4.439-.373-.47-1.104-1.507-1.225-1.739-.14-.267-.242-.718-.244-1.075-.003-.518.114-.694.868-1.314l.59-.486.101.097c.056.053.489.52.963 1.035zm3.972.577c-.226.118-.307.41-.166.6.041.056.249.178.46.27.55.242.838.505 1.08.983.253.502.335.587.57.587.14 0 .217-.031.322-.13.166-.158.177-.306.044-.64-.28-.708-.989-1.373-1.738-1.63-.34-.117-.415-.123-.572-.04z" fill="#fff"/></svg>