<svg width="20" height="20" fill="none" xmlns="http://www.w3.org/2000/svg"><path fill-rule="evenodd" clip-rule="evenodd" d="M4.905.039a5.579 5.579 0 00-3.178 1.517C.875 2.373.342 3.33.084 4.506c-.078.356-.087.502-.083 1.338.004 1.016.072 1.68.27 2.66 1.057 5.225 4.99 9.478 10.13 10.953 1.296.372 2.478.54 3.795.543.788.001.95-.01 1.299-.086 1.38-.301 2.575-1.06 3.396-2.154a5.756 5.756 0 001.1-3.003c.03-.446-.008-.613-.172-.766-.11-.103-6.396-2.639-6.639-2.678-.159-.026-.374.066-.489.208-.05.061-.34.737-.645 1.5l-.555 1.39-.257-.009a4.626 4.626 0 01-.633-.087 6.339 6.339 0 01-4.956-5.123c-.044-.261-.075-.522-.068-.58.012-.099.088-.135 1.42-.665 1.55-.617 1.628-.663 1.682-.983.025-.15-.07-.405-1.27-3.407C6.695 1.772 6.074.265 6.029.207 5.87.004 5.553-.043 4.905.04zm1.37 3.832c.585 1.464 1.058 2.666 1.05 2.673a98.41 98.41 0 01-1.324.534c-1.4.558-1.544.639-1.6.898-.048.227.021 1.123.126 1.63a7.515 7.515 0 006.266 5.935c.341.05.852.078 1.207.066.075-.002.16-.053.257-.15.123-.124.226-.35.667-1.457.287-.721.527-1.317.533-1.325.007-.008 1.212.465 2.679 1.052l2.667 1.067-.023.238c-.05.535-.35 1.32-.712 1.863-.684 1.03-1.859 1.748-3.137 1.92-.833.111-2.471-.045-3.731-.357a13.219 13.219 0 01-5.102-2.525c-.553-.442-1.59-1.479-2.031-2.031-1.696-2.123-2.664-4.586-2.883-7.338-.052-.663-.027-1.469.057-1.854.235-1.066.824-2 1.659-2.627.303-.228.818-.518 1.106-.622.313-.113.875-.248 1.041-.25l.163-.002L6.275 3.87z" fill="#fff"/></svg>