<svg width="20" height="20" fill="none" xmlns="http://www.w3.org/2000/svg"><path fill-rule="evenodd" clip-rule="evenodd" d="M9.264.019C7.812.158 6.709.466 5.504 1.07c-.958.48-1.737 1.05-2.56 1.872-.88.879-1.431 1.65-1.958 2.738a9.639 9.639 0 00-.98 3.986 9.724 9.724 0 001.026 4.744c.523 1.05 1.06 1.794 1.912 2.645.861.86 1.608 1.397 2.662 1.914a8.74 8.74 0 001.956.722 9.948 9.948 0 005.826-.278c.52-.184 1.456-.637 1.9-.918 2.354-1.494 4.001-3.865 4.533-6.523.147-.735.179-1.084.179-1.974 0-.89-.032-1.239-.179-1.973-.517-2.587-2.093-4.91-4.338-6.395-.511-.339-1.607-.884-2.151-1.07a10.512 10.512 0 00-2.445-.527A13.185 13.185 0 009.264.019zm1.995 1.402a8.523 8.523 0 014.871 2.46c1.363 1.36 2.173 2.971 2.469 4.906.094.615.094 1.808 0 2.423a8.747 8.747 0 01-1.681 4.025c-.356.477-1.192 1.312-1.67 1.668-1.578 1.178-3.29 1.748-5.241 1.748-1.948 0-3.667-.573-5.233-1.747-1.81-1.356-3.007-3.386-3.359-5.694-.095-.62-.095-1.812 0-2.423.447-2.905 2.183-5.289 4.778-6.565 1.003-.493 1.918-.743 3.208-.876.306-.032 1.454.015 1.858.075zM9.798 4.035a.675.675 0 00-.395.356c-.053.112-.061.476-.061 2.94v2.811l.088.16c.068.125.479.474 1.81 1.535.946.756 1.768 1.399 1.826 1.429a.8.8 0 00.297.054c.475 0 .78-.511.57-.953-.048-.1-.49-.474-1.662-1.412L10.673 9.68l-.01-2.629-.01-2.628-.11-.144c-.188-.246-.479-.34-.745-.244z" fill="#fff"/></svg>