<svg width="72" height="36" viewBox="0 0 72 36" fill="none" xmlns="http://www.w3.org/2000/svg">
<path d="M20.7408 34.9964H21.4327V33.3328H22.6319V32.7834H21.4327V31.8677H22.7088V31.3182H20.7408V34.9964Z" fill="#757887"/>
<path d="M51.5974 35.0114V31.3485" stroke="#757887" stroke-width="0.804593" stroke-miterlimit="10"/>
<path d="M60.2225 31.8676H61.0373V34.9963H61.7292V31.8676H62.544V31.3334H60.2225V31.8676Z" fill="#757887"/>
<path d="M1.00006 35.0114V31.3485" stroke="#757887" stroke-width="0.826943" stroke-miterlimit="10"/>
<path d="M42.0653 34.0807V34.1112V34.0807L41.1274 31.3182H40.3126V34.9812H40.8968V32.2187L41.85 34.9812H42.6495V31.3182H42.0653V34.0807Z" fill="#757887"/>
<path d="M71 35.0114V31.3485" stroke="#757887" stroke-width="0.826943" stroke-miterlimit="10"/>
<path d="M31.3339 35.0114V31.3485" stroke="#757887" stroke-width="0.826943" stroke-miterlimit="10"/>
<path d="M11.6084 34.0807L11.6238 34.1112H11.6084V34.0807L10.6706 31.3182H9.85574V34.9812H10.44V32.2187L11.4086 34.9812H12.208V31.3182H11.6084V34.0807Z" fill="#757887"/>
<path d="M35.9923 0C21.0791 0 8.99475 6.02857 8.99475 13.4613C8.99475 19.4898 16.928 24.5874 27.8592 26.3121L35.9923 7.0664L44.1408 26.3121C55.072 24.5874 63.0053 19.4898 63.0053 13.4613C63.0053 6.02857 50.9209 0 36.0077 0M48.3995 20.2224L36.0077 5.98279L23.662 20.1919C17.5737 18.5131 13.5609 15.5675 13.5609 11.9503C13.5609 6.22698 23.539 0.839422 35.9769 0.839422C48.4149 0.839422 58.6389 6.21172 58.6389 11.9503C58.6389 15.598 54.5647 18.5588 48.3995 20.2224Z" fill="#757887"/>
</svg>
