<svg width="70" height="58" viewBox="0 0 70 58" fill="none" xmlns="http://www.w3.org/2000/svg">
<path d="M47.4005 51.1166C47.3382 47.6937 44.5548 44.9307 41.1691 44.9307C37.7002 44.9307 34.9168 47.6937 34.9376 51.1166C34.9376 54.4983 37.7002 57.2613 41.1691 57.3026C44.5548 57.2613 47.3382 54.4983 47.4005 51.1166ZM37.721 51.1166C37.6587 48.9515 39.2165 47.1988 41.1691 47.2195C43.0385 47.2195 44.5756 48.9515 44.5964 51.1166C44.5756 53.2405 43.0385 54.9931 41.1691 55.0344C39.2165 55.0138 37.6587 53.2611 37.721 51.1166Z" fill="#757887"/>
<path d="M54.4421 47.5495H58.0356V45.4257H48.0445V47.5495H51.8041V56.9728H54.4421V47.5495Z" fill="#757887"/>
<path d="M61.1513 54.3747H65.908L66.8843 56.9728H70L65.2433 45.4257H61.9822L57.0593 56.9728H60.1751L61.1513 54.3747ZM63.6231 48.1887L65.2433 52.4158H61.9614L63.6024 48.1887H63.6231Z" fill="#757887"/>
<path d="M3.61424 56.9728H6.23145V47.5495H9.8457V45.4257H0V47.5495H3.61424V56.9728Z" fill="#757887"/>
<path d="M22.9525 51.1166C22.9109 47.6937 20.1275 44.9307 16.721 44.9307C13.2729 44.9307 10.5103 47.6937 10.4896 51.1166C10.4896 54.4983 13.2729 57.2613 16.721 57.3026C20.1275 57.2613 22.9109 54.4983 22.9525 51.1166ZM13.2937 51.1166C13.2522 48.9515 14.7893 47.1988 16.7418 47.2195C18.632 47.2195 20.1899 48.9515 20.1899 51.1166C20.1899 53.2817 18.6528 54.9931 16.7418 55.0344C14.81 55.0138 13.2522 53.2611 13.2937 51.1166Z" fill="#757887"/>
<path d="M28.8515 56.9728H30.1601V52.5807L34.7506 45.4257H31.8218L28.8515 50.3126L26.0681 45.4257H22.9524L27.5429 52.5807V56.9728H28.8515Z" fill="#757887"/>
<path d="M34.3144 39.9819C52.0533 39.9819 66.5103 31.0122 66.5103 20.0012C66.5103 8.99025 52.0533 0 34.3144 0C16.5756 0 2.11859 8.96963 2.11859 20.0012C2.11859 31.0329 16.5548 39.9819 34.3144 39.9819ZM34.3144 0.989752C51.5132 0.989752 65.5132 9.52636 65.5132 20.0012C65.5132 30.4761 51.5132 39.0127 34.3144 39.0127C17.1156 39.0127 3.11562 30.4761 3.11562 20.0012C3.11562 9.52636 17.0949 0.989752 34.3144 0.989752Z" fill="#757887"/>
<path d="M26.4629 14.8051L26.9407 14.8875L27.0237 14.3927C27.7923 9.79443 29.454 6.18596 31.5935 4.49513L32.819 3.526L31.2611 3.60848C23.7211 4.06212 18.2582 6.04162 17.3234 8.66034C17.2404 8.9284 17.178 9.21708 17.178 9.48513C17.178 9.91815 17.3027 10.3718 17.5519 10.7842C18.5905 12.5575 21.8309 14.0009 26.4629 14.7844M18.2582 8.99026C18.9644 6.99013 23.8042 5.25807 29.9941 4.68071C28.2285 6.66022 26.8783 9.85629 26.1721 13.7328C22.1424 12.9905 19.276 11.7121 18.4243 10.2893C18.2582 10.0212 18.1751 9.75319 18.1751 9.48513C18.1751 9.32018 18.1958 9.15522 18.2582 8.99026Z" fill="#757887"/>
<path d="M29.8902 14.702L29.7863 15.2381L30.3264 15.2793C31.6142 15.3824 32.9644 15.4237 34.2937 15.4237C35.6231 15.4237 36.9733 15.3618 38.2611 15.2793L38.8012 15.2381L38.7181 14.702C37.9703 10.5574 36.3293 8.08301 34.2937 8.08301C32.2581 8.08301 30.6172 10.5574 29.8694 14.702M34.2937 9.05214C35.6647 9.05214 36.9525 11.1141 37.6379 14.3102C36.5371 14.3721 35.4362 14.4339 34.2937 14.4339C33.1513 14.4339 32.0504 14.3927 30.9495 14.3102C31.6142 11.0935 32.902 9.05214 34.2937 9.05214Z" fill="#757887"/>
<path d="M41.5846 14.4132L41.6676 14.908L42.1454 14.8256C46.7774 14.042 50.0178 12.578 51.0564 10.8253C51.451 10.1449 51.5341 9.40254 51.2849 8.70147C50.3501 6.10337 44.8872 4.10324 37.3472 3.64961L35.7893 3.54651L37.0148 4.51564C39.1543 6.20647 40.816 9.83556 41.5846 14.4132ZM50.3709 9.01077C50.4332 9.17572 50.454 9.34068 50.454 9.50564C50.454 9.7737 50.3709 10.0418 50.2047 10.3098C49.3531 11.7326 46.4659 13.011 42.4362 13.7533C41.73 9.8768 40.3798 6.68072 38.6142 4.70122C44.7834 5.25796 49.6231 7.01064 50.3501 9.01077" fill="#757887"/>
<path d="M31.0118 36.5385L32.5074 36.6416L31.3649 35.6725C28.4154 33.1775 26.5875 27.2183 26.5875 20.1664V18.4962L26.1928 18.4137C19.1097 17.1559 14.083 14.1866 13.356 10.8874L13.1899 10.1039L12.5459 10.6194C9.16019 13.4443 7.37384 16.7847 7.37384 20.2901C7.37384 28.5586 17.5311 35.5281 30.9911 36.5385M12.629 11.8566C13.9169 15.197 18.7566 17.9807 25.5905 19.2797C25.5905 19.6715 25.5905 20.1457 25.5905 20.1457C25.5905 26.7029 27.1483 32.3527 29.7448 35.4044C17.4688 34.1054 8.37087 27.7338 8.37087 20.2695C8.37087 17.259 9.84565 14.3722 12.629 11.8566Z" fill="#757887"/>
<path d="M39.1335 19.5889V18.8672L38.5935 18.9084C37.2018 19.0321 35.7478 19.094 34.3145 19.094C32.8813 19.094 31.4273 19.0321 30.0356 18.9084L29.4955 18.8672V19.5889C29.4955 26.146 31.5727 31.1154 34.3145 31.1154C37.0564 31.1154 39.1335 26.1666 39.1335 19.5889ZM34.3145 30.1256C32.4866 30.1256 30.5549 26.0429 30.4718 19.9394C31.7389 20.0219 33.0267 20.0838 34.3145 20.0838C35.6024 20.0838 36.8902 20.0219 38.1365 19.9394C38.0742 26.0429 36.1217 30.1256 34.3145 30.1256Z" fill="#757887"/>
<path d="M41.9999 18.4962V20.1664C42.0207 27.239 40.1928 33.1775 37.2433 35.6725L36.1008 36.6416L37.5964 36.5385C51.0771 35.5281 61.2136 28.5586 61.2136 20.2901C61.2136 16.7847 59.4272 13.4237 56.0415 10.6194L55.4183 10.1039L55.2314 10.8874C54.5252 14.2072 49.4777 17.1559 42.3946 18.4137L41.9792 18.4962H41.9999ZM55.9792 11.8772C58.7626 14.3928 60.2373 17.2796 60.2373 20.2901C60.2373 27.7545 51.1394 34.126 38.8634 35.425C41.4391 32.3733 43.0177 26.7235 43.0177 20.1664C43.0177 20.1664 43.0177 19.6921 43.0177 19.3003C49.8516 18.0013 54.6913 15.2176 55.9999 11.8772" fill="#757887"/>
</svg>
