<svg width="70" height="12" viewBox="0 0 70 12" fill="none" xmlns="http://www.w3.org/2000/svg">
<path d="M2.90133 0.0147635H0.618554C0.191455 0.0147635 0 0.221447 0 0.634815V11.0576C0 11.4709 0.206183 11.6629 0.618554 11.6629H2.90133C3.32843 11.6629 3.50516 11.4562 3.50516 11.0428V0.620051C3.50516 0.206684 3.29898 0 2.88661 0" fill="#757887"/>
<path d="M18.3799 5.71333C17.1723 5.32949 10.648 3.26265 10.3534 3.17407C10.1178 3.10026 10.103 2.93786 10.1472 2.81976C10.1767 2.70165 10.265 2.65736 10.4712 2.65736C10.6921 2.65736 19.4109 2.65736 19.4109 2.65736C19.8232 2.65736 20.0147 2.46544 20.0147 2.05208V0.620051C20.0147 0.206684 19.838 0 19.4109 0H10.3682C7.86447 0 6.78935 1.37297 6.78935 2.98215C6.78935 4.25178 7.40791 5.2852 9.02794 5.83144C9.36667 5.94954 17.1575 8.41498 17.3932 8.4888C17.6141 8.56261 17.6436 8.73977 17.6141 8.84311C17.5699 8.96122 17.4815 9.03503 17.3048 9.03503H7.39318C6.96608 9.03503 6.77463 9.22695 6.77463 9.64032V11.0281C6.77463 11.4857 6.96608 11.6481 7.39318 11.6481C7.39318 11.6481 16.4948 11.6481 17.3637 11.6481C19.6465 11.6186 20.972 10.7033 20.972 8.78406C20.972 7.17488 20.2798 6.31862 18.4241 5.71333" fill="#757887"/>
<path d="M36.3623 0.0147635H34.0501C33.6083 0.0147635 33.4315 0.206684 33.4315 0.620051V7.23393C33.4315 8.3264 33.2696 8.97598 31.7673 9.02027C31.4139 9.02027 30.7806 9.03503 30.324 9.03503C29.8675 9.03503 29.3226 9.03503 28.9691 9.02027C27.4669 8.97598 27.2018 8.3264 27.2018 7.23393V0.620051C27.2018 0.206684 26.9956 0.0147635 26.598 0.0147635H24.3005C23.8734 0.0147635 23.6967 0.206684 23.6967 0.620051C23.6967 0.620051 23.6967 6.46625 23.6967 7.78017C23.6967 9.62556 24.109 11.6038 27.57 11.6481C28.8366 11.6629 30.324 11.6776 30.324 11.6776C30.324 11.6776 31.7232 11.6776 32.9897 11.6481C36.6569 11.5891 36.9662 9.69937 36.9662 7.78017V0.620051C36.9662 0.206684 36.7747 0 36.3476 0" fill="#757887"/>
<path d="M69.3814 0.0147635H67.0692C66.6421 0.0147635 66.4507 0.206684 66.4507 0.620051V7.23393C66.4507 8.3264 66.2887 8.97598 64.7864 9.02027C64.433 9.02027 63.7997 9.03503 63.3432 9.03503C62.8866 9.03503 62.3417 9.03503 61.9882 9.02027C60.486 8.97598 60.2209 8.3264 60.2209 7.23393V0.620051C60.2209 0.206684 60.0147 0.0147635 59.6171 0.0147635H57.3196C56.8925 0.0147635 56.7158 0.206684 56.7158 0.620051V7.78017C56.7158 9.62556 57.1281 11.6038 60.5891 11.6481C61.8557 11.6629 63.3432 11.6776 63.3432 11.6776C63.3432 11.6776 64.7423 11.6776 66.0088 11.6481C69.676 11.5891 70 9.69937 70 7.78017V0.620051C70 0.206684 69.8085 0 69.3962 0" fill="#757887"/>
<path d="M53.299 9.0498H43.3726C43.1959 9.0498 43.1075 8.99074 43.0634 8.85787C43.0192 8.75453 43.0633 8.57738 43.2843 8.4888C43.5199 8.41498 51.3108 5.94954 51.6348 5.83144C53.2548 5.2852 53.8734 4.25178 53.8734 2.98215C53.8734 1.38773 52.7983 0 50.2946 0H41.2519C40.8248 0 40.6333 0.206684 40.6333 0.620051V2.05208C40.6333 2.48021 40.8248 2.65736 41.2371 2.65736C41.2371 2.65736 49.9558 2.65736 50.1768 2.65736C50.3682 2.65736 50.4713 2.70165 50.5008 2.81976C50.5302 2.93786 50.5302 3.10026 50.2946 3.17407C50 3.26265 43.461 5.32949 42.2533 5.71333C40.3977 6.31862 39.7055 7.17488 39.7055 8.78406C39.7055 10.718 41.0309 11.6186 43.3137 11.6481C44.1679 11.6629 53.2843 11.6481 53.2843 11.6481C53.7261 11.6481 53.9028 11.4857 53.9028 11.0281V9.64032C53.9028 9.22695 53.7114 9.03503 53.2843 9.03503" fill="#757887"/>
</svg>
