<svg width="70" height="52" viewBox="0 0 70 52" fill="none" xmlns="http://www.w3.org/2000/svg">
<path d="M40.8347 16.544L35.5113 8.37811L38.3191 1.55139L28.6298 16.4624L34.8459 25.1999L40.8347 16.5277V16.544ZM34.8945 10.0929L39.6662 16.936L34.8945 23.9097L29.9119 16.936L34.8945 10.0929Z" fill="#757887"/>
<path d="M31.113 33.2843L31.2753 33.5456H38.8709L39.0332 33.268L48.901 16.9198L49.0796 16.6258L48.901 16.3319L39.0981 0.277641L38.9358 0H30.9182L30.7397 0.277641L21.0991 16.3482L20.9205 16.6422L21.0991 16.9361L31.0967 33.3006L31.113 33.2843ZM31.5512 1.1269H38.3029L47.7487 16.6258H41.7923L33.2553 29.038L34.3914 26.2453L27.7047 16.6422H22.2514V16.6095L31.535 1.11057L31.5512 1.1269Z" fill="#757887"/>
<path d="M11.1175 42.3156C11.1175 39.7025 8.95896 39.3269 8.95896 39.3269H0C0.06492 40.0945 1.41201 40.8621 1.41201 40.8621V48.881L0.40575 49.371V50.5795H6.19986V49.371L5.06376 48.881V45.386L5.58312 45.3534L7.49826 50.5306H11.4908V49.42L8.78043 45.4187C8.78043 45.4187 11.1175 44.9124 11.1175 42.2993M7.15743 43.9651H5.06376V41.499H7.15743C7.15743 41.499 7.53072 42.185 7.53072 42.7729C7.53072 43.3609 7.15743 43.9815 7.15743 43.9815" fill="#757887"/>
<path d="M21.5372 46.7581H19.1352V48.7016H17.0253V45.5495H18.421L18.9566 46.2518H20.1739V43.1161H19.1027L18.4048 43.8184H17.0253V41.2216H19.1027V42.4301H21.6833V39.2944H12.1887V40.3397L13.2437 40.8133V48.8486L12.1887 49.5345V50.6287H21.5372V46.7581Z" fill="#757887"/>
<path d="M28.5161 50.6288H31.5673V41.042L32.8008 40.5194L32.8332 39.2782H28.6297V40.4868L29.6846 40.8461L29.7171 44.7167L26.6009 39.2782L22.2513 39.2945V40.3071L22.9167 40.6664V49.0446L21.8618 49.7142V50.6288H26.0491V49.7142L25.0428 49.0936V44.8637L28.5161 50.6288Z" fill="#757887"/>
<path d="M37.2966 50.5962H43.1556V49.3876L42.1007 48.9303L38.7086 39.2782H33.8234V40.4868L35.2191 41.826L33.0768 48.9467C33.0768 48.9467 32.5736 49.3386 31.9569 49.5673V50.6125H35.9333V49.5673L34.8945 49.208L35.495 47.1665H37.8809L38.5463 48.9467L37.3128 49.5999V50.6125L37.2966 50.5962ZM36.0306 45.2393L36.5175 43.5735L37.1343 45.2393H36.0306Z" fill="#757887"/>
<path d="M47.4891 51.3147C51.2382 51.3147 51.6602 48.3586 51.6602 48.3586V41.0419L52.5366 40.6826V39.4741H48.7226V40.65L49.9236 41.0419V48.6689C49.9236 48.6689 49.1121 49.1915 48.3655 49.1915C47.6189 49.1915 47.0022 48.6689 47.0022 48.6689V41.0419L48.3655 40.4866V39.4414L41.4353 39.4741V40.5193L43.1719 41.0419V48.4239C43.1719 48.4239 43.7237 51.3147 47.4729 51.3147" fill="#757887"/>
<path d="M59.6128 49.2242H57.6977V41.5482L59.2882 40.6826V39.4414H53.0072V40.65L53.8836 41.0419V49.4038L52.8611 49.7631V50.9227L61.7227 50.9554V47.2807H59.6128V49.2242Z" fill="#757887"/>
<path d="M60.4893 43.3121H62.7615L62.7939 41.5156H63.5892V48.8486L62.0473 49.5509V50.9228H68.6367V49.5509L67.0949 48.8813V41.5156H67.7765V43.3121H70V39.4741H60.4893V43.3121Z" fill="#757887"/>
</svg>
