<svg width="70" height="61" viewBox="0 0 70 61" fill="none" xmlns="http://www.w3.org/2000/svg">
<path d="M64.9631 24.1398C64.7959 24.0092 64.5915 23.9532 64.3871 23.9532H61.8414C61.1167 21.657 60.0762 19.4542 58.7569 17.4008L62.9749 13.3685L65.7435 16.598C66.0222 16.9154 66.431 17.0087 66.8212 16.8781C67.1929 16.7474 67.453 16.374 67.453 15.9447L67.2486 0.954403C67.2486 0.693053 67.1371 0.450372 66.9327 0.263694C66.7469 0.0770155 66.4868 -0.0163234 66.2266 0.0023444L50.8226 0.8984C50.4138 0.917068 50.0607 1.19709 49.9493 1.58911C49.8378 1.98113 49.9864 2.41049 50.3023 2.65318L53.9814 5.32267L50.2837 8.9069C45.7127 5.95738 40.417 4.40795 34.954 4.40795C22.3743 4.40795 11.7086 12.6405 8.08519 23.9532H5.83683C5.65102 23.9532 5.46521 23.9905 5.31656 24.1025C5.09358 24.2518 0.132323 27.5561 0.0022526 32.447C-0.0720733 35.4712 1.69317 38.3461 5.26081 40.9969C5.42805 41.1089 5.63244 41.1836 5.83683 41.1836H8.19669C11.8944 52.3469 22.5044 60.4301 34.954 60.4301C47.4036 60.4301 57.995 52.3469 61.7113 41.1836H64.3499C64.5543 41.1836 64.7401 41.1276 64.9073 40.9969C65.1117 40.8475 69.9058 37.45 69.9987 32.5404C70.0544 29.5348 68.3449 26.716 64.9259 24.1398M34.954 6.3494C40.3055 6.3494 45.4525 7.93617 49.8564 10.9604C50.228 11.2217 50.7483 11.1657 51.0827 10.8484L56.1741 5.90138C56.3785 5.7147 56.4899 5.43468 56.4714 5.136C56.4528 4.85598 56.3041 4.59463 56.0626 4.42662L53.647 2.67184L65.3161 1.9998L65.4648 13.2938L63.7739 11.2964C63.6066 11.1097 63.3465 10.979 63.0864 10.979C62.8262 10.979 62.5661 11.0537 62.3803 11.259L56.8244 16.542C56.4714 16.8781 56.4156 17.4008 56.6943 17.7928C58.0136 19.7156 59.0356 21.7877 59.7974 23.9532H52.5507C49.4661 17.3634 42.814 12.7711 35.1212 12.7711C27.4285 12.7711 20.7763 17.3448 17.7104 23.9532H10.1849C13.734 13.7232 23.5078 6.3494 34.9912 6.3494M50.3952 23.9532H19.8844C22.8017 18.4648 28.5434 14.7313 35.1398 14.7313C41.7363 14.7313 47.4593 18.4648 50.3952 23.9532ZM34.9912 58.4886C23.6193 58.4886 13.9198 51.2642 10.2778 41.1836H18.0634C21.278 47.3626 27.7072 51.6189 35.1212 51.6189C42.5353 51.6189 48.9644 47.3813 52.179 41.1836H59.686C56.0626 51.2455 46.363 58.4886 34.9912 58.4886ZM20.2932 41.1836H49.9864C46.9576 46.2612 41.4389 49.6588 35.1398 49.6588C28.8407 49.6588 23.322 46.2612 20.2932 41.1836ZM64.0712 39.2234H6.20847C3.34693 37.0393 1.91614 34.7992 1.99047 32.503C2.0648 29.1428 5.31656 26.548 6.20847 25.8759H64.0712C66.7841 27.9854 68.1405 30.2256 68.1034 32.4844C68.0476 35.8446 64.9631 38.5327 64.0712 39.2234Z" fill="#757887"/>
<path d="M19.7729 28.9562H18.1192H16.1495H14.1799V30.0576H15.6664L13.1022 34.8739L10.2964 30.0762H12.3403V28.9562H8.99567H7.04461H4.22021V30.0762H6.09695L6.84021 31.4577L8.92134 35.3032L9.7575 36.8153H14.2356L15.9451 33.6791L17.8962 30.0762H17.9519L19.7729 30.0576V28.9562Z" fill="#757887"/>
<path d="M24.7899 28.7319C21.6125 28.7319 19.0297 30.5987 19.0297 32.8762C19.0297 35.1537 21.5939 37.0391 24.7899 37.0391C27.9859 37.0391 30.5316 35.1723 30.5316 32.8762C30.5316 30.58 27.9674 28.7319 24.7899 28.7319ZM24.697 35.7884C23.8609 35.7884 23.1919 34.4443 23.1919 32.8015C23.1919 31.1588 23.8609 29.796 24.697 29.796C25.5332 29.796 26.2021 31.1401 26.2021 32.8015C26.2021 34.463 25.5332 35.7884 24.697 35.7884Z" fill="#757887"/>
<path d="M60.968 28.7319C60.968 28.7319 60.8937 28.7319 60.8566 28.7319C57.6791 28.7319 55.1149 30.5987 55.1149 32.8762C55.1149 35.1537 57.6605 37.0204 60.8194 37.0391H60.8566C61.5626 37.0391 62.213 36.9458 62.8262 36.7778C65.0374 36.1991 66.5982 34.6683 66.5982 32.8762C66.5982 31.0841 65.0931 29.628 62.9562 29.012C62.343 28.8253 61.6741 28.7319 60.968 28.7319ZM61.0052 35.751C61.0052 35.751 60.8565 35.807 60.7636 35.807C59.9461 35.807 59.2771 34.463 59.2771 32.8202C59.2771 31.1774 59.9461 29.8333 60.7636 29.8333C60.8937 29.8333 61.0052 29.852 61.0981 29.908C61.767 30.2067 62.2502 31.4014 62.2502 32.8202C62.2502 34.2389 61.6927 35.5457 60.9866 35.7697" fill="#757887"/>
<path d="M38.5588 35.6018H36.6263V30.0948H38.4659V28.9747H31.0705V30.0948H32.9472V35.6018H30.9776V36.8152H42.2751V33.175H41.0487C40.993 35.1164 39.2835 35.6018 38.5588 35.6018Z" fill="#757887"/>
<path d="M55.8024 28.9562H54.1115H52.1418H50.228V30.0576H51.6959L49.1131 34.8739L46.3258 30.0762H48.3698V28.9562H40.2683V30.0762H42.1264L45.787 36.8153H50.2837L52.4206 32.8391L53.9257 30.0762H54.2601L55.8024 30.0576V28.9562Z" fill="#757887"/>
</svg>
