<svg width="70" height="70" viewBox="0 0 70 70" fill="none" xmlns="http://www.w3.org/2000/svg">
<path d="M35 0C15.669 0 0 15.5263 0 34.6721C0 53.8179 15.669 69.3692 35 69.3692C54.331 69.3692 70 53.8429 70 34.6721C70 15.5014 54.331 0 35 0ZM35 68.0462C21.847 68.0462 11.5338 61.2066 6.62633 51.771L7.37367 51.4965C8.64413 53.5933 10.3132 55.4155 12.5552 57.8867C15.3203 60.9321 24.0641 66.7981 34.9751 66.7981C46.6085 66.7981 56.847 60.7573 62.5765 51.5214C63.0249 51.3966 63.1744 51.1969 63 50.8225C65.6157 46.1796 67.4092 40.3634 67.4092 34.6721C67.4092 31.0776 66.8861 28.1571 66.0391 25.561C65.4164 23.589 64.5445 21.642 64.1708 20.8682C64.0712 20.6934 64.0463 20.5936 64.0463 20.4189C64.1957 20.5437 64.2456 20.6186 64.3701 20.7933C64.8683 21.7169 66.0142 23.9884 66.5374 25.4861C67.2598 27.4581 68.5552 30.2039 68.5552 34.6721C68.5552 52.9193 53.6334 68.0462 34.9751 68.0462M6.92527 51.0222L31.4377 33.3491L29.3452 32.151L7.49822 50.3482C5.03203 45.88 3.33808 40.1637 3.33808 34.722C3.33808 17.4983 17.0391 3.56956 34.3772 3.44475L29.9181 31.3023L32.0107 32.5254L34.8007 3.44475C34.8505 3.07032 35.0996 3.07032 35.0996 3.44475L35.274 34.098L40.2562 31.1774L35.4733 3.44475C52.5125 3.89406 66.637 17.673 66.637 34.6721C66.637 40.1637 64.968 45.88 62.4769 50.3732L40.6548 32.151L38.5623 33.3491L62.0285 50.3981C62.6014 50.7975 62.427 50.9723 61.8043 50.6478L35.4733 35.421V41.1373L61.879 51.2468C56.3488 60.2831 46.3594 66.0742 34.9253 66.0742C23.4911 66.0742 13.6512 60.308 8.121 51.2468L34.5765 41.1373V35.421L7.14947 51.2718C6.50178 51.6213 6.3274 51.4216 6.92527 50.9972M6.30249 51.2968C5.13167 48.9004 3.91103 45.5056 3.41281 42.8347C3.41281 42.6849 3.3879 42.5601 3.41281 42.4103C3.51246 42.5102 3.53737 42.635 3.6121 42.8347C4.40925 45.3059 5.10676 47.5025 6.90036 50.8225L6.27758 51.3217L6.30249 51.2968ZM68.5053 28.8061C68.5053 28.8061 68.3808 28.5814 68.306 28.4067C65.7402 20.4937 63.573 17.3985 59.363 12.7805C53.8577 6.6898 44.8149 1.99695 35.1993 1.97199C16.8399 1.97199 1.91815 16.9242 1.91815 35.3211C1.91815 40.7878 3.11388 45.5306 4.0605 47.9019C5.18149 50.6478 7.12456 54.3671 7.2242 54.5418C7.29893 54.7415 7.32384 54.8164 7.32384 54.9911C7.17438 54.8913 7.12456 54.7914 7 54.6167C6.45196 53.8179 4.16014 49.6742 3.43772 47.877C1.89324 43.958 0.747331 39.6895 0.747331 35.1963C0.772242 16.2253 16.1174 0.848706 35.0498 0.848706C51.9644 0.848706 65.6157 12.6307 68.5053 28.4067C68.5053 28.5564 68.5552 28.6813 68.5053 28.8061Z" fill="#757887"/>
</svg>
