<svg width="70" height="71" viewBox="0 0 70 71" fill="none" xmlns="http://www.w3.org/2000/svg">
<path d="M37.7765 58.3277C42.4294 57.8211 46.9218 56.048 50.6578 53.2848C51.9413 52.3407 54.2104 50.1301 55.2647 48.8176C57.9464 45.5018 59.803 41.5642 60.6968 37.2812C61.0406 35.7154 61.0407 35.416 61.0636 32.3304C61.0636 29.4751 61.0407 28.8534 60.7885 27.5639C59.2987 19.7808 54.6688 13.2642 47.7927 9.32664C45.3861 7.94503 42.2689 6.83975 39.2893 6.31013C37.2952 5.96473 33.3759 5.89565 31.4735 6.17197C24.987 7.13909 19.2799 10.2477 15.1542 15.0143C9.28663 21.8302 7.31549 30.8567 9.8138 39.5378C11.8308 46.584 17.0108 52.7091 23.6577 55.9099C26.0643 57.0612 29.3877 58.0283 32.0465 58.3277C33.4675 58.4889 36.3555 58.4889 37.7995 58.3277M31.1526 55.0579C23.2222 53.7223 16.3232 48.1729 13.4581 40.8503C12.3579 38.0411 11.9454 35.9687 11.8308 32.9752C11.7391 30.5113 11.9225 28.7843 12.4267 26.7119C14.6729 17.7545 21.5719 11.1227 30.4192 9.39572C32.3903 9.00427 32.5278 9.02729 32.7799 9.60296C33.3071 10.8925 33.8114 13.5636 34.2927 17.8926C34.499 18.2841 34.2468 21.2776 35.0949 20.9091C35.2553 20.817 35.347 20.4946 35.4158 19.7578C35.9429 14.3695 36.7681 9.90231 37.3869 9.28059C37.5473 9.1194 37.7307 9.1194 38.8767 9.30361C43.5983 10.0635 47.9073 12.3201 51.4142 15.8432C53.2478 17.6854 54.4167 19.2512 55.5169 21.3927C57.5109 25.2612 58.3361 28.8534 58.1756 32.9982C58.1069 35.0936 57.9006 36.4062 57.3734 38.3404C55.1501 46.538 48.4116 52.9394 40.1374 54.7585C39.3352 54.9427 38.3954 55.127 38.0516 55.173L37.4328 55.2651L37.2265 54.7816C36.6076 53.3078 35.8513 49.0018 35.5075 45.2715C35.4158 44.3504 35.347 43.4984 35.3012 43.3603C35.2324 43.13 34.8199 43.0609 34.6823 43.2451C34.6594 43.3142 34.4761 44.6728 34.2927 46.2847C33.7426 51.0973 33.0091 54.8276 32.5278 55.15C32.3215 55.2881 32.3674 55.2882 31.1297 55.0809L31.1526 55.0579Z" fill="#757887"/>
<path d="M35.3241 32.4226L35.37 25.7678L35.8513 25.7218C36.2868 25.6757 36.3326 25.6527 36.3785 25.2612L36.4243 24.8467L35.0949 24.8007C33.353 24.7546 33.3301 24.7546 33.3759 25.2612C33.4217 25.6297 33.4676 25.6757 33.8572 25.7448L34.3156 25.8139V28.8304C34.3615 30.4883 34.3156 31.8008 34.2698 31.7548C34.201 31.7087 33.5364 30.1429 32.78 28.2777L31.3819 24.8467H29.7087L28.0355 24.9158V25.3073C28.0355 25.6527 28.0813 25.6987 28.5168 25.7218L28.9982 25.7678V31.8469L28.9294 37.926H27.7833L26.454 31.7548C24.8496 24.2711 24.9413 24.6395 24.6891 24.5474C24.162 24.3402 24.0932 24.5474 22.9243 29.8896C21.7553 35.2779 21.4344 36.3371 20.6781 37.12C20.1509 37.6727 19.4633 37.972 18.7298 37.972H18.0881L18.1339 31.893V25.8139L18.6152 25.7448C19.0278 25.6757 19.0737 25.6297 19.0737 25.2843V24.8928H15.1084L15.0626 25.2612C15.0168 25.6757 15.2001 25.8599 15.7273 25.8599H16.094V37.972H15.796C15.2689 37.972 15.0855 38.1102 15.0855 38.5016C15.0855 38.7089 15.1313 38.8931 15.1772 38.9161C15.223 38.9622 16.8275 38.9161 18.7298 38.8931L22.1679 38.801L22.5575 36.8667L22.9472 34.9325L24.0015 34.8864C25.01 34.8404 25.0559 34.8634 25.1246 35.1397C25.3538 36.222 25.583 37.4885 25.583 37.6957C25.583 37.8569 25.4684 37.949 25.1704 37.972C24.8037 38.0181 24.7579 38.0641 24.7579 38.4095V38.801H27.8292C30.488 38.8701 30.9235 38.847 31.0381 38.6628C31.3131 38.2944 31.1068 37.972 30.5796 37.926L30.1212 37.8799L30.0754 33.1134C30.0754 30.4883 30.0754 28.3008 30.1442 28.2547C30.19 28.2087 31.1297 30.3732 32.207 33.0673C34.8887 39.7451 34.5907 39.1003 35.0033 39.0543L35.3471 39.0082V32.3535L35.3241 32.4226ZM22.9472 33.7581C22.9472 33.4588 23.9098 29.0837 23.9786 29.0837C24.0703 29.0837 24.9871 33.5969 24.8954 33.7581C24.8725 33.8042 24.4141 33.8502 23.8869 33.8502C23.3597 33.8502 22.9243 33.8042 22.9243 33.7581H22.9472ZM41.3293 39.0082C42.4294 38.7089 43.2775 37.5115 43.6671 35.6924C43.9193 34.5871 43.8505 34.3798 43.3462 34.3798C42.8878 34.3798 42.8878 34.3798 42.567 35.6233C42.2232 36.9588 41.8106 37.6727 41.2146 37.8569C40.3666 38.1332 39.6102 37.7648 39.1977 36.8437C38.9456 36.2911 38.9226 35.9917 38.8768 32.9061C38.808 28.1626 39.0831 26.4356 39.9999 25.952C41.1917 25.3303 42.2002 26.2053 42.567 28.1396C42.7274 28.9916 42.8191 29.1528 43.1858 29.0837C43.3921 29.0376 43.4379 28.8534 43.4838 27.0343C43.5296 25.929 43.5296 24.9619 43.4838 24.8698C43.3921 24.5935 42.8191 24.6856 42.6815 25.0079L42.544 25.3073L41.9252 24.9158C41.3522 24.5704 41.2147 24.5244 40.4583 24.5704C39.7936 24.6165 39.5186 24.7086 39.0831 25.0079C37.5933 26.0672 36.5389 28.8534 36.5389 31.7548C36.5389 35.1167 37.8683 38.1332 39.679 38.9392C40.1603 39.1464 40.6875 39.1694 41.3293 38.9852V39.0082ZM55.769 38.824C56.0441 38.4786 55.8836 38.1793 55.3336 38.1102L54.8293 38.0411L53.3853 31.3403C52.5831 27.656 51.9414 24.6165 51.9414 24.6165C51.9414 24.6165 51.758 24.5935 51.5517 24.5935C51.0933 24.5935 51.185 24.3402 50.3369 28.3238C50.0161 29.8436 49.4201 32.6298 49.0076 34.495L48.2741 37.9029L47.6553 37.949L47.0364 37.9951L47.0823 31.916V25.8139L47.5636 25.7448C47.9532 25.6757 48.022 25.6297 48.022 25.2843V24.8928H44.0568V25.2843C44.0568 25.6297 44.1026 25.6757 44.5152 25.7448L44.9507 25.8139V37.926L44.5152 37.9951C44.1255 38.0411 44.0568 38.1102 44.0339 38.4786L43.988 38.8931L47.0364 38.847H50.0848L50.1306 38.4556C50.1536 38.1562 50.1307 38.0872 49.7639 38.0181C49.5577 37.972 49.3743 37.9029 49.3743 37.8569C49.3743 37.8108 49.5118 37.1431 49.6722 36.3601L49.9702 34.9555L51.0246 34.9095C52.0331 34.8634 52.0789 34.8864 52.1476 35.1628C52.3768 36.245 52.606 37.5115 52.606 37.7187C52.606 37.9029 52.5144 37.972 52.2851 37.972C52.1018 37.972 51.9184 38.0872 51.8268 38.2253C51.6434 38.5477 51.6663 38.5707 51.8955 38.801C52.1706 39.0773 55.5627 39.1003 55.792 38.801L55.769 38.824ZM50.039 33.5739C50.0848 33.4127 50.2911 32.3535 50.5203 31.1791C50.7495 30.0278 50.9787 29.0837 51.0246 29.0837C51.0704 29.0837 51.2996 30.0738 51.5288 31.2943C51.758 32.5147 51.9643 33.5969 52.0101 33.689C52.056 33.8042 51.8038 33.8502 51.0246 33.8502C49.9931 33.8502 49.9702 33.8502 50.039 33.5509V33.5739Z" fill="#757887"/>
<path d="M34.4302 0.0238789C45.8445 0.115986 57.3964 4.422 69.0857 12.5505L69.6587 12.9419L69.7275 13.6557C70.8277 27.3797 68.6044 39.0313 62.9201 48.5644C57.2359 58.0975 48.1366 65.443 35.5075 70.532L34.9574 70.7622L34.4073 70.532C20.7239 65.0286 11.7621 57.1764 6.42163 47.5052C1.10412 37.8569 -0.614904 26.4587 0.187306 13.863L0.233156 13.1952L0.760313 12.7807C11.7621 4.05357 23.0159 -0.0682266 34.4531 0.000853785M66.8395 14.5768C55.8607 7.02403 45.0423 3.04039 34.4531 2.97131C23.864 2.8792 13.4352 6.67863 3.1211 14.692C2.45641 26.4587 4.08377 37.097 9.01163 46.0314C13.9624 54.9889 22.2595 62.3114 34.9574 67.5385C46.6926 62.7259 55.1273 55.8639 60.3989 47.0446C65.6477 38.2254 67.7563 27.4028 66.8395 14.5998V14.5768Z" fill="#757887"/>
</svg>
