<svg width="70" height="48" viewBox="0 0 70 48" fill="none" xmlns="http://www.w3.org/2000/svg">
<path d="M67.7809 13.1779H59.499C58.4093 13.1779 57.4582 12.2731 56.9629 11.5061C52.5644 4.42541 44.1636 0 35.0099 0C25.8562 0 16.9799 4.64177 12.6804 12.1158L12.6408 12.1945C12.5616 12.4895 12.2644 13.1976 11.1945 13.1976H2.19927C0.990661 13.1976 0 14.181 0 15.4004V30.1125C0 31.3319 0.990661 32.2957 2.19927 32.2957H9.68866C10.2632 32.2957 10.7784 32.6301 11.2341 33.2791C11.3331 33.4365 11.5115 33.6528 11.7096 33.9085C12.0464 34.3609 12.4823 34.9313 12.7795 35.3836C17.3365 42.7397 25.876 47.3224 35.0892 47.3224C44.3023 47.3224 52.0294 43.4871 56.6063 37.0358C56.7252 36.8588 56.8837 36.6228 57.0818 36.3671C57.6762 35.541 58.4687 34.4199 59.1027 33.1611C59.499 32.453 59.7764 32.3154 60.3312 32.3154H67.7809C69.0093 32.3154 70 31.3319 70 30.1322V15.4201C70 14.2203 69.0093 13.2172 67.7809 13.2172M11.67 13.827V13.7876C12.4625 13.6499 13.0371 13.1582 13.2352 12.4108C17.4356 5.15315 25.7571 0.649061 34.9901 0.649061C44.223 0.649061 52.1285 4.9368 56.4081 11.8601C57.0224 12.8239 58.1517 13.827 59.4792 13.827H67.7611C68.1178 13.827 68.4149 13.945 68.6725 14.122L66.6119 16.0298C66.4138 15.9118 66.1761 15.8331 65.9185 15.8331H4.02208C3.76451 15.8331 3.50694 15.9118 3.30881 16.0495L1.62468 13.945C1.803 13.886 1.98132 13.8466 2.17946 13.8466H11.6303L11.67 13.827ZM17.6536 40.1828C17.0195 39.7107 16.2468 38.9043 15.4939 37.9799C14.9391 37.3112 14.4042 36.5834 13.889 35.895C13.3541 35.1673 12.8786 34.4789 12.5021 33.9085C12.0662 33.2201 11.7492 32.7284 11.6898 32.5907C11.4124 32.0597 11.1548 31.4106 11.6105 30.8009C12.0464 30.1912 13.1956 29.5028 13.889 29.2471L18.2281 31.7646L18.03 32.099L14.3249 30.0535C17.1979 38.1766 25.4203 44.0181 35.0892 44.0181C44.758 44.0181 52.1681 38.2749 55.1599 30.3878L51.9106 32.0793L51.8115 31.922C51.8115 31.922 51.7719 31.8236 51.7322 31.7646L56.21 29.1881L59.0631 31.4499C58.1517 33.7512 55.5958 37.6849 52.1087 37.2718C47.512 42.3266 42.2021 44.7655 35.0892 44.7655C27.9762 44.7655 21.6954 41.9333 17.396 37.4488L15.276 36.7604C15.9694 38.1569 16.9403 39.396 17.6337 40.1434M51.1775 32.4727C48.7603 39.278 41.2114 41.8546 34.9703 41.9726C28.7291 41.8546 21.2001 39.2977 18.7631 32.4727C18.6838 32.276 18.7037 32.158 18.7433 32.1187C18.7433 32.1187 18.8027 32.099 18.8225 32.099H51.1378C51.1378 32.099 51.2171 32.099 51.2171 32.1187C51.2567 32.158 51.2567 32.276 51.1775 32.4727ZM66.6119 17.1116V27.1229C66.6119 27.5162 66.2949 27.8113 65.9185 27.8113H4.02208C3.62582 27.8113 3.32862 27.4966 3.32862 27.1229V17.1116C3.32862 16.7379 3.64563 16.4232 4.02208 16.4232H65.9185C66.2949 16.4232 66.6119 16.7379 66.6119 17.1116Z" fill="#757887"/>
<path d="M18.9613 15.302H51.6729C52.822 15.302 52.3465 14.3382 52.0691 13.8268C53.3966 14.0432 54.4071 14.6136 55.259 15.3413C52.3861 6.60848 44.441 2.39941 35.0892 2.39941C25.7374 2.39941 17.7923 7.51323 14.9392 15.5773C15.6327 15.0463 16.9998 14.2792 18.0103 14.1022C17.9706 14.6726 18.2282 15.3216 18.9811 15.3216M19.0604 13.5711C21.8342 6.43146 28.0952 4.01223 35.01 4.01223C41.9248 4.01223 49.3943 6.33312 51.6927 13.5711C51.6927 13.5711 51.7125 13.6891 51.7323 13.7285C51.7323 13.7088 51.7323 13.6498 51.6927 13.5711C51.7917 14.0038 51.7521 14.1809 51.2568 14.1809H19.6151C19.2981 14.1809 18.882 14.1022 19.0802 13.5711" fill="#757887"/>
<path d="M15.0382 24.1334L12.3832 17.5641H8.42059V26.1986H10.8378V19.3539L13.6315 26.1986H17.4752V17.5641H15.0382V24.1334Z" fill="#757887"/>
<path d="M20.6652 26.1986V17.5641" stroke="#757887" stroke-width="2.99487" stroke-miterlimit="10"/>
<path d="M44.3815 17.5641L41.2709 26.1986H43.7871L44.3221 24.6448H47.9479L47.2743 22.7369H44.9957L46.1449 19.5113L48.5225 26.1986H51.019L47.9479 17.5641H44.3815Z" fill="#757887"/>
<path d="M28.5905 20.9075H25.995V19.511H30.8888V17.5835H25.8959C24.5882 17.5835 23.5183 18.2129 23.5183 20.0617C23.5183 20.9271 23.657 22.8547 26.4507 22.8547H29.0858V24.2511H23.7561V26.218H29.1651C30.4331 26.218 31.6615 25.1952 31.6615 23.5431C31.6615 21.8909 30.7501 20.9271 28.5905 20.9271" fill="#757887"/>
<path d="M58.5282 24.1334L55.8732 17.5641H51.9304V26.1986H54.3278V19.3539L57.1412 26.1986H60.9652V17.5641H58.5282V24.1334Z" fill="#757887"/>
<path d="M37.7838 20.9075H35.1882V19.511H40.0821V17.5835H35.0892C33.7815 17.5835 32.6918 18.2129 32.6918 20.0617C32.6918 20.9271 32.8503 22.8547 35.6241 22.8547H38.2791V24.2511H32.9493V26.218H38.3583C39.6264 26.218 40.8548 25.1952 40.8548 23.5431C40.8548 21.8909 39.9434 20.9271 37.764 20.9271" fill="#757887"/>
</svg>
