<svg width="70" height="45" viewBox="0 0 70 45" fill="none" xmlns="http://www.w3.org/2000/svg">
<path d="M17.0705 22.963C17.2614 23.9517 17.5 24.9405 17.8819 25.8973C18.1046 26.4395 18.3432 26.9658 18.6932 27.4602C19.3296 28.3851 20.1728 29.0549 21.2069 29.5015C21.6205 29.6769 22.05 29.8364 22.4796 29.964C23.6887 30.3307 24.9455 30.5221 26.2023 30.6178C27.4114 30.7135 28.6205 30.8092 29.8296 30.857C31.5796 30.9208 33.3296 30.9527 34.6978 30.9686C36.1614 30.9527 37.2432 30.9367 38.3091 30.9208C39.8205 30.8889 41.3319 30.8251 42.8591 30.7135C43.9887 30.6337 45.1182 30.5221 46.2319 30.3148C47.1387 30.1394 48.0455 29.9161 48.9046 29.5334C50.3205 28.9114 51.4023 27.9227 52.0387 26.4874C52.3091 25.8814 52.5478 25.2754 52.7228 24.6375C53.0569 23.4255 53.2796 22.1975 53.4546 20.9536C53.6137 19.7256 53.7569 18.4817 53.8841 17.2538C54.0114 16.0258 54.091 14.7819 54.1069 13.5539C54.1546 11.5764 54.1705 9.58301 53.9955 7.60551C53.9319 6.84003 53.8046 6.0905 53.566 5.37286C53.1682 4.1449 52.5 3.09236 51.466 2.31094C50.7978 1.80061 50.05 1.46572 49.2546 1.19461C48.1887 0.843763 47.1069 0.66834 46.0091 0.524812C44.6728 0.365337 43.3205 0.253704 41.9682 0.189914C40.5682 0.126124 39.1682 0.0623341 37.7682 0.030439C35.891 -0.0174035 34.0137 -0.00145601 32.1364 0.030439C30.0205 0.0782816 27.9046 0.158019 25.8046 0.34939C24.7546 0.445075 23.7046 0.556707 22.6705 0.748078C21.7955 0.907553 20.9364 1.13082 20.1091 1.49761C18.7091 2.10362 17.6432 3.06047 16.975 4.46385C16.5932 5.24528 16.3705 6.0905 16.2591 6.95167C16.1319 7.86068 16.0841 8.78563 16.0682 9.69464C16.0682 10.8748 16.0523 12.0549 16.0682 13.235C16.1 15.3401 16.3069 17.4451 16.5455 19.5343C16.6728 20.6984 16.8637 21.8307 17.0864 22.9789M17.9932 11.5286C18.025 10.5239 18.0569 9.50327 18.1205 8.49858C18.1682 7.60551 18.2637 6.7284 18.5341 5.86723C18.8682 4.76685 19.4569 3.8419 20.3955 3.1721C20.9205 2.78936 21.525 2.51825 22.1455 2.31094C22.8296 2.08767 23.5455 1.94414 24.2614 1.84846C25.2478 1.72088 26.25 1.60924 27.2523 1.51356C27.9523 1.44977 28.6523 1.40193 29.3523 1.37003C30.5137 1.32219 31.675 1.24245 32.8523 1.24245C34.5705 1.2265 36.2728 1.24245 37.991 1.2584C39.2796 1.29029 40.5841 1.35408 41.8887 1.43382C43.2728 1.51356 44.6569 1.64114 46.025 1.8644C46.916 1.99198 47.8069 2.18336 48.6341 2.5342C49.6523 2.94884 50.4955 3.58674 51.1 4.52764C51.4341 5.06986 51.6569 5.67586 51.816 6.29782C51.9591 6.91977 52.0546 7.55767 52.1023 8.21152C52.2614 10.1252 52.2773 12.0389 52.2455 13.9686C52.2137 15.1009 52.1341 16.2491 52.0228 17.3813C51.9432 18.3063 51.8478 19.2313 51.7364 20.1562C51.5455 21.6553 51.3069 23.1544 50.8296 24.6056C50.6705 25.1 50.4796 25.5943 50.241 26.0409C49.6523 27.205 48.7296 28.0183 47.5364 28.5127C46.8046 28.8157 46.025 28.9911 45.2455 29.1187C43.8932 29.342 42.541 29.4377 41.1728 29.5174C39.3114 29.6131 37.4341 29.6609 35.5728 29.6609H35.1273V29.6928C33.5205 29.6609 31.8978 29.6291 30.275 29.5653C29.0978 29.5174 27.9205 29.4377 26.7591 29.342C25.7728 29.2623 24.8182 29.1187 23.8637 28.8795C23.3864 28.7519 22.941 28.6084 22.4955 28.4011C21.3182 27.8589 20.4591 26.9977 19.9182 25.8495C19.5523 25.084 19.2819 24.2707 19.091 23.4574C18.8205 22.3251 18.6296 21.1928 18.5023 20.0446C18.375 18.7528 18.2319 17.4611 18.1364 16.1853C17.9932 14.6384 17.9773 13.0915 18.0091 11.5446" fill="#757887"/>
<path d="M8.08182 37.1881C8.17727 37.1881 8.25682 37.22 8.33636 37.22C8.59091 37.2519 8.84546 37.2838 9.11591 37.3157C9.43409 37.3476 9.59318 37.507 9.64091 37.826C9.64091 37.8579 9.65682 37.9057 9.65682 37.9376C9.65682 38.3682 9.65682 38.7988 9.65682 39.2294C9.65682 39.2294 9.64091 39.2453 9.64091 39.2613C9.40227 39.2932 4.91591 39.2932 4.77273 39.2613V38.5436C4.77273 38.3204 4.77273 38.0811 4.77273 37.8579C4.80455 37.5549 4.97955 37.3794 5.28182 37.3316C5.425 37.2997 5.56818 37.2997 5.71136 37.2838C5.91818 37.2678 6.125 37.2359 6.34773 37.204C6.34773 37.0127 6.34773 36.8372 6.34773 36.6618C6.34773 36.4864 6.36364 36.311 6.33182 36.1515H0V37.22C0.0954545 37.22 0.175 37.2519 0.254545 37.2519C0.509091 37.2838 0.763636 37.3157 1.03409 37.3476C1.35227 37.3794 1.51136 37.5389 1.575 37.8579C1.575 37.9536 1.575 38.0333 1.575 38.129V42.1159C1.575 42.2115 1.575 42.3072 1.55909 42.4029C1.49545 42.7059 1.33636 42.8495 1.03409 42.8973C0.763636 42.9292 0.525 42.9611 0.254545 42.977C0.159091 42.977 0.0795455 43.0089 0 43.0249V44.0615C0.206818 44.1093 6.20455 44.0934 6.34773 44.0615V43.0249C6.01364 42.993 5.69546 42.9451 5.37727 42.9132C4.97955 42.8654 4.80455 42.7059 4.78864 42.3072C4.78864 41.8767 4.78864 41.4301 4.78864 40.9995C4.78864 40.9995 4.78864 40.9836 4.80455 40.9676C5.075 40.9198 9.51364 40.9357 9.67273 40.9836V42.2434C9.67273 42.2434 9.67273 42.3551 9.65682 42.4029C9.60909 42.7059 9.45 42.8654 9.14773 42.8973C9.00455 42.9132 8.86136 42.9292 8.71818 42.9451C8.51136 42.977 8.30455 42.993 8.09773 43.0249V44.0934H14.4455V43.0249C14.3341 43.0249 14.2386 42.993 14.1432 42.977C13.8886 42.9451 13.65 42.9292 13.3955 42.8973C13.1091 42.8495 12.95 42.7059 12.9023 42.4189C12.8864 42.3072 12.8864 42.1956 12.8864 42.0999C12.8864 40.7922 12.8864 39.4845 12.8864 38.1768C12.8864 38.0811 12.8864 37.9695 12.9023 37.8579C12.9659 37.5549 13.125 37.3954 13.4432 37.3635C13.5864 37.3476 13.7455 37.3316 13.8886 37.3157C14.0795 37.2997 14.2705 37.2678 14.4614 37.2359V36.1674H8.11364V37.2359L8.08182 37.1881Z" fill="#757887"/>
<path d="M36.9886 36.1354V37.172C36.9886 37.172 37.0522 37.1879 37.0999 37.1879C37.4022 37.2198 37.7045 37.2676 38.0068 37.2995C38.3409 37.3474 38.5159 37.5069 38.5477 37.8418C38.5477 37.8896 38.5477 37.9534 38.5477 38.0012V41.7808C38.5477 41.7808 38.5477 41.8605 38.5318 41.9243C38.4681 41.8446 38.4045 41.7808 38.3727 41.717C37.0363 39.9787 35.7159 38.2404 34.4113 36.4862C34.2204 36.2311 33.9818 36.0875 33.6795 36.0875C33.6318 36.0875 33.5681 36.0875 33.5204 36.0875H28.2863C28.2863 36.0875 28.1749 36.0875 28.1113 36.0875V37.156C28.1113 37.156 28.2545 37.1879 28.334 37.1879C28.6045 37.2198 28.859 37.2517 29.1295 37.2836C29.4636 37.3155 29.6227 37.475 29.6863 37.8099C29.7022 37.9055 29.6863 38.0012 29.6863 38.081C29.6863 39.4046 29.6863 40.7123 29.6863 42.02C29.6863 42.0838 29.6863 42.1635 29.6863 42.2273C29.6545 42.5941 29.4795 42.7695 29.0977 42.8174C28.9545 42.8174 28.8113 42.8493 28.6522 42.8652C28.4613 42.8812 28.2863 42.9131 28.0954 42.945V43.9975C28.3022 44.0453 33.0113 44.0294 33.1545 43.9975C33.1863 43.7583 33.1863 43.0885 33.1545 42.945C33.059 42.945 32.9636 42.9131 32.8681 42.9131C32.6136 42.8812 32.3749 42.8652 32.1363 42.8174C31.8181 42.7855 31.6431 42.5941 31.6113 42.2752C31.6113 42.1954 31.6113 42.1316 31.6113 42.0678C31.6113 40.8558 31.6113 39.6279 31.6113 38.4159V38.2245C31.6113 38.2245 31.6272 38.2245 31.659 38.2245C31.7068 38.2883 31.7386 38.3361 31.7863 38.3999C33.1068 40.1382 34.4272 41.8924 35.7477 43.6307C35.9545 43.9178 36.2249 44.0294 36.559 44.0294C37.8159 44.0294 39.0568 44.0294 40.3136 44.0294C40.3613 44.0294 40.4249 44.0294 40.4886 44.0294V38.1607C40.4886 38.065 40.4886 37.9693 40.4886 37.8896C40.5204 37.5388 40.6954 37.3633 41.0454 37.3155C41.2045 37.2995 41.3477 37.2836 41.4909 37.2676C41.6818 37.2517 41.8727 37.2198 42.0636 37.1879V36.1194C41.7613 36.0875 37.1318 36.1035 36.9886 36.1194" fill="#757887"/>
<path d="M55.6977 39.6279C55.6023 38.6232 55.1727 37.778 54.3773 37.1561C54.0273 36.8849 53.6136 36.6776 53.2 36.5182C52.3568 36.2151 51.4659 36.1035 50.575 36.1035C48.0136 36.1035 45.4364 36.1035 42.875 36.1035C42.8114 36.1035 42.7636 36.1035 42.7 36.1035V37.172C42.9864 37.2039 43.2568 37.2358 43.5273 37.2517C44.0364 37.2996 44.1796 37.475 44.1796 37.9853V42.0519C44.1796 42.1476 44.1796 42.2274 44.1796 42.3231C44.1159 42.642 43.9568 42.8015 43.6227 42.8334C43.4796 42.8334 43.3205 42.8653 43.1773 42.8812C42.9864 42.8972 42.7955 42.9291 42.6046 42.961V44.0294H42.875C45.3568 44.0294 47.8227 44.0294 50.3046 44.0294C50.75 44.0294 51.2114 44.0135 51.6727 43.9656C52.3727 43.9019 53.0568 43.7264 53.6932 43.4234C54.6 42.9769 55.2523 42.3231 55.5705 41.3503C55.7614 40.7761 55.7932 40.202 55.7455 39.612M51.9909 41.1589C51.9432 41.3662 51.8636 41.5735 51.7523 41.7489C51.5136 42.1476 51.1318 42.3549 50.6864 42.4347C50.4636 42.4666 50.2409 42.4985 50.0182 42.4985C49.1909 42.4985 48.3636 42.4985 47.5364 42.4985C47.4727 42.4985 47.425 42.4985 47.3614 42.4985V37.6345C47.3614 37.6345 47.4568 37.6345 47.5046 37.6345C48.3636 37.6345 49.2227 37.6345 50.0977 37.6345C50.3841 37.6345 50.6864 37.6664 50.9727 37.7621C51.4182 37.9056 51.7205 38.2086 51.8955 38.6232C52.0705 39.0219 52.1023 39.4525 52.1182 39.8831C52.1182 40.3137 52.1182 40.7442 52.0068 41.1589" fill="#757887"/>
<path d="M26.2341 37.0445C25.6455 36.6139 24.9773 36.3588 24.2773 36.1674C23.2909 35.9123 22.2728 35.8325 21.2864 35.8325C20.3478 35.8325 19.4409 35.8963 18.55 36.1036C17.8659 36.2472 17.1978 36.4704 16.6091 36.8372C15.4 37.5708 14.7637 38.6393 14.7637 40.0427C14.7637 41.4142 15.3364 42.4826 16.4819 43.2481C16.8 43.4554 17.1341 43.6149 17.5 43.7584C18.2955 44.0614 19.1387 44.205 19.9978 44.2688C21.2705 44.3644 22.5273 44.3326 23.7841 44.0933C24.5 43.9498 25.2 43.7265 25.8364 43.3598C26.9978 42.69 27.6659 41.7012 27.7614 40.3616C27.8409 38.9901 27.3637 37.8579 26.2341 37.0445ZM23.9909 41.0633C23.8 41.9404 23.275 42.4826 22.4159 42.674C21.6205 42.8654 20.825 42.8654 20.0296 42.6581C19.1705 42.4507 18.6773 41.8926 18.5182 41.0314C18.4546 40.7284 18.4387 40.4095 18.3909 40.0905C18.4069 39.7078 18.4387 39.341 18.5341 38.9901C18.7409 38.2087 19.2182 37.7143 19.9978 37.507C20.7932 37.2997 21.6046 37.2997 22.4159 37.4751C23.2591 37.6824 23.8 38.2087 23.975 39.0699C24.1182 39.7237 24.1182 40.3935 23.975 41.0474" fill="#757887"/>
<path d="M68.3454 42.3551C67.7568 41.4461 67.1523 40.5371 66.5636 39.6281C65.9113 38.6234 65.2432 37.6346 64.5909 36.6299C64.3841 36.2951 64.1136 36.1196 63.7 36.1196C61.775 36.1196 59.85 36.1196 57.9091 36.1196C57.8613 36.1196 57.7977 36.1196 57.7341 36.1196V37.1881C57.7341 37.1881 57.8772 37.22 57.9568 37.22C58.3386 37.2679 58.7045 37.2997 59.0863 37.3476C59.4204 37.3795 59.5795 37.6665 59.4204 37.9695C59.3886 38.0174 59.3727 38.0652 59.3409 38.1131C58.4659 39.5483 57.575 40.9677 56.7 42.403C56.6682 42.4667 56.6204 42.5305 56.5727 42.5784C56.4454 42.7379 56.2863 42.8335 56.0795 42.8654C55.9522 42.8654 55.7932 42.8973 55.65 42.9133C55.4591 42.9452 55.2522 42.9611 55.0613 42.993V44.0456C55.3477 44.0934 59.9773 44.0774 60.1204 44.0456V43.009C59.9932 43.009 59.8818 42.9771 59.7545 42.9611C59.5477 42.9452 59.3409 42.9292 59.1341 42.8814C58.8 42.8176 58.7045 42.5624 58.8795 42.2913C58.975 42.1318 59.0863 41.9724 59.1659 41.8129C59.2295 41.6853 59.325 41.6534 59.4682 41.6534C60.9636 41.6534 62.4591 41.6534 63.9545 41.6534C63.9863 41.6534 64.0341 41.6534 64.05 41.6534C64.0977 41.6534 64.1454 41.6853 64.1772 41.7172C64.3045 41.9086 64.4477 42.1 64.5432 42.3073C64.6704 42.5305 64.5909 42.7379 64.3523 42.8335C64.2091 42.8814 64.0659 42.9133 63.9068 42.9292C63.6682 42.9611 63.4295 42.9771 63.175 43.009V44.0615C63.175 44.0615 63.2227 44.0774 63.2386 44.0774C65.4659 44.0774 67.6772 44.0774 69.9045 44.0774C69.9363 44.0774 69.9682 44.0774 70 44.0774C70 44.0774 70 44.0615 70 44.0456V43.009C69.6977 42.9771 69.3795 42.9292 69.0932 42.8973C68.7273 42.8654 68.4727 42.69 68.2659 42.387M60.1204 40.2181C60.6136 39.4208 61.1068 38.6393 61.5841 37.842C61.6954 37.9376 63.0159 39.9151 63.1591 40.2022C63.0159 40.25 60.4227 40.25 60.1204 40.2022" fill="#757887"/>
<path d="M23.8 4.60724C23.8478 5.29298 23.8955 5.97872 23.9273 6.64852C23.991 7.76485 24.0705 8.88117 24.1341 9.9975C24.1978 10.9065 24.2455 11.8315 24.3091 12.7405C24.3728 13.809 24.4523 14.8774 24.5319 15.93C24.5796 16.7752 24.6432 17.6364 24.7069 18.4816C24.7864 19.6458 24.8819 20.8099 24.9614 21.9582C25.041 22.8991 25.1046 23.8559 25.1841 24.7968C25.2796 25.8972 25.3591 26.9816 25.4546 28.082C25.4546 28.1777 25.4705 28.2734 25.4864 28.3531C26.1705 28.4966 28.6841 28.6242 29.2887 28.6242C29.3046 28.5445 29.3364 28.4647 29.3682 28.3691C29.6864 27.173 30.0205 25.9769 30.3546 24.7809C30.5455 24.127 30.7682 23.4891 31.0864 22.8831C31.4682 22.1176 32.0887 21.703 32.9319 21.5754C33.6637 21.4638 34.3955 21.4 35.1273 21.4C35.8591 21.4 36.6069 21.4478 37.3387 21.5754C38.1341 21.7189 38.7387 22.1176 39.1205 22.8353C39.2 22.9947 39.2796 23.1542 39.3591 23.3137C39.6137 23.9037 39.8364 24.5257 39.9955 25.1477C40.2978 26.2161 40.5682 27.3006 40.8705 28.3691C40.9023 28.4488 40.9182 28.5445 40.95 28.6083C41.6978 28.6561 44.4023 28.4488 44.7523 28.3212C45.4682 19.8212 45.9932 11.3052 46.5341 2.77327C45.6591 2.64569 44.7841 2.59785 43.8932 2.56595C43.8773 2.64569 43.8614 2.69353 43.8455 2.75732C43.4955 4.36802 43.1296 5.96278 42.7796 7.57348C42.2546 9.91776 41.6819 12.2621 41.0614 14.5744C40.8546 15.324 40.616 16.0735 40.266 16.7752C39.6137 18.1307 38.5319 18.8803 37.0364 19.0876C36.4796 19.1673 35.9228 19.1833 35.366 19.1992C34.5546 19.1992 33.7273 19.1992 32.9319 19.0398C31.9296 18.8484 31.0864 18.3859 30.45 17.5726C30.1319 17.1739 29.9091 16.6955 29.7182 16.217C29.3841 15.3878 29.1614 14.5425 28.9228 13.6814C28.0478 10.2846 27.2841 6.87179 26.5364 3.44307C26.4728 3.14006 26.3932 2.85301 26.3296 2.53406C25.4387 2.55001 24.5796 2.6138 23.7046 2.72543C23.7046 2.80517 23.7046 2.83706 23.7046 2.8849C23.7364 3.42712 23.7682 3.96934 23.8 4.5275" fill="#757887"/>
</svg>
