<svg width="70" height="32" viewBox="0 0 70 32" fill="none" xmlns="http://www.w3.org/2000/svg">
<path d="M29.7107 9.65915C28.8211 11.0584 28.739 11.7241 28.7117 12.1724C28.6843 12.6207 28.6843 13.4087 29.4096 14.0608C30.6276 15.134 32.3382 14.9574 33.8573 14.9574H46.3382C46.872 14.9574 47.0225 14.808 47.3099 14.4276C48.3089 12.9196 48.7605 11.2894 48.7605 9.82218C48.7605 6.68397 46.7077 2.74423 41.4937 0.964557L40.9052 1.79326C45.0381 3.73596 46.7488 6.26283 46.7488 9.82218C46.7625 10.7731 46.5161 11.8056 45.8866 12.7566H33.7478C33.0225 12.7566 32.9267 11.9415 33.1867 11.4932C34.2679 9.60481 35.3764 7.93382 36.6628 6.22207C37.8944 4.60542 39.0987 3.08386 40.3578 1.50797C40.6999 1.07324 40.4673 0.638509 39.7967 0.502656C38.3734 0.203779 36.8954 0 35.1027 0C25.1535 0 21.5132 5.65149 21.5132 9.84935C21.5132 14.3868 25.1809 19.6715 35.1163 19.6715C40.6452 19.6715 44.2581 17.9054 46.3519 15.6503H44.2444C42.4106 17.3213 39.2766 18.5032 35.13 18.5032C26.6999 18.5032 23.5934 13.8163 23.5934 9.78142C23.6618 6.18131 26.9873 1.20909 35.3353 1.04607C35.6501 1.04607 35.8964 1.31777 35.6774 1.58948C34.2542 3.3284 30.176 8.95272 29.7107 9.67274" fill="#757887"/>
<path d="M67.2082 25.8936H59.2297C59.3392 24.9291 60.174 24.1276 61.0225 24.1276H69.0968L69.0694 22.4566H60.5024C57.7928 22.4566 55.6305 24.6846 55.5621 27.2658C55.5621 27.4424 55.6715 27.5511 55.8768 27.5511L65.5934 27.5239C66.086 27.5918 66.4692 27.9858 66.4692 28.4477C66.4692 28.9639 65.9902 29.3851 65.4154 29.3851H54.7273V22.4701H51.5797V29.4122H45.7908C44.217 29.4122 43.8886 28.4749 43.8886 27.6054V22.4294H38.6608C38.1408 22.7826 37.6481 23.163 37.1144 23.4755L34.0215 25.3638L29.998 22.4566H17.8182C16.217 22.4566 14.9853 22.8641 14.0684 23.5841C12.4262 24.8612 11.9062 26.2197 11.9335 26.8174H14.0684C13.1378 27.5103 12.4946 28.339 12.1662 29.3036H5.15933C3.90029 29.3036 3.09287 28.4205 3.09287 27.5646V22.4022H0V27.7684C0 29.6975 1.84751 31.0289 4.83089 31.0289H28.3011C28.7937 30.7028 29.2454 30.3496 29.7654 30.0507L32.9541 28.1352L36.9912 30.9881H41.5894L35.5132 26.4642L38.6334 24.44C39.304 24.0053 40.002 23.6385 40.6862 23.2445V27.8092C40.6862 29.7247 41.1789 31.0561 45.0929 31.0561L67.1945 31.0017C68.9052 31.0289 70 29.8606 70 28.4477C70 27.0348 68.741 25.8936 67.1945 25.8936M27.6852 29.2764H16.2307C16.2581 28.3933 17.216 27.4967 18.0782 27.4967H25.2903V25.717H16.1349C16.0254 25.2008 17.0108 24.1819 17.7634 24.1819H25.9883V23.2309L31.3255 27.0212L27.6852 29.2764Z" fill="#757887"/>
</svg>
