<svg width="70" height="27" viewBox="0 0 70 27" fill="none" xmlns="http://www.w3.org/2000/svg">
<path d="M33.0577 21.715C33.0577 21.715 34.2952 21.1131 34.2952 19.7007C34.2952 19.1848 34.0624 17.453 31.6976 17.453H23.7211V26.0137C23.7211 26.0137 28.6467 26.0506 31.6976 26.0137C34.3442 25.9892 34.4667 24.3679 34.4667 23.6064C34.4667 22.2431 33.0822 21.715 33.0699 21.715M26.2819 19.1848C26.3432 19.148 29.2961 19.1848 30.9747 19.1848C31.4771 19.1848 31.9427 19.4919 31.9427 20.0568C31.9427 20.7078 31.5383 20.978 31.0605 20.978C29.2103 20.978 26.3555 21.0149 26.2942 20.978V19.1725L26.2819 19.1848ZM31.0972 24.2819C29.051 24.2819 26.3554 24.3188 26.2819 24.2819V22.4273C26.3432 22.3905 29.4921 22.4028 31.0605 22.3905C31.5996 22.3659 32.102 22.7467 32.102 23.3608C32.102 23.9995 31.5996 24.2819 31.0972 24.2819Z" fill="#757887"/>
<path d="M56.7911 22.7098C56.8523 22.6975 58.0776 21.8746 58.0776 20.499C58.0776 18.89 57.4405 17.453 55.0757 17.453H47.4545V26.0137H50.0276V23.3608C50.0276 23.3608 53.1153 23.3853 54.6468 23.3608C55.3085 23.3485 55.8476 24.0486 55.8476 24.6504V26.0137H58.1389V24.6873C58.1389 23.4345 56.8278 22.7098 56.8033 22.7098M54.7204 21.7886C52.8702 21.7886 50.0644 21.8132 50.0276 21.7886V19.1848C50.0276 19.1848 53.0417 19.1848 54.7204 19.1848C55.3575 19.1848 55.7618 19.934 55.7618 20.5481C55.7618 21.1622 55.333 21.7886 54.7204 21.7886Z" fill="#757887"/>
<path d="M38.988 17.453L34.381 26.0137H36.9419L37.9098 24.2819H43.2765L44.2077 26.0137H46.7317L42.1125 17.453H38.988ZM38.8288 22.4396L40.5074 19.3445L42.2718 22.4396H38.8288Z" fill="#757887"/>
<path d="M67.4263 17.4533C67.4753 17.5148 67.4263 21.1994 67.3896 23.5699C67.3896 23.8893 67.2671 24.2946 66.7892 24.2946H62.3415C61.8146 24.2946 61.6186 23.9875 61.6186 23.6068C61.6186 20.9538 61.5205 17.4902 61.5696 17.4165H59.0455C59.0088 17.4779 59.0088 21.5556 59.0455 24.2577C59.07 25.5842 60.4546 26.0264 62.0107 26.0264C64.2161 26.0264 65.4292 26.0632 67.8797 26.0264C69.1662 26.0018 70.0239 25.3263 69.9994 24.2577C69.9749 21.8872 69.9626 17.4656 69.9626 17.4656H67.4263V17.4533Z" fill="#757887"/>
<path d="M9.15275 20.7079C7.10655 20.6097 4.61926 20.6342 3.08767 20.5483C2.24224 20.5114 2.24224 18.9024 3.17344 18.9024H7.86621C8.50335 18.9024 8.50335 19.6025 8.50335 19.6271H10.8314C10.7823 19.5288 11.0764 17.1338 8.82192 17.1338H2.04619C0.931202 17.1338 0.122526 17.8216 0.122526 18.6568V20.4623C0.122526 21.6291 1.16401 22.1941 2.60982 22.2432C4.72953 22.2923 6.01606 22.366 7.70693 22.4397C9.10373 22.5134 8.90769 24.2575 7.70693 24.2821C6.10183 24.3189 5.09711 24.2821 3.33273 24.2821C2.32801 24.2821 2.36477 23.2749 2.36477 23.2749H0.036758C-0.0122527 23.5574 -0.0122527 23.8031 0.036758 24.0856C0.196043 25.1787 1.11499 26.0139 2.24224 26.0139H8.94445C9.96142 26.0139 11.0029 25.4489 10.9906 24.2452C10.9906 24.2452 10.9539 22.4766 10.9539 22.4397C10.9539 21.3957 10.1085 20.7693 9.15275 20.7079Z" fill="#757887"/>
<path d="M20.1802 17.4533C20.2169 17.5148 20.2169 21.1994 20.1802 23.5699C20.1802 23.8893 20.0577 24.2946 19.5798 24.2946H15.0831C14.6052 24.2946 14.3602 23.9875 14.3602 23.6068C14.3602 20.9538 14.3234 17.4779 14.3602 17.4165H11.7994C11.7503 17.4779 11.8116 21.5556 11.8361 24.2577C11.8606 25.5719 13.1962 26.0264 14.7645 26.0264C17.0067 26.0264 18.2198 26.0632 20.6213 26.0264C21.9078 26.0018 22.8023 25.3263 22.79 24.2577C22.7655 21.8872 22.7532 17.4656 22.7532 17.4656H20.1802V17.4533Z" fill="#757887"/>
<path d="M27.0539 2.18624C24.7014 3.58642 23.2188 5.47789 23.2188 7.40621C23.2188 9.33453 24.7014 11.2014 27.0294 12.5893C29.2716 13.9035 32.3103 14.7756 35.594 14.7756C38.8777 14.7756 41.9531 13.9158 44.2076 12.6016C46.5602 11.2137 48.0427 9.34681 48.0427 7.41849C48.0427 5.49018 46.5479 3.58642 44.1954 2.19853C41.9531 0.872042 38.9022 0 35.6063 0C32.3103 0 29.2961 0.872042 27.0539 2.19853M47.6874 7.41849C47.6874 9.2117 46.2783 10.9681 44.0361 12.2823C41.8429 13.5719 38.8532 14.4071 35.6063 14.4071C32.3593 14.4071 29.4187 13.5596 27.2254 12.2823C24.9832 10.9681 23.5864 9.19942 23.5864 7.41849C23.5864 5.63756 25.0077 3.84435 27.2377 2.51786C29.4309 1.21594 32.3961 0.356186 35.6063 0.356186C38.8165 0.356186 41.8306 1.20366 44.0116 2.50558C46.2661 3.83207 47.6874 5.62528 47.6874 7.41849Z" fill="#757887"/>
<path d="M31.0482 1.92822L29.8965 4.8514L24.7994 5.94452L29.8965 7.03765L31.1095 10.1451L32.3225 7.09906L37.8485 5.94452L32.2613 4.72858L31.0482 1.92822Z" fill="#757887"/>
<path d="M37.3585 7.59046L35.1775 8.06947L37.3585 8.56076L37.9098 9.89952L38.3877 8.62217L40.7525 8.06947L38.3877 7.59046L37.8486 6.37451L37.3585 7.59046Z" fill="#757887"/>
<path d="M43.6685 6.37451L43.1294 7.59046L40.9974 8.06947L43.1294 8.56076L43.6685 9.89952L44.1586 8.62217L46.5234 8.06947L44.1586 7.59046L43.6685 6.37451Z" fill="#757887"/>
<path d="M42.1614 6.31305L42.6393 4.97428L45.004 4.48299L42.6393 3.9917L42.0879 2.77576L41.6101 3.9917L39.4291 4.48299L41.6101 4.97428L42.1614 6.31305Z" fill="#757887"/>
<path d="M39.907 9.2854L39.3679 10.5136L37.2359 10.9926L39.3679 11.4839L39.907 12.7613L40.4461 11.4839L42.8231 10.9926L40.3971 10.4522L39.907 9.2854Z" fill="#757887"/>
<path d="M33.5967 9.65381L33.1066 10.9434L30.9257 11.4225L33.1066 11.8523L33.658 13.1788L34.1481 11.9015L36.5129 11.4225L34.1481 10.8698L33.5967 9.65381Z" fill="#757887"/>
</svg>
