<svg width="70" height="77" viewBox="0 0 70 77" fill="none" xmlns="http://www.w3.org/2000/svg">
<path d="M34.9674 0L23.2971 20.2891L34.9674 40.491L46.7028 20.2891L34.9674 0Z" fill="#757887"/>
<path d="M34.9674 40.491L46.7028 60.6929H69.9999L58.3514 40.491H34.9674Z" fill="#757887"/>
<path d="M0 60.6929H23.2972L34.9675 40.491H11.6486L0 60.6929Z" fill="#757887"/>
<path d="M8.61171 70.9792L6.7245 66.5553H4.81561V76.2749H6.52927V69.9332L8.61171 74.5532L10.8026 69.9332V76.2749H12.5163V66.5553H10.6074L8.61171 70.9792Z" fill="#757887"/>
<path d="M14.9458 76.2749V66.5553" stroke="#757887" stroke-width="1.40217" stroke-miterlimit="10"/>
<path d="M16.6159 68.0372H18.6766V76.2749H20.412V68.0372H22.4944V66.5553H16.6159V68.0372Z" fill="#757887"/>
<path d="M26.3124 70.6304C24.9241 69.933 24.4035 69.5843 24.4035 68.887C24.4035 68.2768 24.8374 67.9281 25.6183 67.9281C26.486 67.9281 26.9198 68.7126 26.9198 69.4972H28.6552C28.5684 67.8409 27.7875 66.4462 25.6183 66.4462C23.6226 66.4462 22.6682 67.4922 22.6682 68.9741C22.6682 70.3689 23.5359 71.1534 24.8374 71.9162C26.6595 72.9622 27.0933 73.2237 27.0933 73.8121C27.0933 74.5095 26.5727 74.9454 25.7051 74.9454C24.6638 74.9454 24.23 74.0736 24.23 73.2237H22.5814C22.6682 75.0325 23.4491 76.5144 25.7051 76.5144C27.3536 76.5144 28.8287 75.5556 28.8287 73.7467C28.8287 72.1777 27.8742 71.4803 26.3124 70.6086" fill="#757887"/>
<path d="M34.4034 73.2457C34.4034 74.2917 33.8828 74.8801 32.9501 74.8801C31.8004 74.8801 31.2798 74.2699 31.2798 73.2457V66.5553H29.5661V73.2457C29.5661 75.839 31.3882 76.4492 32.9501 76.4492C34.4034 76.4492 36.1388 75.7519 36.1388 73.2457V66.5553H34.4034V73.2457Z" fill="#757887"/>
<path d="M42.039 71.1536C42.4728 71.0665 43.4272 70.2819 43.4272 68.9744C43.4272 67.4053 42.2776 66.5336 40.4771 66.5336H37.2667V76.2532H40.8242C42.5596 76.2532 43.7743 75.1199 43.7743 73.5508C43.7743 71.9818 42.6463 71.3062 42.039 71.1318M40.3904 74.7712H39.0021V67.9937H40.3036C41.0845 67.9937 41.6919 68.3424 41.6919 69.2141C41.6919 70.0858 41.1713 70.4345 40.3036 70.4345H39.6095V71.9818H40.3036C41.3448 71.9818 41.9522 72.3305 41.9522 73.2893C41.9522 74.3354 41.3448 74.7712 40.3904 74.7712Z" fill="#757887"/>
<path d="M59.9999 70.369H56.5075V66.5553H54.707V76.2749H56.5075V72.0253H60.065V76.2749H61.8003V66.5553H59.9999V70.369Z" fill="#757887"/>
<path d="M45.5964 76.2749V66.5553" stroke="#757887" stroke-width="1.42766" stroke-miterlimit="10"/>
<path d="M64.3384 76.2749V66.5553" stroke="#757887" stroke-width="1.40217" stroke-miterlimit="10"/>
<path d="M51.3232 70.543C49.9132 69.7584 49.4143 69.4098 49.4143 68.7996C49.4143 68.1894 49.9349 67.8407 50.6073 67.8407C51.475 67.8407 51.9089 68.538 51.9956 69.4098H53.6442C53.5574 67.7535 52.7982 66.3588 50.6073 66.3588C48.6117 66.3588 47.6789 67.4048 47.6789 68.8867C47.6789 70.2597 48.5466 71.0442 49.8481 71.7634C51.6702 72.7876 52.1041 73.1363 52.1041 73.7465C52.1041 74.4439 51.6052 74.8797 50.7375 74.8797C49.6963 74.8797 49.2624 73.9209 49.2624 73.0491H47.6138C47.7006 74.9669 48.4815 76.3617 50.7375 76.3617C52.3861 76.3617 53.8611 75.4028 53.8611 73.6811C53.8611 72.0249 52.9067 71.4147 51.3449 70.543" fill="#757887"/>
</svg>
