<svg width="70" height="52" viewBox="0 0 70 52" fill="none" xmlns="http://www.w3.org/2000/svg">
<path d="M52.5671 5.75346C48.1813 1.01438 41.003 0 34.9764 0C28.9498 0 21.5033 1.01438 17.1806 6.0229C17.1017 6.118 17.0386 6.19725 16.9755 6.29235C14.8614 8.82831 13.552 12.4579 13.552 17.3238C13.552 32.3335 25.7314 34.7268 34.9764 34.7268C44.2214 34.7268 56.4797 32.3335 56.4797 17.3238C56.4797 12.4579 55.1702 8.82831 53.0562 6.29235C52.8984 6.118 52.7406 5.9278 52.5829 5.73761M21.03 8.68566C23.9171 4.23188 29.3915 3.13825 34.9922 3.13825C40.5928 3.13825 45.9568 4.16848 48.8912 8.54301C48.9385 8.63811 49.0174 8.74906 49.0647 8.84416C44.0794 11.7764 38.4156 11.8873 34.9922 19.2257C31.2689 12.0934 25.6525 12.0458 20.7303 9.2087C20.8249 9.03435 20.9196 8.86001 21.03 8.66981M34.9922 31.5568C26.7095 31.6361 18.916 29.2269 18.916 17.3079C18.916 16.4203 18.916 15.5327 19.058 14.772C19.1053 14.6135 19.1369 14.4391 19.1842 14.2806C21.9766 15.2158 24.7533 16.1667 27.5457 17.1177C30.8272 18.4966 33.0201 20.4145 34.9922 24.7256C36.98 20.4145 39.1098 18.2272 42.4544 16.8483C45.2626 15.8339 48.0708 14.8354 50.879 13.821C50.9106 13.8844 50.9106 13.9636 50.9263 14.0429C51.0683 14.9939 51.1314 16.1667 51.1314 17.3238C51.1314 29.2428 43.259 31.6361 34.9764 31.5727" fill="#757887"/>
<path d="M36.349 43.3014L40.7664 39.6243H31.4741V43.3014H36.349Z" fill="#757887"/>
<path d="M66.3241 39.6244H58.1204V42.9687H64.636C66.5292 42.9687 66.2294 44.205 66.2294 44.205H61.0074C60.3606 44.205 58.3254 44.1099 57.3315 45.6949V45.1084C57.3315 39.4818 53.1034 39.6244 53.1034 39.6244H42.0757L30.8429 48.532V43.0638C30.8429 39.4818 27.167 39.6244 27.167 39.6244H18.9633V42.9687H25.4789C27.3721 42.9687 27.1197 44.205 27.1197 44.205H21.8977C21.2508 44.205 19.263 44.1099 18.2691 45.6473V44.2525C18.2691 39.3233 13.8359 39.6244 13.8359 39.6244H0V51.9714H4.18075V43.3016H7.11517V51.9555H11.0908V43.3016H12.4318C14.3723 43.3016 14.1199 44.8865 14.1199 44.8865V51.9555H18.2533V50.3071C19.2472 51.9555 21.2351 51.9555 21.2351 51.9555H32.673L43.9531 42.8419V51.908H52.8037C54.4918 51.908 56.0852 51.0679 56.8267 48.7697C57.2684 51.908 60.4079 51.9555 60.4079 51.9555H70V43.048C70 39.4659 66.3241 39.6086 66.3241 39.6086M27.0408 48.5637H22.6707C22.6707 48.5637 21.7872 48.6112 21.7872 47.7236C21.7872 46.9787 22.4814 46.9311 22.7338 46.9311H27.0566V48.5795L27.0408 48.5637ZM51.6678 48.3101H47.9446V43.0797H51.7151C51.7151 43.0797 53.4979 43.2223 53.4979 45.5205C53.4979 47.8187 52.6617 48.3101 51.6678 48.3101ZM66.1348 48.5637H61.7647C61.7647 48.5637 60.8655 48.6112 60.8655 47.7236C60.8655 46.9787 61.6069 46.9311 61.8594 46.9311H66.1348V48.5795V48.5637Z" fill="#757887"/>
<path d="M33.9667 51.9713H43.259V48.3417H38.3841L33.9667 51.9713Z" fill="#757887"/>
</svg>
