<svg width="70" height="64" viewBox="0 0 70 64" fill="none" xmlns="http://www.w3.org/2000/svg">
<path fill-rule="evenodd" clip-rule="evenodd" d="M15.1251 20.5669C15.1251 20.8185 15.1251 21.07 15.1251 21.3215C15.1251 31.7501 23.5274 40.1858 33.8718 40.1858C42.4664 40.1858 49.6959 34.3814 51.9263 26.4487L21.8354 26.7583L29.0649 21.1474L15.1251 20.5476V20.5669ZM15.798 16.233L46.0812 15.9428L38.6978 21.5924L52.5992 22.1922C52.5992 21.902 52.6184 21.6117 52.6184 21.3215C52.6184 10.9123 44.2161 2.4572 33.8718 2.4572C25.2771 2.4572 18.0284 8.28095 15.8173 16.233H15.798ZM30.6031 55.7997C31.5837 55.7997 32.2951 55.2966 32.2951 54.0197C32.2951 52.7427 31.5837 52.2397 30.6031 52.2397H25.1618C25.1618 52.2397 24.9887 52.3171 24.9887 52.3944V55.6449C24.9887 55.6449 25.0656 55.819 25.1618 55.819H30.6031V55.7997ZM55.0988 49.5116C55.0988 49.3568 55.2334 49.2407 55.368 49.2407H59.8287C59.9825 49.2407 60.0979 49.3568 60.0979 49.5116V59.9015C60.0979 59.9015 60.1748 60.0756 60.2709 60.0756H69.7308C69.8846 60.0756 70 60.1917 70 60.3465V62.765C70 62.9198 69.8846 63.0359 69.7308 63.0359H55.2526C55.2526 63.0359 55.0795 62.9585 55.0795 62.8811V49.5116H55.0988ZM53.4645 49.2407C53.6183 49.2407 53.7336 49.3568 53.7336 49.5116V51.9301C53.7336 52.0849 53.599 52.201 53.4645 52.201H43.2163C43.2163 52.201 43.0624 52.2784 43.0624 52.3557V54.4647C43.0624 54.4647 43.1394 54.6388 43.2163 54.6388H51.1956C51.3495 54.6388 51.4648 54.7549 51.4648 54.9097V57.3282C51.4648 57.483 51.3495 57.5991 51.1956 57.5991H43.2163C43.2163 57.5991 43.0624 57.6765 43.0624 57.7732V59.8821C43.0624 59.8821 43.1394 60.0563 43.2163 60.0563H53.4645C53.6183 60.0563 53.7336 60.1724 53.7336 60.3271V62.7456C53.7336 62.9004 53.599 63.0165 53.4645 63.0165H38.2172C38.2172 63.0165 38.0441 62.9391 38.0441 62.8424V49.3568C38.0441 49.3568 38.121 49.1827 38.2172 49.1827H53.4645V49.2407ZM12.1064 59.8628C12.8755 59.7467 13.6446 59.2243 13.8753 58.2375C14.0099 57.7151 13.9907 54.6195 13.8753 54.0003C13.6254 53.0329 12.8563 52.5879 12.1064 52.4912C10.2413 52.2784 8.28014 52.2977 6.5689 52.4912C5.79981 52.5879 5.03072 53.0136 4.79999 54.0003C4.6654 54.6195 4.6654 57.7151 4.79999 58.2375C5.04995 59.2243 5.81904 59.7467 6.5689 59.8628C8.26091 60.0756 10.2413 60.0756 12.1064 59.8628ZM14.356 63.0165C10.722 63.4422 7.56872 63.4228 4.24238 63.0165C2.74265 62.7843 0.819911 61.9137 0.339227 59.9982C-0.141457 58.0828 -0.0837753 54.3292 0.339227 52.2203C0.819911 50.3049 2.74265 49.4149 4.24238 49.2407C7.56872 48.8344 10.7028 48.8151 14.356 49.2407C15.8557 49.4149 17.7785 50.3049 18.2591 52.2203C18.6821 54.3099 18.7398 58.0828 18.2591 59.9982C17.7785 61.9137 15.8557 62.7843 14.356 63.0165ZM32.5259 58.7793H25.1425C25.1425 58.7793 24.9695 58.8567 24.9695 58.9341V62.765C24.9695 62.9198 24.8541 63.0359 24.7003 63.0359H20.2396C20.0857 63.0359 19.9704 62.9198 19.9704 62.765V49.3955C19.9704 49.3955 20.0473 49.2214 20.1434 49.2214H32.5259C35.1215 49.2214 37.0058 50.6144 37.0058 53.981C37.0058 57.3475 35.1215 58.7599 32.5259 58.7599V58.7793ZM12.6832 20.4509L6.10744 20.1606V16.3104L13.2793 16.233C15.5289 6.90724 23.8928 0 33.8525 0C45.5428 0 55.0219 9.53858 55.0219 21.3022C55.0219 21.6311 55.0219 21.96 55.0027 22.2696L61.5399 22.5598V26.3327L54.4258 26.4101C52.1378 35.7164 43.7931 42.6043 33.8525 42.6043C22.1623 42.6043 12.664 33.0658 12.664 21.2828C12.664 20.9926 12.664 20.7024 12.664 20.4122L12.6832 20.4509Z" fill="#757887"/>
</svg>
