<svg width="70" height="44" viewBox="0 0 70 44" fill="none" xmlns="http://www.w3.org/2000/svg">
<path d="M45.0588 29.9496L47.9559 33.1771C47.7039 33.1771 47.47 33.1771 47.2181 33.1771C43.1874 33.1771 39.9124 34.7098 39.9124 38.0275C39.9124 40.6961 43.1874 42.8779 47.2181 42.8779C51.2488 42.8779 54.5238 40.6961 54.5238 38.0275C54.5238 35.3589 51.1948 32.0592 49.5034 29.9676H45.0588V29.9496ZM50.709 37.9193C50.709 39.3077 49.1435 40.4256 47.2361 40.4256C45.3287 40.4256 43.7452 39.3077 43.7452 37.9193C43.7452 36.5309 45.3107 35.413 47.2361 35.413C49.1615 35.413 50.709 36.5309 50.709 37.9193Z" fill="#757887"/>
<path d="M35.3239 38.6407C35.3239 41.2912 30.9873 41.2912 30.9873 38.6407V33.4297H27.2445V38.9833C27.2445 44.4106 38.9768 44.4647 38.9768 38.9833V33.4297H35.3239V38.6407Z" fill="#757887"/>
<path d="M57.403 42.8419V33.4297" stroke="#757887" stroke-width="4.74639" stroke-miterlimit="10"/>
<path d="M14.4505 30.2743L15.7461 31.861L8.5304 42.8419H12.867L14.0366 40.8946H22.278L23.5017 42.8419H28.0182L19.363 30.2923H14.4505V30.2743ZM15.5842 38.3342L18.0674 34.2231L20.6585 38.3342H15.5842Z" fill="#757887"/>
<path d="M57.7628 0.018031C54.8657 -0.0180311 52.1846 0.955646 50.0432 2.6145C47.9919 1.0458 45.4547 0.0901553 42.6836 0.0540931C39.7865 0.018031 37.0873 0.991708 34.964 2.63253C32.9127 1.06383 30.3755 0.108186 27.5864 0.0721242C24.7073 0.018031 22.0441 0.991708 19.9028 2.6145C17.8694 1.0458 15.3322 0.126217 12.5791 0.0721242C5.74128 -0.0180311 0.109056 5.49947 0.00109059 12.3332C-0.0888809 19.185 5.39939 24.8288 12.2372 24.9189C15.1163 24.955 17.7975 23.9993 19.9208 22.3585C21.9541 23.9272 24.5093 24.8648 27.2625 24.9009C30.1595 24.937 32.8407 23.9813 34.982 22.3225C37.0334 23.8912 39.5706 24.8648 42.3417 24.8829C45.2388 24.937 47.9199 23.9452 50.0612 22.3044C52.0946 23.8731 54.6498 24.8288 57.4209 24.8648C64.2587 24.955 69.891 19.4555 69.9989 12.6037C70.0889 5.75191 64.5826 0.108186 57.7628 0M57.4569 23.4404C54.5958 23.4043 52.0046 22.2684 50.0612 20.4472C47.9379 22.3765 45.3467 23.5125 42.3777 23.4584C39.5166 23.4223 36.9254 22.2864 35 20.4653C32.9307 22.3946 30.1235 23.5125 27.2804 23.4764C24.5453 23.4404 21.9002 22.3585 19.9208 20.5193C19.6149 20.8078 19.237 21.1144 18.8231 21.4029C16.9697 22.7552 14.7024 23.5305 12.2372 23.4945C7.75664 23.4404 3.90586 20.6636 2.26838 16.7509C1.83651 16.7148 1.45864 16.6427 1.13474 16.5345C0.666888 15.2182 0.414969 13.7938 0.432964 12.3152C0.522935 5.91419 5.6513 0.721242 11.9673 0.504869C12.1293 0.757304 12.3272 1.08186 12.4891 1.47855H12.5431C15.3682 1.53264 18.0674 2.65057 20.0827 4.63398L19.9928 3.08331C21.9361 1.53264 24.3654 0.595025 27.0105 0.504869C27.1005 0.649118 27.3524 0.991708 27.5684 1.47855C30.3395 1.51461 33.1646 2.74072 35.108 4.61595L35.018 3.1374C36.9614 1.55067 39.4086 0.576993 42.0718 0.504869C42.2517 0.757304 42.4317 1.08186 42.5936 1.46052H42.6476C45.4367 1.49658 48.2078 2.77678 50.2052 4.67004L50.0972 3.10134C52.0586 1.53264 54.5058 0.558963 57.151 0.450777C57.241 0.595025 57.6548 1.42445 57.7268 1.42445C63.6289 1.69492 68.3255 5.24704 68.5774 12.5857C68.7573 18.6441 63.485 23.5125 57.4389 23.4404" fill="#757887"/>
<path d="M16.1779 16.5526C15.6921 15.2363 15.4402 13.8119 15.4762 12.3333C15.5122 9.59261 16.4659 7.0863 18.0494 5.08485C18.6612 5.08485 19.273 5.04879 19.6328 5.04879C17.7434 3.20962 15.2242 2.14579 12.5611 2.10972C6.8389 2.0376 2.12439 6.63552 2.05241 12.3514C1.99843 17.346 5.47133 21.5652 10.1498 22.6291C10.3118 22.4307 10.4917 22.2144 10.6717 21.98C11.1935 22.0701 11.7513 22.1242 12.3092 22.1422C14.4865 22.1783 16.4838 21.4751 18.2113 20.1949L19.6508 20.2309C18.6792 19.2392 17.8874 18.0672 17.3296 16.7509C16.8977 16.7149 16.5378 16.6428 16.2139 16.5526M12.3092 21.6554C7.27076 21.5833 3.24004 17.4361 3.29402 12.3874C3.366 7.35676 7.52268 3.29977 12.5611 3.35387C14.4325 3.3719 16.16 3.96692 17.5995 4.95863C16.034 7.01417 15.0803 9.55655 15.0623 12.3333C15.0263 15.2183 15.98 17.9049 17.5995 20.0326C16.4839 20.7719 14.5944 21.6915 12.3092 21.6554Z" fill="#757887"/>
<path d="M21.5583 9.52012C21.7562 9.01525 22.1161 8.72675 22.1161 8.72675C21.7742 7.51867 20.8025 6.2565 19.9208 5.33691C18.1933 7.17608 17.1137 9.61027 17.0417 12.333C16.9877 14.1721 17.6895 17.0751 19.093 18.6979C19.3629 19.0045 19.5609 19.347 19.9388 19.6716L19.9748 18.3553C21.3063 16.7686 21.9901 14.7131 22.0261 12.6215C22.0261 11.5396 21.8822 10.4938 21.5583 9.52012ZM19.9208 17.6882C18.8771 16.1736 18.2653 14.3344 18.2833 12.369C18.3013 10.4758 18.8951 8.74478 19.9028 7.3023C20.9465 8.81691 21.5582 10.6561 21.5223 12.6395C21.5043 14.5147 20.9105 16.2637 19.9028 17.7062" fill="#757887"/>
<path d="M36.5835 9.52044C36.7814 8.99753 37.1413 8.72707 37.1413 8.72707C36.8534 7.6993 35.8098 6.20272 34.982 5.37329C33.2546 7.19443 32.1929 9.64665 32.1569 12.3513C32.1209 15.1822 33.2186 17.7606 35.036 19.6719L35.072 18.4458C36.1876 16.6427 37.0334 14.9117 37.0513 12.6398C37.0513 11.5579 36.9074 10.5121 36.5835 9.53847M34.982 17.6524C33.9563 16.1559 33.3625 14.3167 33.3985 12.3693C33.4345 10.5121 34.0103 8.78116 34.982 7.35671C35.9897 8.85329 36.5835 10.6925 36.5655 12.6218C36.5295 14.479 35.9537 16.21 34.982 17.6524Z" fill="#757887"/>
<path d="M46.3364 16.4984C45.8505 15.1821 45.6166 13.7576 45.6346 12.2791C45.6706 9.53837 46.6423 7.03205 48.2078 5.0306H49.7553C47.8299 3.20946 45.3647 2.10957 42.6476 2.07351C39.8404 2.03744 37.2672 3.11931 35.3778 4.92241C37.3392 6.97795 38.4369 9.77277 38.3829 12.6217C38.3469 15.3444 37.2672 18.0671 35.4138 20.0324C36.7274 21.2766 38.3829 22.1781 40.2183 22.5929C40.3803 22.3765 40.5602 22.1601 40.7402 21.9437C41.262 22.0339 41.8198 22.088 42.3776 22.106C44.7349 22.1421 46.7143 21.2766 48.3877 20.1406L49.7013 20.1046C48.7656 19.1309 47.9919 17.9769 47.452 16.6967C47.0202 16.6606 46.6603 16.5885 46.3364 16.4984ZM42.3956 21.6011C40.5062 21.5651 38.7608 20.9881 37.3032 19.9783C38.8508 17.9408 39.7864 15.3985 39.8224 12.6397C39.8764 9.75474 38.9047 7.10417 37.2853 4.95848C38.8148 3.89464 40.6502 3.28159 42.6476 3.29962C44.519 3.33568 46.2824 3.9307 47.7219 4.94044C46.1744 6.97795 45.2387 9.52033 45.2027 12.2791C45.1667 15.146 46.1205 17.8327 47.7399 19.9603C46.6243 20.6996 44.7169 21.6372 42.3956 21.6011Z" fill="#757887"/>
<path d="M67.3177 8.69098C66.49 5.75192 62.3333 2.05555 57.7268 2.05555C54.9197 2.01949 52.3645 3.11938 50.4571 4.90446C52.4184 6.96 53.5161 9.77284 53.4981 12.6217C53.4621 15.2723 52.3825 18.1212 50.4931 20.0325C51.8246 21.2586 53.4621 22.1602 55.2975 22.5749C55.4595 22.3766 55.6394 22.1602 55.8194 21.9258C56.3412 22.034 56.899 22.0881 57.4568 22.0881C62.7652 22.1602 67.1378 17.8868 67.2278 12.5857C67.2278 11.4858 67.0658 10.458 66.7419 9.48435C66.9398 8.97948 67.3177 8.69098 67.3177 8.69098ZM57.4749 21.6012C55.5855 21.5832 53.84 20.9882 52.4004 19.9784C53.966 17.9409 54.8837 15.3985 54.9196 12.6398C54.9556 9.75481 54.002 7.08621 52.3825 4.95855C53.894 3.89472 55.7294 3.28166 57.7268 3.29969C62.7472 3.37182 66.7959 7.53699 66.7419 12.5857C66.6699 17.6164 62.5133 21.6733 57.4749 21.6012Z" fill="#757887"/>
<path d="M51.6627 9.48415C51.8786 8.96124 52.2205 8.69078 52.2205 8.69078C51.8966 7.50073 50.9249 6.22052 50.0252 5.31897C48.3157 7.14011 47.2541 9.59233 47.2001 12.297C47.1641 15.1639 48.2798 17.7604 50.1332 19.6717V18.4095C51.4827 16.5884 52.0766 14.9836 52.1305 12.5855C52.1305 11.5036 51.9866 10.4578 51.6447 9.48415M50.0432 17.6162C48.9995 16.1196 48.4237 14.2804 48.4417 12.315C48.4597 10.4578 49.0535 8.72684 50.0252 7.30239C51.0689 8.79896 51.6627 10.6381 51.6447 12.5855C51.6087 14.4607 51.0329 16.1917 50.0432 17.6162Z" fill="#757887"/>
<path d="M31.2572 16.5346C30.7893 15.2183 30.5374 13.7939 30.5554 12.3153C30.5914 9.59265 31.5631 7.0683 33.1286 5.06685L34.6221 5.03079C32.6607 3.20966 30.3215 2.14582 27.5683 2.10976C24.7792 2.0737 22.242 3.15556 20.3526 4.94064C22.314 7.03224 23.4297 9.66478 23.3937 12.6579C23.3577 15.4347 22.242 18.1033 20.3526 20.1048C21.6662 21.3489 23.3757 22.2324 25.1571 22.6291C25.3191 22.4127 25.481 22.1964 25.6789 21.962C26.2008 22.0701 26.7586 22.1242 27.3164 22.1242C29.2598 22.1603 31.797 21.4932 33.2725 20.1408H34.6581C33.7044 19.1671 32.9306 17.9951 32.4088 16.7149C31.9769 16.6789 31.5991 16.6067 31.2752 16.5166M27.3164 21.6194C25.445 21.6013 23.7176 21.0243 22.278 20.0146C23.8435 17.9591 24.7972 15.4167 24.8332 12.6579C24.8692 9.75493 23.8975 7.08633 22.278 4.94064C23.7895 3.89484 25.625 3.29981 27.5683 3.31784C29.4577 3.3539 31.2032 3.94893 32.6607 4.95867C31.1132 6.99618 30.1775 9.53856 30.1415 12.2973C30.1055 15.1643 31.0412 17.8328 32.6607 19.9605C31.5451 20.6998 29.6377 21.6554 27.3164 21.6194Z" fill="#757887"/>
</svg>
