<svg width="70" height="50" viewBox="0 0 70 50" fill="none" xmlns="http://www.w3.org/2000/svg">
<path d="M54.4297 36.648C54.5293 36.7482 54.6787 36.8651 54.9609 36.8317C55.3593 36.7816 55.3759 36.1803 55.3759 36.1803C55.3759 36.1803 55.4755 34.7939 55.4755 33.4075C55.4755 31.6536 54.1143 30.1169 54.1143 30.1169C54.1143 30.1169 39.9716 14.4489 35.0083 14.4489C30.0451 14.4489 15.9189 30.1169 15.9189 30.1169C15.9189 30.1169 14.5578 31.6536 14.5578 33.4075C14.5578 34.7939 14.6574 36.1803 14.6574 36.1803C14.6574 36.1803 14.6574 36.7816 15.0724 36.8317C15.338 36.8651 15.4873 36.7482 15.6035 36.648C17.1805 35.2616 29.7961 24.3708 35.0249 24.3708C40.2538 24.3708 52.8694 35.2616 54.4629 36.648" fill="#757887"/>
<path d="M15.0392 22.3996C15.3047 22.433 15.4541 22.3161 15.5703 22.2158C17.1473 20.8294 29.7629 9.93867 34.9917 9.93867C40.2206 9.93867 52.8362 20.8461 54.4131 22.2158C54.5293 22.3161 54.6787 22.433 54.9443 22.3996C55.3427 22.3662 55.3593 21.7481 55.3593 21.7481C55.3593 21.7481 55.4589 20.3617 55.4589 18.9753C55.4589 17.2215 54.0977 15.6847 54.0977 15.6847C54.0977 15.6847 39.955 0 35.0083 0C30.0617 0 15.9189 15.6847 15.9189 15.6847C15.9189 15.6847 14.5578 17.2215 14.5578 18.9753C14.5578 20.3784 14.6574 21.7481 14.6574 21.7481C14.6574 21.7481 14.6574 22.3662 15.0724 22.3996" fill="#757887"/>
<path d="M45.4826 43.1624C43.7562 43.1123 42.0133 43.1624 41.9967 43.1624C39.8885 43.1624 38.1788 44.6156 38.1788 46.4196C38.1788 48.2236 39.8885 49.7269 41.9967 49.7269C42.0133 49.7269 43.7562 49.7603 45.4826 49.7269C47.5907 49.7269 49.3004 48.2403 49.3004 46.4196C49.3004 44.6323 47.6239 43.1958 45.4826 43.1624ZM44.304 48.8249C44.304 48.8249 43.6732 48.8416 43.1918 48.8249C41.9967 48.8249 40.6853 47.9062 40.6853 46.4196C40.6853 44.933 41.9635 44.0644 43.1918 44.0644C43.1918 44.0644 43.806 44.031 44.304 44.0644C45.5323 44.0644 46.8271 44.9497 46.8271 46.4196C46.8271 47.8895 45.5158 48.8249 44.304 48.8249Z" fill="#757887"/>
<path d="M66.2817 43.2458H60.8536C60.7707 43.2458 60.5549 43.2625 60.5549 43.4797V49.4095C60.5549 49.5765 60.6711 49.66 60.7873 49.66H63.0448V44.699C63.0448 44.4819 63.2108 44.365 63.3768 44.365H65.8833C66.5805 44.365 67.593 44.983 67.593 46.3527V49.3928C67.593 49.3928 67.593 49.6433 67.8586 49.6433H70V46.503C70 44.6656 68.3732 43.2291 66.2983 43.2291" fill="#757887"/>
<path d="M25.7292 43.2458H16.4169C16.2675 43.2458 16.1679 43.3628 16.1679 43.4964V44.5153H18.4088C19.2388 44.5153 19.8032 45.2336 19.8032 45.9184V49.4262C19.8032 49.5431 19.9028 49.6768 20.0522 49.6768H22.3097V44.8661C22.3097 44.6824 22.4591 44.532 22.6417 44.532H25.9782V43.5131C25.9782 43.3795 25.8786 43.2626 25.7292 43.2626" fill="#757887"/>
<path d="M14.5909 43.2458H12.5824C12.4496 43.2458 12.3334 43.3628 12.3334 43.4797V49.4095C12.3334 49.5598 12.4662 49.6601 12.5824 49.6601H14.8399V43.4964C14.8399 43.3628 14.7237 43.2626 14.5909 43.2626" fill="#757887"/>
<path d="M35.3071 47.3048C36.4193 47.0376 37.1496 46.2358 37.1496 45.3004C37.1496 44.2982 36.1869 43.2291 34.6265 43.2291H28.6175C27.8871 43.2291 27.3228 43.797 27.3228 44.532V49.3928C27.3228 49.5264 27.4223 49.6433 27.5551 49.6433H29.8127V47.3716H31.954C33.8464 47.3716 34.6265 48.758 34.6763 49.6433H37.1663C37.0999 47.973 35.3237 47.3048 35.3237 47.3048M33.7467 46.2358H29.8293V44.9496C29.8293 44.5988 30.0783 44.3483 30.4269 44.3483H33.7467C34.2447 44.3483 34.6763 44.7659 34.6763 45.2837C34.6763 45.8015 34.2613 46.2358 33.7302 46.2358" fill="#757887"/>
<path d="M5.02964 44.0474C5.16244 44.0474 5.66043 44.014 6.12521 44.0474C7.02158 44.0474 7.88475 44.5318 8.33293 45.2667C8.33293 45.3001 8.41593 45.3837 8.53213 45.3837H10.9723C10.4577 44.0474 8.91392 43.0953 7.30377 43.0953C6.424 43.0953 4.84705 43.0452 3.81788 43.0953C2.62272 43.1621 1.87574 43.4293 1.12876 44.0808C0.398388 44.7155 0 45.5507 0 46.436C0 48.2734 1.62674 49.7099 3.76808 49.7767C5.24543 49.8268 5.39483 49.8268 7.33697 49.7767C9.12971 49.7266 10.4079 48.9081 10.9557 47.4883H8.51553C8.43253 47.4883 8.34954 47.5384 8.31634 47.6053C7.86816 48.3736 7.03817 48.8246 6.1418 48.8413C5.82641 48.8413 5.39482 48.8413 5.01304 48.8413C3.75148 48.8246 2.48992 47.9393 2.48992 46.4193C2.48992 44.8993 3.76808 44.0307 5.01304 44.0307" fill="#757887"/>
<path d="M53.0021 48.1735V46.9541H58.0981V45.8183H52.9855V44.7158C52.9855 44.7158 52.9855 44.3818 53.3673 44.3818H59.2269V43.4798C59.2269 43.2125 58.9447 43.2292 58.9447 43.2292H50.7446C50.7446 43.2292 50.4956 43.2292 50.4956 43.4798V48.3405C50.4956 48.992 50.9935 49.6434 51.8069 49.6434H58.9779C59.1605 49.6434 59.2269 49.4597 59.2269 49.4096V48.5076H53.3341C53.1349 48.5076 53.0021 48.3739 53.0021 48.1735Z" fill="#757887"/>
<path d="M54.2969 40.9239C54.0479 40.7903 53.7657 40.7068 53.4337 40.7068C53.1017 40.7068 52.8029 40.7903 52.5705 40.9239C52.3382 41.0576 52.2054 41.2413 52.2054 41.4584C52.2054 41.6756 52.3216 41.8426 52.5705 41.993C52.8029 42.1433 53.1017 42.2101 53.4337 42.2101C53.7657 42.2101 54.0645 42.1433 54.2803 42.0097C54.4961 41.876 54.7285 41.6589 54.9775 41.6589C55.2265 41.6589 55.4423 41.8593 55.658 41.993C55.8738 42.1266 56.1892 42.2101 56.5212 42.2101C56.8698 42.2101 57.1686 42.1266 57.401 41.993C57.6334 41.8426 57.7496 41.6589 57.7496 41.4584C57.7496 41.258 57.6334 41.0743 57.3844 40.9239C57.152 40.7736 56.8532 40.7068 56.5212 40.7068C56.1892 40.7068 55.8738 40.7903 55.658 40.9239C55.4257 41.0576 55.2431 41.258 54.9775 41.258C54.7119 41.258 54.5459 41.0576 54.2969 40.9239Z" fill="#757887"/>
</svg>
