<svg width="70" height="54" viewBox="0 0 70 54" fill="none" xmlns="http://www.w3.org/2000/svg">
<path d="M42.4581 13.1598L43.2717 13.5843C43.4675 13.0233 43.8291 12.0075 44.1305 11.0372C43.9045 10.5066 43.6935 9.97593 43.4826 9.38464C43.3319 9.88497 43.1662 10.4156 43.0005 10.9159C42.7895 11.583 42.5937 12.235 42.5334 12.4624C42.4731 12.7201 42.2471 12.8869 41.9759 12.8869C41.8403 12.8869 41.6595 12.8414 41.4335 12.7504C41.2979 13.2963 41.1774 13.6904 41.0569 14.115C40.9514 14.4333 40.8459 14.7972 40.7103 15.2824C41.2979 16.1769 42.2622 17.6172 42.8498 18.4814C42.8498 18.4814 42.8649 18.4814 42.8799 18.4814C42.3677 17.7385 41.8554 16.9653 41.5239 16.4801C41.9307 14.964 42.1266 14.6001 42.4581 13.1446" fill="#757887"/>
<path d="M22.5247 32.0661C22.8712 32.1419 23.2178 32.2784 23.5794 32.43C23.1424 32.0206 22.6151 31.6719 22.0727 31.4293C22.2686 31.7022 22.5096 32.0509 22.5096 32.0509" fill="#757887"/>
<path d="M39.535 26.5171C39.535 26.5171 39.6405 26.5929 39.7158 26.6384C39.6857 26.6232 39.6104 26.5626 39.535 26.5171Z" fill="#757887"/>
<path d="M26.8037 16.8291L30.0882 16.7836L29.4253 15.9801L26.1106 16.0407C25.8544 16.6472 25.1764 17.4053 23.8204 17.4962C23.8958 17.4962 23.956 17.4962 24.0314 17.5114C24.182 17.7236 24.5738 18.2998 24.5738 18.2998C25.4928 18.4514 26.6078 17.7388 26.8037 16.8291Z" fill="#757887"/>
<path d="M23.037 16.647C22.7206 16.6925 22.2988 16.8289 22.1632 17.1776L21.9974 17.6325H21.9824C22.1782 17.8296 22.4042 18.0418 22.6905 18.1631C22.8562 17.8751 23.2178 17.5567 23.6849 17.496C23.6246 17.496 23.5945 17.496 23.5342 17.496H23.022V16.9805L23.0521 16.6318L23.037 16.647Z" fill="#757887"/>
<path d="M46.6466 9.09696C46.5411 8.86954 46.4206 8.64212 46.3452 8.38438C46.074 7.42922 46.285 6.12535 46.8877 5.07922C46.7822 5.01858 46.6767 5.00342 46.5712 5.00342C46.2247 5.00342 45.9234 5.3218 45.7727 5.57955C45.3659 6.30729 45.381 6.86825 45.8631 8.49051C46.1644 9.5518 46.9178 11.4166 47.3698 12.5386L47.4753 12.7811C48.0026 14.1153 48.2286 14.6611 48.545 16.2834C48.8162 17.5873 48.334 18.9063 47.7615 19.5886C46.7972 20.756 45.3207 21.1653 44.4468 21.3169C44.9139 22.3479 45.2002 23.0453 45.3358 23.4698C45.4563 23.8337 45.6672 24.0915 45.9686 24.2582C45.7275 23.6215 45.4111 22.8482 45.17 22.2873C45.17 22.2873 47.3246 22.0295 48.6203 20.4679C49.1025 19.8766 49.6147 18.9063 49.5997 17.754C49.5695 15.1311 47.5054 11.2802 46.9931 9.96115C46.9027 9.7489 46.7822 9.44567 46.6616 9.09696" fill="#757887"/>
<path d="M24.9504 10.3099C24.7395 10.037 24.5135 9.73374 24.2573 9.38503C24.0012 9.46084 23.6697 9.49116 23.2629 9.49116C22.8863 9.49116 22.3589 9.46084 21.8918 9.36987L22.374 10.0521C23.2479 10.3857 23.8957 10.4615 24.9504 10.3099Z" fill="#757887"/>
<path d="M32.7551 4.50279C32.9057 4.53311 33.0564 4.53311 33.1769 4.53311C33.4029 4.53311 33.5837 4.50279 33.7495 4.4573C33.4783 4.16924 33.1317 4.13892 32.9509 4.13892C32.6195 4.13892 32.3181 4.26021 32.1223 4.47246C32.3332 4.47246 32.5592 4.48763 32.74 4.51795" fill="#757887"/>
<path d="M48.9367 34.5679C49.2229 34.6286 49.3887 34.1586 49.2983 33.7947C49.1325 33.1579 48.7408 32.2634 48.7107 31.8692V26.5931C48.3641 26.1837 47.8971 25.456 47.882 25.4257V30.8079C47.8368 31.2476 48.0628 31.8237 48.1833 32.0057C48.4244 32.3544 48.4093 32.8395 48.2436 33.1276C48.1231 33.355 47.9121 33.5066 47.6861 33.5066H47.5807C47.2944 33.446 47.0383 33.4005 46.8123 33.3702C46.0137 33.2186 45.4412 33.1124 44.8687 33.1124C44.1304 33.1124 43.3921 33.2944 42.3073 33.7492L42.0813 33.8402L41.8704 33.7037L41.8252 33.6734C41.343 33.3702 40.4692 32.8395 39.4296 32.7031C39.8062 33.2034 40.0925 33.5976 40.0925 33.5976C41.569 33.5976 42.6689 34.3556 43.2414 34.7195C45.6371 33.7037 46.5863 34.1282 48.9668 34.5527" fill="#757887"/>
<path d="M20.8373 8.36905L20.9428 8.27808L21.2743 8.00518C20.9277 7.65647 20.6565 7.59583 20.4607 7.59583C20.4155 7.59583 20.3552 7.59583 20.31 7.61099C20.31 7.65647 20.2949 7.70195 20.2949 7.70195C20.2949 7.70195 20.5661 8.06582 20.7771 8.38421C20.7921 8.38421 20.8223 8.38421 20.8373 8.36905Z" fill="#757887"/>
<path d="M31.6852 8.12646C31.6852 8.12646 31.6852 8.12647 31.6852 8.14163C31.6852 8.14163 31.7003 8.17195 31.7304 8.20227C31.7304 8.17195 31.7455 8.15679 31.7606 8.12646H31.6852Z" fill="#757887"/>
<path d="M51.2569 12.69C51.6637 12.3716 50.6543 10.7342 50.6844 10.4006C50.7145 10.0974 50.7146 9.82451 50.82 9.49096C50.9255 9.12709 51.0912 8.59645 51.2117 8.05064C51.4076 6.98935 50.9406 5.67032 50.1722 4.74548C50.3831 5.32161 50.4584 5.97355 50.3981 6.6558C50.3379 7.14096 50.1872 7.58064 50.0817 7.94451C50.0516 8.03548 50.0215 8.11129 49.9913 8.18709C49.9009 8.47516 49.8256 8.71774 49.8105 8.97548C49.8105 9.09677 49.9763 9.46064 50.0817 9.68806C50.4132 10.4461 50.7748 11.2193 50.2173 11.6439C50.142 11.6893 50.0215 11.7652 49.8407 11.7652C49.7352 11.7652 49.5996 11.7348 49.4941 11.6893C49.8105 11.9471 50.0817 12.1442 50.2475 12.2503C50.2475 12.2503 51.1063 12.8113 51.272 12.6748" fill="#757887"/>
<path d="M43.3018 4.7607C43.121 4.42715 42.9402 4.10877 42.7594 3.80554C42.9402 4.16941 43.1059 4.51812 43.2717 4.86683C43.2717 4.82135 43.3018 4.79102 43.3169 4.7607" fill="#757887"/>
<path d="M37.5915 25.1222C37.5915 25.1222 39.0228 26.1684 39.731 26.6384C40.861 27.3813 41.3732 27.73 42.4882 28.2909C42.6388 28.2303 42.8046 28.1848 42.9552 28.1696C42.9552 28.0332 42.9251 27.8058 42.8046 27.6238C42.669 27.4267 42.458 27.3206 42.1567 27.3206C42.0362 27.3206 41.9156 27.3358 41.78 27.3661H41.7198L41.3582 27.4116H41.2075L41.0869 27.3509C41.0869 27.3509 39.2488 26.32 37.8928 25.3193C37.5764 25.0919 37.26 24.8493 36.9888 24.6371C36.808 24.5158 36.6423 24.3793 36.5067 24.2732C33.9303 26.6687 30.8566 29.8677 30.6306 30.4287C30.3594 31.0806 30.5101 31.4293 30.6306 31.6871C30.8114 32.0964 30.7813 32.5664 30.5855 32.8696C30.4649 33.0667 30.254 33.188 30.028 33.188C29.9526 33.188 29.8924 33.188 29.817 33.1577C29.5157 33.0516 27.9186 32.5512 26.3668 32.5512C25.6134 32.5512 25.0108 32.6725 24.619 32.9303L24.5135 33.0061C24.8601 33.2487 25.1614 33.5519 25.4326 33.9158C26.8188 33.0061 29.9376 33.84 31.0977 34.219C31.4141 34.3554 31.6853 34.1129 31.6552 33.658C31.6251 33.1577 31.1278 32.43 31.399 31.6112C31.8962 30.1406 35.5876 27.078 37.6065 25.1525" fill="#757887"/>
<path d="M19.8127 7.20161C19.9785 7.17128 20.1894 7.11064 20.4154 7.11064C20.4305 7.11064 20.4606 7.11064 20.4757 7.11064C20.9126 7.11064 21.4399 7.29257 21.9823 8.09612L21.681 8.3387L21.2591 8.67225C21.3797 8.76322 21.7111 8.85418 22.133 8.91483C22.4946 8.97547 22.8863 9.0058 23.263 9.0058C23.7602 9.0058 24.1971 8.94515 24.4382 8.8087C24.4382 8.8087 24.9354 9.4758 25.5079 10.2339C26.2613 11.2042 27.1201 12.3261 27.2858 12.4171C27.4365 12.5081 26.2462 12.5687 24.9053 12.6597C23.7602 12.6748 22.6905 12.69 21.8317 12.7203C21.0783 12.7203 20.5209 13.3116 20.3401 13.8119C20.1593 14.3122 19.9483 15.3584 20.0387 15.8132L20.4757 15.6768C20.5661 15.8435 20.6414 15.9648 20.7017 16.0861C21.0331 16.6319 21.1537 16.8139 21.7262 17.0261C22.0426 16.2226 23.0822 16.1468 23.4287 16.1468C23.5191 16.1468 23.5493 16.1468 23.5493 16.1468V17.0413C25.5531 17.0413 25.734 15.5706 25.734 15.5706L29.6664 15.51L30.7361 16.8139L32.1524 18.5422C30.1184 20.68 28.7021 23.3029 27.1653 26.1229C27.9036 26.79 27.6474 28.1696 26.427 28.3061C26.3818 28.3061 26.3366 28.3061 26.2914 28.3061C25.6134 28.3061 24.8751 27.8209 24.0314 27.8209C23.8807 27.8209 23.7301 27.8361 23.5643 27.8664C22.2083 28.1696 22.4795 29.2613 21.4098 30.7016C21.6509 30.7622 21.8769 30.838 22.1179 30.929C22.9466 31.2777 23.7602 31.8538 24.3478 32.5209C24.8751 32.1874 25.5984 32.0661 26.3668 32.0661C27.7228 32.0661 29.2294 32.4451 29.9677 32.7029C29.9978 32.7029 30.0129 32.7029 30.028 32.7029C30.2389 32.7029 30.3142 32.2632 30.1636 31.8993C30.028 31.5658 29.8472 31.0655 30.1937 30.2467C30.5101 29.5038 34.0056 25.9258 36.4916 23.6516C36.4916 23.6516 36.5217 23.6667 36.582 23.7122C36.7929 23.8638 37.5011 24.3945 38.2243 24.9403C39.5652 25.9409 41.3431 26.9567 41.3431 26.9567L41.7951 26.9113C41.9759 26.8658 42.1416 26.8506 42.2923 26.8506C42.3827 26.8506 42.4731 26.8658 42.5484 26.8809C42.5785 26.8809 42.6087 26.9113 42.6539 26.9113C42.7141 26.9264 42.7895 26.9719 42.8498 27.0022C42.895 27.0326 42.9401 27.0629 42.9853 27.1084C43.0004 27.1084 43.0004 27.1235 43.0155 27.1235C43.3168 27.4116 43.4374 27.8361 43.4374 28.1545C43.4374 28.2758 43.4223 28.3971 43.3922 28.488C43.347 28.6093 43.2867 28.7155 43.2114 28.7913C43.1963 28.8064 43.1662 28.8216 43.1511 28.8519C43.0758 28.9126 43.0155 28.9732 42.9402 29.0187C42.91 29.0338 42.8799 29.049 42.8498 29.0642C42.7744 29.1096 42.684 29.14 42.5786 29.1703C42.458 29.1855 42.3073 29.2006 42.1717 29.1855C41.5088 29.14 40.8007 28.8216 39.9268 29.3371C39.0529 29.8222 39.4145 31.49 38.8872 32.1874C39.2337 32.1874 39.5803 32.2329 39.8967 32.3087C40.8911 32.5361 41.6896 33.0364 42.1265 33.3093C44.5222 32.2935 45.2454 32.6119 47.6862 33.0364C47.867 33.0667 47.9724 32.5816 47.7916 32.248C47.641 31.9751 47.3547 31.3232 47.3999 30.8077V24.9251C46.9178 24.9706 46.511 24.9555 46.1795 24.8645C45.8631 24.7887 45.5919 24.6522 45.381 24.4703C45.3056 24.3945 45.2303 24.3187 45.17 24.2277C45.0344 24.0306 44.944 23.8335 44.8838 23.6364C44.6879 22.9997 44.1154 21.7413 43.7387 20.9226C43.7387 20.9226 45.3358 20.8771 46.6466 19.9977C46.9328 19.8006 47.204 19.5732 47.43 19.2851C47.5958 19.088 47.7464 18.8455 47.867 18.5574C48.108 17.9964 48.2587 17.2839 48.1382 16.4197C47.9423 14.9793 47.415 13.7664 47.1136 12.9629C46.6918 11.8258 45.8028 9.86999 45.4714 8.70257C45.2303 7.8687 45.0646 7.27741 45.0344 6.77709C45.0344 6.6558 45.0344 6.53451 45.0344 6.41322C45.0646 6.04935 45.155 5.7158 45.381 5.35193C45.607 4.91225 46.1042 4.48774 46.6918 4.53322C46.8274 4.53322 46.9931 4.5787 47.1438 4.65451C47.6711 4.89709 47.5506 5.0487 47.4903 5.13967C47.3095 5.41258 47.1739 5.70064 47.0684 6.00386C46.7671 6.79225 46.6767 7.62612 46.8726 8.27806C47.0986 9.03612 47.6259 9.70322 48.108 10.1884C48.4244 10.4916 48.7107 10.7342 48.9216 10.8555C48.9216 10.8555 49.7955 11.4164 49.9612 11.2951C50.368 10.9768 49.3134 9.4758 49.3435 8.99064C49.3586 8.67225 49.449 8.39935 49.5544 8.08096C49.6599 7.71709 49.8859 7.17128 49.9462 6.62548C50.0667 5.56419 49.7352 4.56354 49.0874 3.88129C48.6655 3.44161 48.108 3.13838 47.4451 3.04742C47.0082 2.98677 45.2303 2.71387 43.9948 4.5787C43.8893 4.74548 43.7538 5.03354 43.6332 5.35193C43.5278 5.7158 43.4373 6.12515 43.4524 6.53451C42.8497 5.07903 42.1115 3.41129 41.2979 2.18322C41.1924 2.04677 40.876 1.66774 40.5747 1.33419C40.3185 1.06129 40.0775 0.818709 39.9569 0.788386C38.9324 0.515483 36.9285 0.0303225 36.3711 0C36.3711 0 36.356 0 36.3409 0C35.8889 0.0454838 32.5742 1.24322 32.4537 1.39484L32.062 1.80419C31.2785 2.00129 29.6513 2.25903 29.5157 2.41064C29.1692 2.83516 29.4102 3.24451 29.5157 3.41129C29.5609 3.47193 29.817 4.39677 30.2841 4.39677H31.5497C31.836 3.91161 32.3784 3.63871 32.9509 3.63871C33.5687 3.63871 34.1864 3.97225 34.4576 4.7C34.3973 4.73032 34.3371 4.76064 34.2768 4.7758C33.9604 4.91225 33.659 5.03354 33.1769 5.03354C33.0413 5.03354 32.9057 5.03354 32.755 5.00322C32.74 5.00322 32.7098 5.00322 32.6948 5.00322C32.514 4.9729 32.3181 4.95774 32.1373 4.95774C31.5798 4.95774 31.0676 5.06387 30.7662 5.18516C30.5704 5.26096 30.4498 5.32161 30.4498 5.38225C30.4649 5.63999 31.7757 5.7158 32.1222 5.7158C32.514 5.7158 33.0262 5.76128 33.5686 5.76128C33.8248 5.76128 34.0809 5.76128 34.322 5.73096C34.2617 5.82193 34.1864 5.89774 34.111 5.97354C33.7042 6.33741 33.1317 6.47386 32.7098 6.47386H30.6909C30.7964 6.89838 30.9621 7.29257 31.2032 7.62612H32.0318C32.4085 7.65644 32.4386 7.74741 32.3934 7.91419C32.3784 8.00515 32.3332 8.09612 32.303 8.20225C32.2578 8.3387 32.1976 8.49031 32.1222 8.65709C31.8962 9.21805 31.5648 9.86999 31.0977 10.2945C29.0637 8.50548 26.3216 6.26161 24.393 4.83645C24.0163 4.56354 22.9165 4.35129 21.8769 4.35129C21.3043 4.35129 20.7469 4.41193 20.3401 4.56354C20.0086 4.68483 19.7977 4.9729 19.6771 5.18516L20.2497 5.35193C19.195 5.9887 19.8579 7.18644 19.8579 7.18644M42.7744 18.9516C42.7744 18.9516 42.6539 18.9364 42.5936 18.9061C41.9457 17.9661 40.8007 16.2529 40.2281 15.3584C40.6349 13.8422 40.8308 13.4632 41.1623 12.0229C41.1623 12.0229 41.7951 12.3716 42.0211 12.3716C42.0211 12.3716 42.0512 12.3716 42.0663 12.3716C42.0663 12.3716 42.0813 12.3716 42.0813 12.3413C42.232 11.7045 43.2716 8.67225 43.4524 7.70193C43.4524 7.70193 43.6031 8.12644 43.814 8.76322C43.9948 9.30902 44.1907 9.80934 44.4016 10.2793C44.703 11.0222 45.0194 11.7348 45.3056 12.4474C45.9384 14.0697 46.1644 14.7671 46.3754 15.8587C46.5411 16.7229 46.4507 17.5264 46.1192 17.9813C45.9384 18.2087 45.6522 18.5119 45.2002 18.7242C45.1851 18.7242 45.17 18.7242 45.155 18.7393C45.0495 18.7848 44.944 18.8303 44.8235 18.8758C44.7934 18.8758 44.7783 18.8909 44.7482 18.9061C44.6879 18.9364 44.6276 18.9364 44.5523 18.9516C44.5071 18.9516 44.477 18.9668 44.4318 18.9819C44.3112 18.9971 44.1907 19.0122 44.0852 19.0274C44.025 19.0274 43.9798 19.0274 43.9044 19.0274C43.8291 19.0274 43.7688 19.0274 43.6935 19.0274C43.573 19.0274 43.4524 19.0274 43.3319 18.9971C43.2415 18.9971 43.1661 18.9819 43.0908 18.9668C43.0004 18.9668 42.91 18.9364 42.8045 18.9213M33.3728 2.39548C33.2974 2.13774 33.2824 1.91032 33.3426 1.59193C33.8398 1.51613 34.548 1.41 35.015 1.41C35.0753 1.41 35.1356 1.42516 35.1657 1.45548C35.3164 1.56161 35.3465 1.81935 35.1205 1.92548C34.7288 2.10742 34.0056 2.35 33.418 2.54709C33.3878 2.48645 33.3878 2.44097 33.3577 2.39548" fill="#757887"/>
<path d="M55.6264 42.8308C52.4925 42.9066 50.4284 45.0746 50.4887 48.1979C50.564 51.3514 52.5528 53.2162 55.7168 53.1404C58.926 53.0646 60.8847 50.9572 60.8847 47.6369C60.8847 44.6956 58.7452 42.7398 55.6113 42.8156M55.7469 51.9427C54.1047 51.9427 53.1103 50.5933 53.05 48.213C52.9897 45.6204 53.9389 44.0437 55.7017 44.0285C57.4495 44.0285 58.2781 45.6659 58.3233 47.9856C58.3535 49.4108 57.9165 51.9275 55.7469 51.9275" fill="#757887"/>
<path d="M37.4257 51.7002C37.4257 51.7002 37.3956 51.7305 37.3353 51.7608C37.0189 51.9124 36.371 51.9882 35.7081 51.8821C34.0357 51.6547 32.9207 50.1082 32.9207 48.0614C32.9207 45.6205 35.0602 44.3015 36.4916 44.2408C37.9229 44.1802 38.8721 44.4834 39.3241 44.6198L39.7008 43.4676C38.6913 42.9976 37.4106 42.8308 36.2957 42.8308C31.7154 42.8308 30.2087 45.9237 30.2087 48.016C30.2087 50.7298 32.0017 53.1405 35.8286 53.1405C38.4653 53.1405 39.972 52.2308 39.972 52.2308V48.0766H37.4408V51.685L37.4257 51.7002Z" fill="#757887"/>
<path d="M39.2337 44.5894C39.0529 44.5439 39.1433 44.5591 39.2337 44.5894V44.5894Z" fill="#757887"/>
<path d="M61.1559 44.5136H64.2446V52.7159H66.821V44.5136H70.0001V43.1946H61.1559V44.5136Z" fill="#757887"/>
<path d="M8.04563 43.5585C7.35256 43.2552 6.91562 43.1946 5.01722 43.1946H0V52.7159H2.69694V49.1984H5.24322C7.59363 49.1984 9.56737 48.6981 9.56737 45.9539C9.56737 45.0291 8.9195 43.9223 8.06069 43.5585M4.62548 48.1372H2.69694V44.3923H4.74602C5.92122 44.3923 6.84029 45.2262 6.84029 46.2572C6.84029 47.2881 5.93629 48.1372 4.62548 48.1372Z" fill="#757887"/>
<path d="M26.2915 49.7137C26.2915 51.0176 25.4478 51.8514 24.2726 51.8514C23.0973 51.8514 22.2235 51.0631 22.2235 49.6076V43.1792H19.7073V48.9253C19.7073 50.5324 20.0991 51.2753 20.6415 51.8363C21.5455 52.746 22.5549 53.1402 24.2726 53.1402C25.9902 53.1402 26.9996 52.6853 27.9036 51.7605C28.4611 51.2147 28.7926 50.5476 28.7926 48.986V43.1792H26.2764V49.7137H26.2915Z" fill="#757887"/>
<path d="M10.6672 52.7159H17.9445V51.1846H13.2286V48.0917H17.0555V46.9243H13.2286V44.5439H17.9445V43.1946H10.6672V52.7159Z" fill="#757887"/>
<path d="M42.1266 52.7159H49.4038V51.2149H44.6879V48.122H48.4998V46.9697H44.6879V44.5743H49.4038V43.1946H42.1266V52.7159Z" fill="#757887"/>
</svg>
