<svg width="70" height="58" viewBox="0 0 70 58" fill="none" xmlns="http://www.w3.org/2000/svg">
<path d="M18.242 53.7971C18.0552 53.277 17.4533 51.5087 17.0798 50.4894C16.6855 49.4492 16.0837 47.5561 15.9799 47.2233C15.8761 46.8904 15.8554 46.7448 15.5026 46.7032C15.1498 46.6616 14.2366 46.5992 13.7801 46.6408C13.697 46.6408 13.5518 46.6408 13.4895 46.8904C13.4273 47.1193 12.7217 49.2412 12.4311 50.1357C12.1198 51.0095 11.2689 53.5475 11.1444 53.9011C11.0199 54.2548 10.252 56.5431 10.1275 56.9384C10.003 57.3336 9.98225 57.4585 10.2313 57.4585C10.4803 57.4585 10.6671 57.4585 10.9161 57.4585C11.1652 57.4585 11.2897 57.4584 11.3727 57.2712C11.4765 57.0424 12.2858 54.6292 12.2858 54.6292H14.1329C14.9215 54.6292 16.0214 54.6292 16.0214 54.6292C16.0214 54.6292 16.1667 54.8789 16.478 55.919C16.81 56.9592 16.9138 57.5001 17.3911 57.5001H19.0721C19.3004 57.5001 19.3834 57.4168 19.3834 57.2296C19.3834 57.0424 19.1966 56.6263 19.1966 56.6263C19.1966 56.6263 18.408 54.338 18.242 53.8179M14.1744 53.5058C13.2612 53.5058 12.6594 53.485 12.6594 53.485C12.6594 53.485 12.7839 53.0274 13.365 51.2591C13.9461 49.4908 14.1329 48.9708 14.1329 48.9708C14.1329 48.9708 14.3611 49.574 14.963 51.4047C15.5441 53.2354 15.6271 53.5058 15.6271 53.5058C15.6271 53.5058 15.0875 53.5058 14.1744 53.5058Z" fill="#757887"/>
<path d="M44.8059 53.7971C44.6398 53.277 44.0173 51.5087 43.6437 50.4894C43.2701 49.4492 42.6475 47.5561 42.5645 47.2233C42.4608 46.8904 42.44 46.7448 42.0872 46.7032C41.7344 46.6616 40.842 46.5992 40.3647 46.6408C40.2817 46.6408 40.1572 46.6408 40.0742 46.8904C39.9912 47.1193 39.3063 49.2412 39.0157 50.1357C38.7252 51.0095 37.8328 53.5475 37.7498 53.9011C37.6253 54.2548 36.8574 56.5431 36.7329 56.9384C36.6084 57.3336 36.5877 57.4585 36.8367 57.4585C37.0857 57.4585 37.2725 57.4585 37.5216 57.4585C37.7706 57.4585 37.8951 57.4584 37.9781 57.2712C38.0819 57.0424 38.8912 54.6292 38.8912 54.6292H40.7175C41.5269 54.6292 42.606 54.6292 42.606 54.6292C42.606 54.6292 42.7513 54.8789 43.0626 55.919C43.3947 56.9592 43.4776 57.5001 43.9757 57.5001H45.6567C45.885 57.5001 45.968 57.4168 45.968 57.2296C45.968 57.0424 45.7813 56.6263 45.7813 56.6263C45.7813 56.6263 44.9926 54.338 44.8266 53.8179M40.759 53.5058C39.8459 53.5058 39.244 53.485 39.244 53.485C39.244 53.485 39.3686 53.0274 39.9497 51.2591C40.5307 49.4908 40.7175 48.9708 40.7175 48.9708C40.7175 48.9708 40.9665 49.574 41.5476 51.4047C42.1287 53.2354 42.2117 53.5058 42.2117 53.5058C42.2117 53.5058 41.6722 53.5058 40.759 53.5058Z" fill="#757887"/>
<path d="M23.5963 46.9733C23.5963 46.6612 23.0775 46.6821 22.7869 46.6821C22.4964 46.6821 22.0813 46.6821 21.687 46.6821C21.2927 46.6821 21.1682 46.8693 21.1682 47.3061C21.1682 47.743 21.1889 49.7609 21.1889 50.6347C21.1889 51.5084 21.2304 56.3763 21.2304 56.9172C21.2304 57.4581 21.4795 57.4997 21.8738 57.5205C22.2681 57.5205 22.8492 57.4997 23.2435 57.4997C23.6378 57.4997 23.6793 57.2917 23.6793 56.7924C23.6793 56.2931 23.6378 52.6734 23.6378 51.9036C23.6378 51.1339 23.5963 47.3061 23.5963 46.9941" fill="#757887"/>
<path d="M34.5331 46.6821C34.1388 46.6821 33.7652 46.6821 33.4746 46.6821C33.1841 46.6821 32.7068 46.6821 32.7068 46.9734C32.7068 47.223 32.686 49.9274 32.686 51.2588C32.686 51.2588 31.9389 51.2588 30.7975 51.2588C29.6561 51.2588 29.1165 51.2588 29.1165 51.2588C29.1165 49.9066 29.075 47.223 29.075 46.9734C29.075 46.6821 28.5769 46.6821 28.3071 46.6821C28.0374 46.6821 27.643 46.6821 27.2487 46.6821C26.8544 46.6821 26.7507 46.8694 26.7507 47.3062C26.7507 47.7431 26.7714 49.761 26.7714 50.6347C26.7714 51.5085 26.7922 56.3764 26.7922 56.9173C26.7922 57.4582 27.0412 57.5206 27.4148 57.5206C27.7883 57.5206 28.3486 57.4998 28.7222 57.4998C29.0958 57.4998 29.1373 57.2917 29.1373 56.7925C29.1373 56.3764 29.1373 53.776 29.1373 52.4654C29.1373 52.4654 30.2994 52.4654 30.7975 52.4654C31.2956 52.4654 32.686 52.4654 32.686 52.4654C32.686 53.7552 32.686 56.3764 32.686 56.7925C32.686 57.2917 32.7275 57.4998 33.1011 57.4998C33.4747 57.4998 34.035 57.5206 34.4085 57.5206C34.7821 57.5206 35.0311 57.479 35.0311 56.9173C35.0311 56.3556 35.0311 51.4877 35.0311 50.6347C35.0311 49.7818 35.0726 47.7639 35.0726 47.3062C35.0726 46.8486 34.9689 46.6821 34.5745 46.6821" fill="#757887"/>
<path d="M53.19 46.8279C52.8787 46.8279 50.8242 46.7655 50.3676 46.7655C49.9318 46.7655 48.2301 46.7655 47.898 46.7655C47.566 46.7655 45.5114 46.8071 45.3454 46.8071C45.2001 46.8071 45.1171 46.9943 45.1171 47.3688C45.1171 47.7433 45.1586 47.9929 45.3662 47.9929C45.5737 47.9929 47.1716 47.9929 47.6075 47.9929C47.8357 47.9929 47.9188 47.9929 47.981 47.9929C48.0433 47.9929 48.1263 47.9929 48.1263 48.0553C48.1263 48.1177 48.1678 49.6363 48.1678 50.2188C48.1678 50.8013 48.1471 52.3408 48.1471 52.9648C48.1471 53.5889 48.1886 55.6069 48.1886 55.8773C48.1886 56.1477 48.1886 56.751 48.2093 57.0839C48.2093 57.4167 48.2093 57.4999 48.3546 57.5207C48.5206 57.5624 49.1224 57.6248 49.5582 57.6456C49.9941 57.6456 50.5544 57.7496 50.5544 57.1255C50.5544 56.5014 50.5544 54.4211 50.5544 54.2338C50.5544 54.0466 50.5544 51.9247 50.5544 51.7375V48.1385C50.5544 48.1385 50.5752 48.0137 50.6997 48.0137C50.8242 48.0137 52.0071 48.0345 52.4637 48.0345H53.2108C53.3146 48.0345 53.4598 48.0761 53.4598 47.8889C53.4806 47.7016 53.5013 47.348 53.5221 47.1608C53.5221 46.9735 53.5221 46.8487 53.2108 46.8279" fill="#757887"/>
<path d="M55.805 48.9706C55.805 48.3465 56.2616 47.8265 57.32 47.8265C58.9387 47.8265 59.3745 48.5546 59.6858 48.5546C59.7688 48.5546 59.8518 48.4714 59.8518 48.3673V47.5768C59.8518 47.4104 59.8103 47.3272 59.5198 47.1816C59.2292 47.0359 58.3784 46.7655 57.2162 46.7655C55.7842 46.7655 54.0202 47.2024 54.0202 49.5739C54.0202 52.8192 58.5029 53.2977 58.5029 55.5861C58.5029 56.0021 58.3161 56.6678 57.1747 56.6678C55.1616 56.6678 54.6843 55.9813 54.2485 55.9813C54.1032 55.9813 54.0825 56.2309 54.0825 56.4598V56.8967C54.0825 57.0423 54.0825 57.2087 54.3523 57.2919C54.622 57.3751 55.971 57.7496 56.9879 57.7496C58.5029 57.7496 60.4537 57.1463 60.4537 54.8787C60.4537 51.6334 55.805 50.8221 55.805 48.9706Z" fill="#757887"/>
<path d="M69.5642 46.9737C69.3359 46.9737 68.9624 46.9737 68.8171 46.9737C68.6718 46.9737 68.6303 47.0777 68.6303 47.2857C68.6303 47.4937 68.6303 48.5755 68.6303 49.262C68.6303 50.5726 68.6718 53.7763 68.6718 54.6084C68.6718 56.772 67.0531 56.772 66.6173 56.772C64.3759 56.772 64.5627 54.7333 64.5627 53.6307C64.5627 53.0274 64.5627 51.6752 64.5627 51.2799C64.5627 50.8847 64.5627 48.6587 64.5627 47.8058C64.5627 46.9529 64.3344 46.9113 64.1269 46.9113C63.8986 46.9113 63.6703 46.9113 63.3798 46.9113C63.0893 46.9113 62.8817 46.9321 62.5497 46.9321C62.2176 46.9321 62.1969 47.0985 62.1969 47.3065C62.1969 47.5145 62.2384 52.4865 62.2384 54.2756C62.2384 56.0647 63.3798 57.8329 66.7003 57.8329C70.0208 57.8329 69.9585 55.3782 69.9585 54.6916V51.4672C69.9585 48.4299 69.917 47.3273 69.917 47.1609C69.917 46.9945 69.7718 46.9945 69.5227 46.9945" fill="#757887"/>
<path d="M4.08835 46.6199H0.477327C0.186784 46.6199 0 46.6199 0 46.9735C0 47.3272 0 50.4893 0 52.2991C0 54.109 0.0415149 56.751 0.0415149 57.0215C0.0415149 57.2919 0.0415054 57.3959 0.664097 57.4375C1.28669 57.4583 3.71479 57.4375 4.44115 57.4375C7.38808 57.4375 8.8823 55.3156 8.8823 52.2783C8.8823 47.244 6.08064 46.6199 4.06759 46.6199M3.7148 56.335C3.11296 56.335 2.3866 56.2933 2.3866 56.2933V48.0761C2.3866 47.8057 2.61489 47.8265 2.76016 47.8265H3.61104C4.91848 47.8265 6.47495 47.8473 6.47495 51.9871C6.47495 56.1269 5.06374 56.335 3.7148 56.335Z" fill="#757887"/>
<path d="M0 41.5439H70V0H0V41.5439ZM8.488 10.0895L24.4678 26.0456C24.4678 26.0456 63.6703 22.5923 63.6703 18.4524C63.6703 15.956 46.1548 13.7717 37.5838 13.0644C29.9259 12.4403 21.4586 12.4819 21.4586 12.4819L33.3294 24.3397L24.8829 25.1926L9.75394 10.0687C9.75394 10.0687 19.6324 9.46545 37.6045 11.0673C55.5766 12.6899 65.5589 15.436 65.5589 18.3276C65.5589 26.0248 16.8722 33.5347 16.8722 33.5347L21.2304 26.7321L4.54492 10.2352L8.50874 10.0479L8.488 10.0895Z" fill="#757887"/>
</svg>
