<svg width="70" height="71" viewBox="0 0 70 71" fill="none" xmlns="http://www.w3.org/2000/svg">
<path d="M41.7128 9.66689C39.5717 9.08636 37.3047 8.80872 35.0125 8.80872C32.7203 8.80872 30.5541 9.1116 28.4382 9.64165L35.0881 28.0166L41.7128 9.66689Z" fill="#757887"/>
<path d="M61.2091 35.084C61.2091 31.8027 60.655 28.6729 59.5466 25.7703L47.0781 58.3808C55.4408 53.989 61.2091 45.2054 61.2091 35.084Z" fill="#757887"/>
<path d="M48.2115 12.3677L40.5289 33.5696H29.6977L21.9898 12.2667C19.1435 13.9073 16.6498 16.0528 14.5843 18.6273L25.5415 47.0984L29.5465 36.6994H40.0755L44.0805 47.0984L55.1385 18.2739C53.1989 15.9013 50.8312 13.9073 48.1863 12.3424" fill="#757887"/>
<path d="M35.0126 0C15.7431 0 0 15.75 0 35.0841C0 54.4183 15.7431 70.143 35.0126 70.143C54.2821 70.143 70 54.3678 70 35.0841C70 15.8005 54.3073 0 35.0126 0ZM35.0126 65.6755C18.2116 65.6755 4.45843 51.9447 4.45843 35.1094C4.45843 18.274 18.1864 4.46755 35.0126 4.46755C51.8388 4.46755 65.5667 18.2236 65.5667 35.1094C65.5667 51.9952 51.8388 65.6755 35.0126 65.6755Z" fill="#757887"/>
<path d="M34.7859 42.2775L28.0101 59.87V60.4253C30.2267 61.0563 32.5693 61.3592 35.0126 61.3592C37.3048 61.3592 39.5214 61.0815 41.6373 60.5263L41.5618 59.87L34.7859 42.2775Z" fill="#757887"/>
<path d="M8.76569 35.084C8.76569 44.9782 14.2569 53.6357 22.4181 58.1032L10.2518 26.3508C9.26947 29.0768 8.76569 32.0047 8.76569 35.084Z" fill="#757887"/>
</svg>
