<svg width="70" height="71" viewBox="0 0 70 71" fill="none" xmlns="http://www.w3.org/2000/svg">
<path d="M35 0C15.7122 0 0 15.7191 0 35.0715C0 54.4239 15.687 70.143 35 70.143C54.3129 70.143 70 54.4239 70 35.0715C70 15.7191 54.2878 0 35 0ZM35 69.159C16.241 69.159 0.982013 53.8688 0.982013 35.0715C0.982013 16.2742 16.241 0.958789 35 0.958789C53.759 0.958789 69.018 16.249 69.018 35.0463C69.018 53.8436 53.759 69.1338 35 69.1338" fill="#757887"/>
<path d="M15.0576 21.2953C15.0576 21.2953 15.1331 21.3458 15.1583 21.371H15.1835C15.8633 20.4879 16.5432 19.6301 17.223 18.7722C17.4748 18.4694 17.7266 18.1414 17.9784 17.8387C18.2302 17.5359 18.2806 17.1069 18.1295 16.7537C17.9281 16.3752 17.5756 16.1229 17.1223 16.1229C16.7698 16.1229 16.4928 16.3248 16.2662 16.6023C15.9641 16.9808 15.6619 17.3593 15.3597 17.7377C14.7302 18.5199 14.1259 19.2768 13.5216 20.059C13.8489 20.3113 14.1511 20.5636 14.4784 20.8412C14.6799 20.9926 14.8561 21.144 15.0324 21.2953" fill="#757887"/>
<path d="M35 1.56421C16.5432 1.56421 1.58636 16.5516 1.58636 35.0461C1.58636 53.5407 16.5432 68.5281 35 68.5281C53.4569 68.5281 68.4137 53.5407 68.4137 35.0461C68.4137 16.5516 53.4569 1.56421 35 1.56421ZM29.6115 3.65841L32.7339 3.30517L35 9.941L37.2662 3.30517L40.3885 3.65841L40.741 13.0697L38.2986 12.7164L38.072 6.43385L35.8813 12.7164H34.1439L31.9281 6.43385L31.7015 12.7164L29.259 13.0697L29.6115 3.65841ZM8.51083 19.1757C8.25903 18.9738 8.00723 18.772 7.75543 18.5701L7.6799 18.4944C7.6799 18.4944 7.75543 18.3935 7.80579 18.343C8.46047 17.5356 9.08997 16.7282 9.74464 15.8956C10.5 14.962 11.2554 14.0032 12.0108 13.0445C12.1619 12.8678 12.2878 12.6912 12.4389 12.4894C12.6907 12.1614 13.0432 11.9343 13.4209 11.7829C14.2267 11.4801 15.1583 11.682 15.7878 12.2875C16.09 12.5903 16.3166 12.9688 16.4173 13.3725C16.518 13.8014 16.4928 14.2051 16.3669 14.634C16.4173 14.5836 16.4677 14.5331 16.5432 14.4826C17.2734 13.978 18.2303 13.8266 19.0612 14.2051C19.8921 14.5836 20.4209 15.3405 20.5468 16.2236C20.572 16.5516 20.5468 16.9048 20.4713 17.2328C20.2698 17.8636 19.8418 18.343 19.4389 18.8224C18.6583 19.8064 17.8777 20.7652 17.0972 21.7493C16.4425 22.5567 15.7878 23.3641 15.1583 24.1715C15.1079 24.2471 15.0576 24.2976 15.0072 24.3481C15.0072 24.3481 14.9569 24.2976 14.9317 24.2976C14.7051 24.0958 14.4533 23.9191 14.2015 23.7173C13.2446 22.9604 12.313 22.2034 11.3562 21.4465C10.3993 20.6895 9.44248 19.9074 8.48565 19.1504M34.9749 55.9629C23.4425 55.9629 14.1008 46.6021 14.1008 35.0209C14.1008 23.4397 23.4425 14.1042 34.9749 14.1042C46.5072 14.1042 55.849 23.465 55.849 35.0209C55.849 46.5769 46.5072 55.9629 34.9749 55.9629ZM54.8669 24.2219L53.6583 22.153L57.7878 16.7282L51.5936 19.5794L49.8562 17.9646L55.4964 10.5213L57.2339 12.1361L53.9605 16.4254L59.1727 14.0285L60.7087 15.9461L57.2339 20.5129L62.1187 18.2673L63.3274 20.3363L54.8418 24.2471L54.8669 24.2219Z" fill="#757887"/>
<path d="M14.9821 15.3154C15.0576 14.9622 14.9821 14.6089 14.7303 14.3566C14.4281 14.0286 13.9749 13.9277 13.5468 14.1043C13.2447 14.2305 13.0684 14.4828 12.8921 14.7351C12.1367 15.6434 11.4317 16.577 10.6763 17.4853C10.6763 17.4853 10.5 17.6872 10.5252 17.6872C10.6763 17.8133 10.8274 17.9142 10.9785 18.0404C11.3813 18.3684 11.759 18.6712 12.1367 18.9992C12.5396 18.5198 12.9173 18.0404 13.295 17.5358C13.6979 17.0564 14.0756 16.577 14.4533 16.0976C14.6295 15.8453 14.8562 15.6434 14.9569 15.3406" fill="#757887"/>
<path d="M15.1836 35.0715H35.0253V15.1892C24.198 15.4668 15.4858 24.222 15.1836 35.0462" fill="#757887"/>
<path d="M35.0001 54.9287C45.8275 54.6511 54.5397 45.8958 54.8419 35.0464H35.0001V54.9287Z" fill="#757887"/>
</svg>
