<svg width="19" height="19" viewBox="0 0 19 19" fill="none" xmlns="http://www.w3.org/2000/svg">
<path fill-rule="evenodd" clip-rule="evenodd" d="M4.76274 0.601423C3.66972 0.741706 2.67562 1.21615 1.8849 1.97496C1.11338 2.71534 0.630456 3.58279 0.396822 4.64781C0.326314 4.96929 0.318058 5.10157 0.321424 5.85892C0.325499 6.77916 0.386582 7.38057 0.566113 8.26793C1.52343 12.9995 5.08626 16.8517 9.74038 18.1873C10.9146 18.5242 11.9844 18.6774 13.1777 18.6793C13.8916 18.6805 14.0373 18.6708 14.3536 18.6018C15.603 18.3289 16.6859 17.6421 17.43 16.6508C17.9988 15.893 18.3623 14.9002 18.4258 13.9308C18.4523 13.5273 18.4182 13.3757 18.2701 13.2373C18.1702 13.1439 12.4774 10.8474 12.2575 10.8117C12.1139 10.7884 11.9188 10.8714 11.815 10.9999C11.7697 11.056 11.5065 11.6677 11.2302 12.3594L10.7276 13.617L10.4947 13.6095C10.3667 13.6054 10.1086 13.57 9.92133 13.5309C7.61287 13.049 5.82614 11.2016 5.43363 8.89113C5.39345 8.65446 5.36553 8.4181 5.37166 8.36592C5.38218 8.27612 5.45103 8.24388 6.65831 7.76306C8.06111 7.2044 8.13212 7.16292 8.18108 6.87321C8.20401 6.73761 8.11787 6.50664 7.03045 3.78741C6.38401 2.17082 5.82189 0.805967 5.78128 0.754389C5.63541 0.568974 5.34984 0.526074 4.76274 0.601423ZM6.00351 4.07159C6.53399 5.39741 6.9621 6.48683 6.95487 6.49257C6.94768 6.49831 6.40799 6.71586 5.75563 6.97605C4.48715 7.48196 4.35748 7.55479 4.30734 7.78959C4.26348 7.99502 4.32601 8.80714 4.42108 9.26667C5.00381 12.084 7.26486 14.2255 10.0952 14.6409C10.4049 14.6864 10.8676 14.7117 11.1888 14.7009C11.2564 14.6986 11.3344 14.653 11.4217 14.5646C11.5326 14.4524 11.6263 14.2477 12.0255 13.245C12.2854 12.5923 12.5027 12.0524 12.5085 12.0452C12.5142 12.038 13.6059 12.4669 14.9345 12.9983L17.3501 13.9645L17.3296 14.1804C17.2835 14.6649 17.0119 15.3754 16.6847 15.8675C16.0651 16.7993 15.001 17.4503 13.8431 17.6058C13.0888 17.707 11.6049 17.5652 10.4639 17.2829C8.77608 16.8652 7.22043 16.0951 5.84339 14.9956C5.343 14.596 4.40368 13.6569 4.00394 13.1565C2.46796 11.2336 1.59181 9.00307 1.39354 6.51085C1.34581 5.91089 1.36824 5.18053 1.44513 4.8316C1.65782 3.86619 2.19131 3.02117 2.94717 2.45238C3.22119 2.24621 3.68797 1.98392 3.94927 1.88937C4.23194 1.78703 4.74155 1.6646 4.89199 1.66279L5.03896 1.66106L6.00351 4.07159Z" fill="white"/>
</svg>
