<svg width="48" height="55" viewBox="0 0 48 55" fill="none" xmlns="http://www.w3.org/2000/svg">
<path fill-rule="evenodd" clip-rule="evenodd" d="M14.9065 0.168078C14.2304 0.410696 13.5539 1.12624 13.3658 1.79806C13.2866 2.0808 13.2215 2.77762 13.2211 3.34659C13.2203 4.29044 13.1871 4.41777 12.8419 4.80082C12.5406 5.13519 12.3504 5.2236 11.9078 5.2351C11.4017 5.24834 11.2736 5.17491 10.473 4.41269C9.49808 3.48448 8.91261 3.18154 8.09404 3.18154C7.20356 3.18154 6.68405 3.49518 5.19448 4.93203C2.6566 7.38014 2.49809 8.38311 4.3384 10.3508C5.2564 11.3324 5.28972 11.3915 5.21944 11.911C5.17546 12.2361 5.01237 12.5837 4.80948 12.785C4.50595 13.0858 4.32761 13.1277 3.01193 13.2068C1.45288 13.3006 1.21572 13.3772 0.649412 13.9701C0.0693393 14.5772 0 14.9497 0 17.456C0 19.6996 0.0151089 19.8352 0.324031 20.3578C0.840026 21.2308 1.53868 21.5386 3.21023 21.6295C4.4733 21.6981 4.63599 21.7367 4.87005 22.0233C5.50786 22.8044 5.37093 23.4154 4.31372 24.507C3.51227 25.3345 3.10204 26.0494 3.10352 26.6165C3.10568 27.5006 3.40138 27.9748 4.89743 29.4927C6.23092 30.8459 6.44191 31.0094 6.80681 30.974C7.14798 30.9408 7.22473 30.8687 7.26183 30.546C7.30068 30.2084 7.12127 29.9728 5.88706 28.7404C5.10639 27.9608 4.4304 27.1701 4.38481 26.9834C4.25665 26.4585 4.50703 25.992 5.45241 24.9941C6.07161 24.3404 6.34937 23.9338 6.41547 23.5842C6.63913 22.402 6.10115 21.1956 5.13148 20.7051C4.72921 20.5017 4.33463 20.435 3.53291 20.435C1.34132 20.435 1.21411 20.2638 1.21411 17.3149C1.21411 15.1234 1.21438 15.1212 1.5697 14.7689C1.89158 14.4499 2.0231 14.4162 2.95243 14.4155C4.18758 14.4147 4.90526 14.2374 5.5119 13.7834C6.37338 13.1386 6.73033 11.6908 6.25588 10.765C6.13528 10.5296 5.68336 9.96949 5.25154 9.52037C4.38562 8.61944 4.20458 8.18664 4.44902 7.60162C4.5386 7.38723 5.26962 6.57592 6.07363 5.79858C7.43842 4.47916 7.57143 4.38527 8.0765 4.38527C8.55931 4.38527 8.72685 4.48571 9.63177 5.31749C10.1896 5.83027 10.8154 6.28729 11.0225 6.33303C11.2297 6.37891 11.5023 6.44391 11.6286 6.47775C11.9897 6.57431 12.9753 6.26509 13.4565 5.9041C14.1643 5.37326 14.3532 4.8796 14.4337 3.34966C14.5007 2.0796 14.533 1.95294 14.8775 1.61094C15.2457 1.24568 15.2679 1.2418 17.2855 1.19887C19.3581 1.15487 19.8986 1.2418 20.2644 1.67809C20.3658 1.79926 20.4699 2.44312 20.516 3.23531C20.6144 4.92788 20.897 5.5474 21.8137 6.07998C22.2837 6.35309 22.625 6.44792 23.1292 6.44524C23.984 6.44096 24.489 6.17895 25.5763 5.17612C26.5444 4.28322 26.9584 4.18478 27.7379 4.66239C28.2453 4.97349 28.6746 4.91491 28.8018 4.51728C29.0831 3.63882 27.2105 2.84704 25.9635 3.31716C25.7657 3.39166 25.2295 3.80922 24.7718 4.24497C23.7684 5.20019 23.3478 5.38971 22.7009 5.17799C21.957 4.93457 21.7201 4.40239 21.7195 2.9737C21.719 1.87108 21.6845 1.70858 21.3325 1.15848C20.7033 0.174765 20.288 0.044094 17.672 0.00651096C16.001 -0.0175636 15.3116 0.0226944 14.9065 0.168078ZM28.1268 9.19322C24.9376 9.55955 22.2392 10.5415 19.5731 12.3055C18.2325 13.1927 15.7522 15.674 14.8563 17.0244C12.7044 20.2679 11.8124 23.2283 11.8139 27.1223C11.8154 30.7604 12.5897 33.52 14.4736 36.5998C14.8289 37.1808 15.049 37.6858 15.0104 37.832C14.9277 38.1459 13.6997 39.2933 13.4466 39.2933C13.3421 39.2933 13.0913 39.1644 12.8891 39.0067L12.5215 38.72L11.0207 40.177C1.81806 49.1107 1.75762 49.1809 1.75506 50.939C1.7533 52.1026 2.05535 52.9266 2.77396 53.7191C3.53952 54.5634 4.48315 54.9802 5.66582 54.9965C7.38972 55.0203 7.31525 55.0767 13.0438 49.4182L18.1959 44.3291L17.867 43.9415C17.6245 43.6558 17.5707 43.4934 17.6621 43.324C17.8154 43.0401 19.1034 41.8345 19.2534 41.8345C19.3134 41.8345 19.7865 42.0833 20.3047 42.3873C22.4875 43.6681 24.5925 44.4461 26.9801 44.8544C27.9664 45.0232 28.7746 45.0573 30.4875 45.003C33.6404 44.9028 35.5289 44.4334 38.1951 43.087C43.3024 40.5076 46.8728 35.6378 47.827 29.9497C48.1077 28.2756 48.0369 24.9587 47.6865 23.3774C46.5008 18.0255 42.9308 13.4467 38.0399 11.0047C35.1931 9.58336 31.1543 8.84534 28.1268 9.19322ZM15.5532 9.94033C12.7195 10.6972 10.5135 12.9982 9.91573 15.8207C9.56796 17.463 9.686 18.7626 10.204 18.9966C10.4582 19.1114 10.574 19.0924 10.7876 18.9009C11.0163 18.6957 11.0424 18.5513 10.9719 17.882C10.7892 16.1492 11.5286 14.1991 12.8755 12.862C14.0666 11.6795 15.6784 10.9445 17.0891 10.9405C17.9055 10.9382 18.3716 10.3485 17.9148 9.89566C17.6996 9.68233 16.4293 9.70641 15.5532 9.94033ZM33.379 10.6857C39.2899 11.8688 44.2297 16.294 46.0633 22.0488C46.8181 24.4176 47.0312 27.5712 46.6017 30.0133C45.3907 36.8983 39.7994 42.4238 32.8183 43.6345C31.3077 43.8965 28.5651 43.8988 27.064 43.6392C21.6347 42.7006 17.1194 39.3312 14.6982 34.4116C11.566 28.0473 12.7267 20.6821 17.6679 15.5653C21.7927 11.2944 27.5246 9.51408 33.379 10.6857ZM28.1942 12.8271C24.3995 13.2575 20.668 15.3729 18.3347 18.4163C17.4861 19.5232 16.2851 21.927 15.923 23.2432C14.3913 28.8118 16.3 34.6898 20.8096 38.292C22.1754 39.3828 24.6687 40.622 26.3731 41.0567C27.4342 41.3274 27.893 41.365 30.0154 41.3553C32.0429 41.346 32.6144 41.2977 33.479 41.0624C36.1586 40.3332 38.1909 39.1641 40.1422 37.2295C42.1023 35.2861 43.3042 33.2267 43.9973 30.6232C44.3534 29.2857 44.485 26.3244 44.2521 24.8839C43.2104 18.4376 37.9388 13.4798 31.4209 12.8167C29.8992 12.6618 29.6437 12.6626 28.1942 12.8271ZM33.1855 14.3593C36.89 15.2798 40.1444 17.8964 41.8231 21.3043C42.8678 23.4253 43.1011 24.4899 43.0984 27.1223C43.0959 29.5101 42.9971 30.0579 42.1969 32.1181C41.0454 35.0826 37.9684 38.1281 34.9674 39.274C32.8843 40.0693 32.36 40.1604 29.8805 40.1588C27.8817 40.1575 27.4486 40.1174 26.508 39.846C23.5094 38.9812 21.0815 37.348 19.2898 34.9908C15.2071 29.6187 15.8777 22.1167 20.8532 17.5021C24.1897 14.4076 28.7264 13.2515 33.1855 14.3593ZM24.1665 18.205C24.0847 18.3028 23.8962 18.7735 23.7474 19.2513C23.2219 20.9377 21.9626 22.4188 20.4153 23.17C19.3965 23.6646 19.1412 24.338 19.9007 24.527C20.5924 24.6991 22.6042 23.4007 23.5666 22.1611C24.6648 20.7466 25.3778 18.7313 24.9576 18.2292C24.7489 17.98 24.3647 17.9683 24.1665 18.205ZM33.8487 19.1534C33.5921 20.1639 33.2688 20.3479 31.5939 20.4372C30.0077 20.5218 29.7775 20.6032 29.1627 21.2975C28.6617 21.8632 28.4195 22.6645 28.5435 23.346C28.672 24.0523 28.7957 24.2472 29.7633 25.2686C30.499 26.0453 30.6224 26.2465 30.6224 26.67C30.6224 27.1214 30.4862 27.3011 29.0574 28.7353C27.0331 30.7675 26.8236 30.8095 25.3864 29.4721C24.8904 29.0106 24.3519 28.5639 24.1898 28.4795C23.7889 28.2708 22.6166 28.2859 22.0835 28.5067C21.1981 28.8735 20.3442 30.2884 20.5744 31.0073C20.7435 31.5357 21.719 31.4483 21.719 30.9046C21.719 30.5174 22.1422 29.8318 22.4738 29.6821C23.2422 29.335 23.6783 29.4747 24.6505 30.3795C25.1528 30.8468 25.711 31.3061 25.8911 31.4C26.3311 31.6295 27.5335 31.6055 28.0106 31.3578C28.5576 31.0736 31.5226 28.0572 31.6939 27.6105C31.9033 27.0644 31.8677 26.1008 31.62 25.611C31.5009 25.3756 31.0319 24.8065 30.5776 24.3463C29.8481 23.607 29.7517 23.4479 29.7517 22.981C29.7517 22.5847 29.8459 22.3549 30.1283 22.0627C30.487 21.6915 30.5716 21.67 31.9059 21.6113C33.1452 21.5566 33.3704 21.5077 33.8584 21.1874C34.5053 20.7632 34.8884 20.1929 35.0113 19.4718C35.1181 18.8446 34.924 18.5625 34.3851 18.5625C34.0409 18.5625 33.9824 18.627 33.8487 19.1534ZM17.1672 39.9395C17.5932 40.3823 17.9418 40.8474 17.9418 40.9728C17.9418 41.0984 17.6766 41.4639 17.3525 41.7853C17.0284 42.1066 16.6597 42.3695 16.533 42.3695C16.291 42.3695 14.7732 41.0087 14.5462 40.5882C14.4373 40.3863 14.5451 40.2127 15.1558 39.6074C16.0259 38.7447 16.0161 38.7431 17.1672 39.9395ZM14.4565 42.3295C15.7731 43.6211 16.1882 44.1099 16.1885 44.3692C16.1889 44.639 15.2676 45.6207 11.7705 49.0771C7.56819 53.2305 7.31579 53.4547 6.61053 53.6606C5.22052 54.0663 3.78072 53.4568 3.18406 52.21C2.88444 51.5842 2.90765 50.4681 3.23384 49.8013C3.57621 49.1017 12.1091 40.6308 12.4716 40.6308C12.6152 40.6308 13.4743 41.3659 14.4565 42.3295Z" fill="white"/>
</svg>
