<svg width="121" height="31" viewBox="0 0 121 31" fill="none" xmlns="http://www.w3.org/2000/svg">
<g clip-path="url(#clip0_1_385)">
<path d="M5.86182 12.0491L17.4505 10.6619L17.426 10.4225C15.4986 10.5023 13.5713 10.6435 11.6439 10.6496C9.69199 10.6496 7.73394 10.5698 5.78816 10.4287C3.85466 10.2875 1.9273 10.0236 -6.10352e-05 9.81486L0.0183532 9.65527C1.30735 9.55092 2.59635 9.44044 3.87921 9.34223C8.32319 8.9985 12.6628 8.0962 16.9595 6.96679C23.1099 5.34633 29.248 3.68291 35.4167 2.14225C40.984 0.748898 46.6372 -0.0981584 52.4008 0.0123273C57.2561 0.104399 61.9885 0.933041 66.6351 2.33253C72.9082 4.22306 79.2734 5.71462 85.7737 6.58009C88.6217 6.96065 91.4944 7.12638 94.3486 7.43942C99.0503 7.94888 103.629 8.93711 107.938 10.9995C109.491 11.7422 111.191 12.1719 112.775 12.8594C115.488 14.0379 117.882 15.6829 119.693 18.0829C119.889 18.3468 120.061 18.6292 120.196 18.9729C118.146 16.7816 115.617 15.4005 112.72 14.3264C113.42 15.2532 114.027 16.0573 114.635 16.8614L114.574 16.8859C113.634 16.0819 112.708 15.2593 111.756 14.4737C110.246 13.2338 108.362 13.0067 106.545 12.62C102.138 11.6931 97.657 11.2941 93.17 10.9995C88.4437 10.6865 83.8893 9.63072 79.476 7.94888C74.9031 6.19952 70.2013 4.92894 65.3522 4.2783C60.6075 3.63994 55.8566 3.61539 51.0934 4.18623C47.0423 4.67114 43.0894 5.58572 39.2039 6.81947C39.0812 6.8563 38.9584 6.90541 38.8357 7.01589C43.7339 7.35349 48.5891 7.95502 53.3768 9.0967C52.6525 9.04146 51.9221 8.94939 51.1978 8.92484C47.5149 8.81435 43.8382 8.66704 40.1553 8.64862C38.05 8.63635 35.9385 8.82663 33.8331 8.97394C33.2807 9.01077 32.7405 9.24402 32.2127 9.47727C36.7548 9.21333 41.2786 9.15809 45.8085 9.44044C50.32 9.72279 54.7824 10.3182 59.1834 11.3678C57.9681 11.2696 56.7466 11.1223 55.5313 11.0854C52.2965 10.9934 49.0494 10.7479 45.8269 10.9381C38.94 11.3494 32.0715 12.0062 25.1968 12.5402C19.7462 12.9698 14.2894 13.1663 8.83879 12.4542C7.88125 12.3315 6.92985 12.1964 5.86796 12.0491H5.86182ZM62.455 2.47984C49.9395 0.0798462 37.9272 2.1668 26.3017 7.23686C27.0567 7.23686 27.8055 7.20003 28.5543 7.15093C29.518 7.08341 30.5063 7.12638 31.4331 6.89927C35.1651 6.00311 38.8663 4.96577 42.6106 4.1003C47.1957 3.03841 51.8361 2.32025 56.5563 2.31411C58.5512 2.31411 60.5461 2.4246 62.455 2.47984Z" fill="white"/>
<path d="M26.3999 23.5088C26.3999 23.0914 26.3999 22.6924 26.3999 22.2935C26.3999 20.2004 26.4183 18.1134 26.3999 16.0203C26.3999 15.5416 26.5533 15.4004 27.0198 15.4004C31.7646 15.4127 36.5032 15.4127 41.2479 15.4004C41.739 15.4004 42.0275 15.4986 41.9477 16.0756C41.8863 16.5666 42.1564 17.1497 41.2172 17.1436C37.1477 17.1006 33.0781 17.1252 29.0086 17.1252C28.1676 17.1252 27.8178 17.6162 28.137 18.3896C28.1861 18.5063 28.4009 18.6168 28.5482 18.6229C29.0393 18.6536 29.5364 18.6413 30.0336 18.6413C33.741 18.6413 37.4546 18.6413 41.162 18.6413C41.9477 18.6413 41.9108 18.6474 41.9538 19.6234C41.9845 20.2433 41.7451 20.3722 41.1743 20.3661C37.1047 20.3416 33.0352 20.3538 28.9656 20.3538C28.1983 20.3538 27.7748 21.0045 28.1554 21.6612C28.2352 21.8024 28.5728 21.8515 28.7937 21.8515C32.6853 21.8638 36.5707 21.8515 40.4622 21.8638C42.0704 21.8699 42.0152 21.5078 41.874 23.4965H26.3937L26.3999 23.5088Z" fill="white"/>
<path d="M96.7731 23.4965C96.7731 22.809 96.7731 22.1829 96.7731 21.563C96.7731 19.7216 96.7731 17.8801 96.7731 16.0326C96.7731 15.7011 96.7608 15.4065 97.2396 15.4065C102.181 15.4188 107.128 15.4188 112.069 15.4249C112.131 15.4249 112.192 15.4679 112.284 15.5047V17.119H98.5654V18.6106H112.266V20.3538C111.965 20.3538 111.683 20.3538 111.394 20.3538C107.509 20.3538 103.617 20.3538 99.7317 20.3538C98.8273 20.3538 98.4447 20.8489 98.5838 21.8392H112.272V23.4842H96.7792L96.7731 23.4965Z" fill="white"/>
<path d="M23.337 21.0535C23.9385 21.8514 24.5217 22.631 25.1171 23.4289C23.8096 23.8217 23.1345 23.699 22.5145 22.631C21.7166 21.2622 20.6792 20.8264 19.1079 20.9246C16.7324 21.0719 14.3447 20.9737 11.9631 20.9553C11.5028 20.9553 11.3063 21.0719 11.337 21.5568C11.3739 22.0478 11.3248 22.545 11.3493 23.0422C11.3677 23.4596 11.1897 23.6131 10.7907 23.5762C10.5882 23.5578 10.3856 23.5701 10.1831 23.5762C9.79638 23.6008 9.61224 23.4596 9.61837 23.0361C9.63679 20.6975 9.64293 18.3588 9.63679 16.0264C9.63679 15.5599 9.81479 15.4003 10.2751 15.4064C11.693 15.4248 13.1048 15.4064 14.5227 15.4064C17.334 15.4064 20.1452 15.4064 22.9503 15.4126C24.626 15.4187 25.1539 15.965 25.1539 17.6468C25.1539 18.009 25.1539 18.365 25.1539 18.7271C25.1539 20.2678 24.8531 20.6606 23.3309 21.0473L23.337 21.0535ZM17.2787 19.298C19.0526 19.298 20.8327 19.3102 22.6066 19.2857C22.8644 19.2857 23.3186 19.1445 23.3493 19.0033C23.4475 18.4939 23.4843 17.9353 23.3616 17.4381C23.3186 17.2663 22.76 17.1374 22.4347 17.1374C19.2184 17.1128 16.002 17.1128 12.7918 17.1312C11.1468 17.1374 11.38 16.8673 11.337 18.6105C11.3248 19.12 11.4659 19.3225 12.0184 19.3102C13.7739 19.2796 15.5232 19.298 17.2787 19.298Z" fill="white"/>
<path d="M43.206 23.4719C43.206 20.9062 43.206 18.3711 43.206 15.83C43.206 15.3758 43.519 15.4126 43.8075 15.4126C45.3113 15.4126 46.8213 15.4126 48.3251 15.4126C51.0198 15.4126 53.7205 15.4126 56.4151 15.4126C58.1891 15.4126 58.7415 15.9773 58.7476 17.7635C58.7476 19.0463 58.766 20.3231 58.7415 21.6059C58.7169 22.8888 58.1215 23.5456 56.8325 23.5517C52.3824 23.5762 47.9323 23.5517 43.4822 23.5517C43.4208 23.5517 43.3594 23.5149 43.1998 23.4719H43.206ZM50.8418 21.8637C52.6402 21.8637 54.4387 21.8514 56.2371 21.8699C56.8141 21.8699 57.0596 21.6243 57.0535 21.0658C57.0474 20.0346 57.0535 18.9972 57.0535 17.966C57.0535 17.389 56.8203 17.119 56.2003 17.1251C52.6279 17.1435 49.0494 17.1374 45.4771 17.1251C44.986 17.1251 44.8694 17.3277 44.8755 17.7696C44.9001 18.8929 44.9062 20.0162 44.8755 21.1394C44.8571 21.6796 45.0044 21.8883 45.5875 21.8821C47.343 21.8514 49.0924 21.8699 50.8479 21.8699L50.8418 21.8637Z" fill="white"/>
<path d="M93.8084 21.4954C93.8268 21.1762 93.8452 20.9368 93.8452 20.7036C93.8452 19.1752 93.8575 17.6468 93.8268 16.1184C93.8207 15.6151 93.9311 15.388 94.4958 15.4064C95.5639 15.431 95.5639 15.4003 95.5639 16.456C95.5639 18.543 95.5639 20.6361 95.5639 22.723C95.5639 22.9624 95.5639 23.2079 95.5639 23.478C94.6616 23.5394 93.8882 23.5824 93.0902 23.1711C89.4872 21.3051 85.8595 19.4944 82.2381 17.6652C82.0846 17.5854 81.925 17.5179 81.6918 17.4013V23.4964H80.0652V15.4678C80.7833 15.388 81.4831 15.3205 82.1951 15.6888C85.8473 17.5486 89.5178 19.3839 93.1823 21.2192C93.3542 21.3051 93.5322 21.3788 93.7961 21.4954H93.8084Z" fill="white"/>
<path d="M61.6142 15.4065V21.8638H75.4433V23.5088H59.9323C59.9323 23.1221 59.9323 22.7722 59.9323 22.4224C59.9323 20.3354 59.9507 18.2423 59.9201 16.1554C59.9078 15.5661 60.0735 15.3267 60.675 15.4004C60.9574 15.4372 61.252 15.4065 61.6203 15.4065H61.6142Z" fill="white"/>
<path d="M27.4987 26.3018C28.6097 26.3018 29.6838 26.3018 30.758 26.3018C31.8322 26.3018 32.9125 26.3018 33.9866 26.3018C35.1467 26.3018 35.6132 26.9954 35.2388 28.1248C35.1835 28.2905 35.1713 28.5054 35.2327 28.665C35.6378 29.8005 35.1467 30.5309 33.9559 30.5309C31.826 30.5309 29.6961 30.5309 27.5048 30.5309V26.2957L27.4987 26.3018ZM28.3948 29.6655C30.3038 29.6655 32.1391 29.6716 33.9743 29.6471C34.1217 29.6471 34.269 29.4077 34.4163 29.2788C34.2506 29.1499 34.091 28.9228 33.9252 28.9166C32.9616 28.8798 31.9917 28.8982 31.0281 28.8982C30.1565 28.8982 29.2848 28.8982 28.3948 28.8982V29.6655ZM28.4071 27.9161C28.6649 27.9284 28.8368 27.9468 29.0148 27.9468C30.6721 27.9468 32.3293 27.9529 33.9866 27.9284C34.1339 27.9284 34.2751 27.7013 34.4224 27.5785C34.2751 27.4496 34.1339 27.2225 33.9805 27.2164C33.2869 27.1734 32.5933 27.1918 31.8997 27.1918C30.7457 27.1918 29.5856 27.1918 28.4071 27.1918V27.9223V27.9161Z" fill="white"/>
<path d="M66.7517 30.5062H65.8862V27.3881C64.4806 27.9528 63.1855 28.5052 61.8658 28.9901C61.5466 29.1067 61.1108 29.119 60.7916 29.0024C59.4044 28.5052 58.0479 27.9466 56.5809 27.3696V30.5001H55.7584V26.2586C56.2126 26.3323 56.6545 26.3446 57.0535 26.4858C58.232 26.9093 59.4044 27.3635 60.5584 27.8484C61.0678 28.0632 61.5098 28.0817 62.0254 27.8484C63.1486 27.3512 64.2965 26.897 65.4566 26.4735C65.8371 26.3323 66.2668 26.32 66.7456 26.2402V30.5062H66.7517Z" fill="white"/>
<path d="M96.4601 29.2356L96.4048 30.5123H95.5762C95.5762 29.3461 95.5455 28.2044 95.5946 27.0688C95.613 26.6023 95.9506 26.3016 96.4601 26.3016C98.4795 26.3016 100.505 26.2954 102.525 26.3016C103.071 26.3016 103.365 26.6637 103.384 27.1609C103.421 28.2596 103.396 29.3522 103.396 30.4939H102.531V29.2356H96.4662H96.4601ZM99.4186 28.3026C100.29 28.3026 101.168 28.2842 102.04 28.3026C102.463 28.3087 102.512 28.0755 102.506 27.744C102.5 27.431 102.463 27.167 102.04 27.167C100.333 27.1793 98.633 27.1793 96.9266 27.167C96.4723 27.167 96.4355 27.4555 96.4171 27.787C96.3987 28.1491 96.5337 28.3149 96.9204 28.3026C97.7491 28.278 98.5777 28.2964 99.4063 28.2964L99.4186 28.3026Z" fill="white"/>
<path d="M26.2956 30.4941H25.4485L25.3749 29.2297H19.3963L19.335 30.5002H18.5247C18.5247 29.3401 18.5002 28.1985 18.537 27.0629C18.5554 26.578 18.893 26.2957 19.3963 26.2957C21.3974 26.2957 23.3984 26.2957 25.3994 26.2957C25.9396 26.2957 26.271 26.6026 26.2894 27.1059C26.3324 28.223 26.3017 29.3401 26.3017 30.4941H26.2956ZM19.4148 28.2353H25.3503C25.424 27.5233 25.1252 27.1673 24.4541 27.1673C23.0608 27.1673 21.6736 27.1673 20.2802 27.1673C19.3166 27.1673 19.2859 27.2041 19.4148 28.2353Z" fill="white"/>
<path d="M50.6637 26.3077C51.6029 26.3077 52.5481 26.2954 53.4873 26.3077C54.2423 26.32 54.5369 26.6146 54.5553 27.3757C54.5737 28.0939 54.5737 28.812 54.5553 29.5302C54.5369 30.2177 54.2423 30.5246 53.5671 30.5307C51.6151 30.543 49.6632 30.5307 47.7113 30.543C47.0668 30.543 46.7476 30.1993 46.717 29.6039C46.6801 28.8182 46.6801 28.0325 46.717 27.2468C46.7415 26.5839 47.0668 26.3138 47.7666 26.3077C48.7302 26.3016 49.6939 26.3077 50.6576 26.3077H50.6637ZM50.6146 29.6652C51.4003 29.6652 52.186 29.6407 52.9717 29.6714C53.4873 29.6898 53.7328 29.5302 53.6837 28.9839C53.653 28.6033 53.6591 28.2228 53.6837 27.8422C53.7144 27.3389 53.4934 27.1732 53.0024 27.1793C51.7932 27.2039 50.5778 27.1854 49.3625 27.1854C47.4474 27.1854 47.4535 27.1854 47.607 29.1189C47.6377 29.5118 47.785 29.6775 48.184 29.6714C48.9942 29.653 49.7983 29.6714 50.6085 29.6714L50.6146 29.6652Z" fill="white"/>
<path d="M71.8832 30.5368C70.9379 30.5368 69.9927 30.5368 69.0535 30.5368C68.2863 30.5368 67.9794 30.2667 67.9425 29.5056C67.9057 28.7874 67.9057 28.0632 67.9425 27.3511C67.9794 26.5655 68.2617 26.3077 69.0351 26.3077C70.9257 26.3015 72.81 26.3077 74.7006 26.3077C75.4801 26.3077 75.7441 26.5839 75.7625 27.3634C75.7747 28.0816 75.7809 28.7997 75.7625 29.524C75.7502 30.2545 75.4678 30.5245 74.7251 30.5307C73.7799 30.5368 72.8346 30.5307 71.8955 30.5307L71.8832 30.5368ZM71.8832 27.1854C71.4781 27.1854 71.073 27.1731 70.674 27.1854C68.452 27.2468 68.9185 26.7312 68.851 29.1496C68.8387 29.524 68.9922 29.6713 69.3666 29.6713C71.0239 29.6652 72.6873 29.6591 74.3446 29.6713C74.7435 29.6713 74.9215 29.5363 74.9093 29.125C74.8909 28.677 74.8847 28.2289 74.9093 27.7808C74.9338 27.3327 74.7313 27.1854 74.3139 27.1915C73.5098 27.2038 72.6996 27.1915 71.8893 27.1915L71.8832 27.1854Z" fill="white"/>
<path d="M84.7425 26.228V30.5001H83.9016V27.3636C83.2018 27.7196 82.6371 28.0019 82.0724 28.2966C80.8203 28.9533 79.5804 29.6285 78.3221 30.2608C77.9415 30.451 77.4934 30.5124 76.9839 30.6536V26.3508H77.7942V29.4689C78.9727 28.8551 80.0407 28.3027 81.1087 27.7503C81.9067 27.3329 82.6862 26.8848 83.4965 26.5104C83.8586 26.3447 84.2821 26.3262 84.7425 26.2342V26.228Z" fill="white"/>
<path d="M77.0883 23.4966V15.5109C77.1742 15.4741 77.2356 15.4311 77.297 15.425C78.2709 15.339 78.7578 15.7851 78.7578 16.7631C78.7578 18.7579 78.7578 20.759 78.7578 22.7538C78.7578 22.9932 78.7578 23.2388 78.7578 23.5027H77.0883V23.4966Z" fill="white"/>
<path d="M94.3486 30.4509C93.5015 30.764 93.1025 30.3527 92.8754 29.7266C92.6299 29.0576 92.2002 28.8612 91.5005 28.8857C89.9782 28.941 88.4498 28.9041 86.8417 28.9041V30.5L85.9885 30.543V26.3384H86.7926V27.9404H90.2176C90.5798 27.9404 90.9419 27.8913 91.2918 27.9527C92.1572 28.1 92.6913 27.7686 92.9675 26.9522C93.1885 26.2954 93.6488 26.142 94.3424 26.3814C94.0539 26.9277 93.7409 27.4433 93.5138 27.9957C93.4156 28.2412 93.4094 28.5911 93.5138 28.8305C93.7409 29.3829 94.0601 29.8985 94.3547 30.4509H94.3486Z" fill="white"/>
<path d="M45.5139 26.3384V27.1732H41.5364V30.4877H40.5113V27.21H36.5093V26.3384H45.5139Z" fill="white"/>
<path d="M81.6182 26.6209C80.3046 26.9094 79.967 26.7744 80.0837 26.0133C81.3849 25.7248 81.7287 25.8598 81.6182 26.6209Z" fill="white"/>
</g>
<defs>
<clipPath id="clip0_1_385">
<rect width="120.19" height="30.6475" fill="white"/>
</clipPath>
</defs>
</svg>
