<svg width="24" height="19" viewBox="0 0 24 19" fill="none" xmlns="http://www.w3.org/2000/svg">
<path d="M1.2 3.16667H22.8C23.1183 3.16667 23.4235 2.99985 23.6485 2.70292C23.8736 2.40599 24 2.00326 24 1.58333C24 1.16341 23.8736 0.76068 23.6485 0.463748C23.4235 0.166815 23.1183 0 22.8 0H1.2C0.88174 0 0.576515 0.166815 0.351472 0.463748C0.126428 0.76068 0 1.16341 0 1.58333C0 2.00326 0.126428 2.40599 0.351472 2.70292C0.576515 2.99985 0.88174 3.16667 1.2 3.16667ZM22.8 15.8333H1.2C0.88174 15.8333 0.576515 16.0001 0.351472 16.2971C0.126428 16.594 0 16.9967 0 17.4167C0 17.8366 0.126428 18.2393 0.351472 18.5363C0.576515 18.8332 0.88174 19 1.2 19H22.8C23.1183 19 23.4235 18.8332 23.6485 18.5363C23.8736 18.2393 24 17.8366 24 17.4167C24 16.9967 23.8736 16.594 23.6485 16.2971C23.4235 16.0001 23.1183 15.8333 22.8 15.8333ZM22.8 7.91667H1.2C0.88174 7.91667 0.576515 8.08348 0.351472 8.38041C0.126428 8.67735 0 9.08007 0 9.5C0 9.91993 0.126428 10.3227 0.351472 10.6196C0.576515 10.9165 0.88174 11.0833 1.2 11.0833H22.8C23.1183 11.0833 23.4235 10.9165 23.6485 10.6196C23.8736 10.3227 24 9.91993 24 9.5C24 9.08007 23.8736 8.67735 23.6485 8.38041C23.4235 8.08348 23.1183 7.91667 22.8 7.91667Z" fill="white"/>
</svg>
