<svg width="23" height="24" viewBox="0 0 23 24" fill="none" xmlns="http://www.w3.org/2000/svg">
<path fill-rule="evenodd" clip-rule="evenodd" d="M8.01424 0.186505C4.65304 0.493188 1.71205 2.70306 0.616907 5.74495C0.174731 6.97301 0.123049 7.52945 0.149457 10.7765C0.171235 13.459 0.185738 13.6432 0.442115 14.5035C1.15314 16.8888 2.9586 18.8964 5.26831 19.8699L5.66315 20.0363V21.3498C5.66315 22.7933 5.67552 22.8653 5.94125 22.9694C6.01868 22.9998 6.14373 23.0118 6.21903 22.9961C6.30865 22.9775 6.82858 22.5625 7.72205 21.7966L9.08812 20.6255L11.8045 20.5993C13.9874 20.5783 14.5997 20.5594 14.9224 20.5027C16.8228 20.1689 18.3521 19.4175 19.6717 18.1693C20.9936 16.9189 21.8115 15.4069 22.1382 13.6097C22.2335 13.0859 22.2809 8.55889 22.2 7.71972C22.0072 5.72113 21.1479 3.97581 19.6671 2.57508C18.204 1.19114 16.3505 0.367485 14.2846 0.183243C13.671 0.128503 8.62119 0.131139 8.01424 0.186505ZM14.6749 1.1003C18.0759 1.61602 20.6833 4.08235 21.2264 7.2973C21.3339 7.93364 21.3346 12.7999 21.2273 13.4427C20.6917 16.6502 18.1135 19.1084 14.7138 19.6529C14.3731 19.7075 13.7121 19.7258 11.5071 19.7418L8.7297 19.762L7.96407 20.4141C7.54301 20.7727 7.07093 21.1781 6.91503 21.315L6.63159 21.5639L6.60797 20.601C6.58147 19.5203 6.56262 19.4548 6.23953 19.3203C5.0398 18.821 4.35792 18.4322 3.69461 17.8695C2.45746 16.82 1.65243 15.5227 1.23293 13.9023L1.11086 13.431L1.09295 10.6023C1.07373 7.57203 1.08497 7.37327 1.32255 6.53125C2.12234 3.69697 4.59082 1.58541 7.67089 1.10088C8.27114 1.00645 14.0528 1.00596 14.6749 1.1003ZM11.5511 3.56139C11.4611 3.64657 11.4266 3.72539 11.4266 3.84587C11.4266 4.10447 11.5593 4.22297 12.0058 4.36311C13.271 4.76024 14.2752 5.33669 15.2227 6.20964C16.2123 7.12142 16.856 8.07887 17.3134 9.31931C17.4907 9.8 17.5991 9.94756 17.8066 9.99068C17.9609 10.0227 18.2024 9.92008 18.2751 9.79151C18.4036 9.56437 18.2365 9.00535 17.7575 8.06001C16.8521 6.27341 15.3572 4.85323 13.4815 3.9978C12.7522 3.66516 12.1017 3.4436 11.8544 3.4436C11.7243 3.4436 11.6418 3.47564 11.5511 3.56139ZM6.57962 4.64647C6.17269 4.93451 5.06522 5.89277 4.89694 6.10244C4.43365 6.67974 4.35792 7.49866 4.68006 8.44847C4.79911 8.79961 4.89751 8.96652 5.4397 9.73686C6.82891 11.7108 8.14836 13.0244 9.96208 14.2393C10.9181 14.8797 12.5975 15.8403 13.4348 16.2257C14.1273 16.5445 14.7948 16.551 15.4802 16.2456C15.972 16.0265 16.2605 15.727 16.9183 14.7527C17.5377 13.8354 17.5727 13.7326 17.3435 13.5038C17.1922 13.3528 14.5259 11.7142 14.2129 11.5799C13.6847 11.3533 12.9831 11.5337 12.5995 11.9948C12.4943 12.1211 12.3924 12.2302 12.3729 12.2372C12.3534 12.2443 12.116 12.1691 11.8454 12.0702C10.5336 11.591 9.72843 10.8274 9.16026 9.52393L9.01551 9.19178L9.30581 8.92473C9.69352 8.56809 9.79655 8.34967 9.79385 7.88989C9.7923 7.61614 9.76853 7.4903 9.69248 7.35258C9.59478 7.17576 7.40313 4.74607 7.20528 4.59526C7.04712 4.47469 6.79296 4.49547 6.57962 4.64647ZM11.8686 5.49881C11.6218 5.59297 11.5382 5.93035 11.7102 6.13729C11.7659 6.20419 11.9463 6.30165 12.1472 6.37341C13.4522 6.83931 14.3768 7.60756 14.9671 8.71658C15.0652 8.90092 15.1726 9.13217 15.2057 9.23048C15.3291 9.59695 15.432 9.73753 15.6112 9.78436C15.8182 9.83843 15.9618 9.79281 16.0972 9.62997C16.229 9.47143 16.2242 9.32745 16.0738 8.93153C15.4918 7.39879 14.1422 6.1221 12.5221 5.57179C12.16 5.44881 12.0359 5.43491 11.8686 5.49881ZM7.93171 6.68336C8.40539 7.19948 8.82201 7.68616 8.85754 7.76486C8.95405 7.97855 8.87917 8.10818 8.4241 8.5155C7.95901 8.93184 7.95864 8.93327 8.16876 9.49636C8.50162 10.3884 8.91413 11.0608 9.47257 11.6216C10.1095 12.2612 10.8169 12.662 11.9498 13.0251C12.7519 13.2821 12.7924 13.2747 13.1238 12.8102C13.4069 12.4133 13.4734 12.3604 13.6883 12.3611C13.8294 12.3615 14.081 12.4974 15.1224 13.1363C15.9097 13.6192 16.3734 13.93 16.3537 13.9615C16.0384 14.4634 15.5074 15.1681 15.346 15.2987C15.0897 15.5063 14.7213 15.6158 14.3719 15.5884C14.0442 15.5627 13.5264 15.3202 12.2703 14.6041C9.67939 13.1271 8.38295 12.0598 6.87852 10.1653C6.50564 9.69575 5.77468 8.65796 5.65351 8.42612C5.51377 8.15868 5.41159 7.7077 5.40984 7.35066C5.40729 6.83341 5.52369 6.65713 6.27766 6.03652L6.86779 5.55074L6.96913 5.64784C7.02487 5.70124 7.45802 6.16723 7.93171 6.68336ZM11.9042 7.25963C11.6781 7.37814 11.5973 7.66994 11.738 7.8599C11.7793 7.91576 11.9866 8.03771 12.1986 8.13084C12.7474 8.37201 13.0361 8.6349 13.2774 9.11291C13.5307 9.61487 13.6131 9.69968 13.8477 9.69968C13.9885 9.69968 14.0647 9.66881 14.1702 9.56907C14.3364 9.41186 14.3466 9.26368 14.2143 8.9292C13.9345 8.222 13.225 7.55671 12.4762 7.29963C12.1353 7.18255 12.061 7.17736 11.9042 7.25963Z" fill="white"/>
</svg>
