<svg width="23" height="22" viewBox="0 0 23 22" fill="none" xmlns="http://www.w3.org/2000/svg">
<path fill-rule="evenodd" clip-rule="evenodd" d="M10.0852 0.196516C8.81493 0.328346 7.6289 0.674355 6.45503 1.25562C4.81024 2.07007 3.56124 3.15815 2.52784 4.67672C0.296687 7.95555 0.187254 12.2504 2.24521 15.7715L2.47607 16.1666L1.58315 18.5474C0.907665 20.3484 0.69806 20.9633 0.722314 21.0724C0.763036 21.2554 1.02909 21.479 1.20597 21.479C1.28058 21.479 2.37416 21.0462 3.63621 20.5173L5.93081 19.5555L6.74535 19.9627C9.1337 21.1567 11.8013 21.4531 14.3562 20.8085C17.9913 19.8913 20.8816 17.0047 21.7693 13.4051C22.1517 11.855 22.1514 9.96608 21.7689 8.42062C20.9822 5.24298 18.7964 2.60337 15.7673 1.17302C14.0328 0.353996 11.9754 0.000406042 10.0852 0.196516ZM12.1126 1.23205C16.4546 1.67183 19.9801 4.8558 20.854 9.12676C20.9596 9.64292 20.9751 9.87148 20.9747 10.9129C20.9744 11.8513 20.9542 12.2072 20.8801 12.5744C20.4098 14.9053 19.226 16.8284 17.4077 18.2152C14.33 20.5627 10.0363 20.7679 6.61913 18.7309C6.35234 18.5719 6.11569 18.4676 6.02162 18.4676C5.93591 18.4676 5.03957 18.8141 4.02969 19.2378C3.01976 19.6614 2.18702 20.0036 2.17913 19.9981C2.17124 19.9927 2.48496 19.1331 2.87623 18.088C3.26756 17.0429 3.5877 16.1335 3.5877 16.0672C3.5877 16.0009 3.47727 15.772 3.34227 15.5586C1.32235 12.3649 1.33035 8.34938 3.36258 5.30529C5.27148 2.44599 8.63558 0.879967 12.1126 1.23205ZM7.61249 4.43383C7.00041 4.67745 6.22486 5.33598 5.82185 5.95432C5.3837 6.62655 5.25559 7.23441 5.37118 8.0918C5.67575 10.3507 7.18976 12.7717 9.40128 14.5365C11.1239 15.9111 13.037 16.704 14.6578 16.7153C15.098 16.7184 15.253 16.6966 15.5661 16.5873C16.4614 16.275 17.418 15.3814 17.776 14.5227C17.9798 14.0339 17.9124 13.5006 17.609 13.2012C17.52 13.1134 17.1877 12.888 16.8704 12.7002C16.553 12.5123 16.0351 12.2023 15.7195 12.0113C14.827 11.471 14.4484 11.4047 13.9594 11.703C13.7438 11.8346 13.5683 12.0167 12.9958 12.7034L12.8023 12.9355L12.6012 12.8646C12.1086 12.6912 11.1343 11.9566 10.4761 11.2624C9.81218 10.5621 9.21714 9.69666 9.21714 9.43118C9.21714 9.37573 9.37845 9.20584 9.6031 9.02468C10.1119 8.61434 10.5093 8.17991 10.5863 7.94979C10.7175 7.55721 10.553 7.14785 9.75278 5.87643C8.96545 4.62542 8.94199 4.59406 8.69592 4.46571C8.41629 4.31981 7.93453 4.30569 7.61249 4.43383ZM8.41839 5.72067C8.51778 5.89201 8.77026 6.3009 8.97944 6.6293C9.18863 6.95771 9.41033 7.32439 9.47215 7.44412L9.58453 7.66183L9.23172 7.96334C8.1737 8.86751 8.05558 9.04316 8.16275 9.55257C8.30544 10.231 8.89453 11.1333 9.79077 12.0463C10.9514 13.2287 12.0967 13.9491 12.8293 13.9578C13.2106 13.9623 13.4071 13.8291 13.9269 13.2141C14.5445 12.4832 14.483 12.5155 14.8659 12.7215C15.0434 12.817 15.52 13.0971 15.9251 13.344C16.3302 13.5909 16.7057 13.8184 16.7595 13.8496C16.9039 13.9334 16.8383 14.1605 16.5571 14.5491C16.1084 15.1699 15.4275 15.633 14.8724 15.6951C14.5083 15.7358 13.6537 15.5981 13.0575 15.4027C9.91903 14.374 6.97426 11.1566 6.45135 8.18494C6.28762 7.25455 6.42594 6.75885 7.02676 6.12275C7.41104 5.71584 7.92132 5.37185 8.10788 5.39382C8.20448 5.40519 8.28402 5.48894 8.41839 5.72067Z" fill="white"/>
</svg>
