<svg width="22" height="20" viewBox="0 0 22 20" fill="none" xmlns="http://www.w3.org/2000/svg">
<path fill-rule="evenodd" clip-rule="evenodd" d="M19.7774 0.721257C19.6668 0.754224 18.1544 1.35098 16.4167 2.04744C14.6789 2.7439 10.7306 4.32595 7.64249 5.56312C4.55442 6.80025 1.91279 7.8711 1.77224 7.94278C1.49417 8.08458 1.20812 8.34925 1.10359 8.56151C0.99951 8.77284 0.98172 9.072 1.05876 9.31553C1.14183 9.57822 1.44687 9.89564 1.76621 10.0517C1.88796 10.1112 2.83299 10.4143 3.86625 10.7253L5.7449 11.2906L6.75763 14.3338C7.42644 16.3435 7.81758 17.4588 7.90946 17.6181C8.0806 17.9146 8.3561 18.1775 8.64871 18.3233C8.84166 18.4195 8.92171 18.4336 9.27256 18.4333C9.60888 18.4331 9.70974 18.4166 9.88607 18.3331C10.2178 18.1762 10.3771 18.0391 11.5874 16.8698C12.213 16.2654 12.7393 15.7709 12.757 15.7709C12.7746 15.7709 13.5191 16.3886 14.4113 17.1436C15.3034 17.8986 16.1215 18.5786 16.2293 18.6547C16.668 18.9648 17.3212 19.0463 17.7536 18.845C18.1139 18.6772 18.4623 18.2604 18.6108 17.8194C18.6458 17.7155 19.3296 14.2451 20.1304 10.1072C21.4537 3.26985 21.5862 2.54727 21.5847 2.18235C21.5818 1.49946 21.3593 1.08267 20.8598 0.824471C20.5476 0.663057 20.1125 0.621552 19.7774 0.721257ZM20.353 1.97947C20.3796 2.00737 20.4013 2.08835 20.4013 2.1594C20.4013 2.38087 17.5039 17.3265 17.4313 17.4797C17.2442 17.8744 17.1484 17.8267 15.7404 16.6376C11.8904 13.3864 10.963 12.5931 10.963 12.5512C10.963 12.5255 12.3667 10.9395 14.0823 9.02682C15.7979 7.11411 17.2347 5.49583 17.2753 5.43062C17.3718 5.27558 17.3713 4.96907 17.2744 4.79164C17.1938 4.64409 16.9038 4.46471 16.7459 4.46471C16.6432 4.46471 16.1786 4.70994 10.0667 7.99003L6.15181 10.0911L4.34163 9.54969C3.346 9.25192 2.53157 8.99879 2.53173 8.98717C2.53193 8.97555 3.69548 8.50103 5.11746 7.93263C6.53944 7.36428 8.52696 6.56867 9.53418 6.16461C10.5414 5.76054 11.927 5.20479 12.6132 4.92959C14.0654 4.34721 19.9501 1.99287 20.0391 1.95864C20.1469 1.91717 20.3036 1.92757 20.353 1.97947ZM13.7338 7.56069C12.9262 8.44536 9.56026 12.2254 9.51614 12.2972C9.48491 12.348 9.27477 13.1789 9.04914 14.1436C8.82351 15.1083 8.62754 15.9198 8.61361 15.9469C8.59973 15.9741 8.22131 14.8918 7.7727 13.542C7.32409 12.1921 6.96185 11.084 6.96773 11.0795C6.98769 11.0642 10.837 9.00044 12.2912 8.22533C13.0881 7.80055 13.7574 7.43685 13.7784 7.41703C13.7994 7.39725 13.8349 7.38106 13.8572 7.38106C13.8795 7.38106 13.824 7.46188 13.7338 7.56069ZM11.1145 14.3525C11.4849 14.665 11.7867 14.9312 11.785 14.9442C11.7803 14.9791 9.64965 17.0263 9.63472 17.0103C9.62767 17.0027 9.78267 16.3119 9.97912 15.475C10.1756 14.6381 10.3467 13.9093 10.3594 13.8553C10.372 13.8013 10.3955 13.7633 10.4116 13.7708C10.4277 13.7783 10.744 14.04 11.1145 14.3525Z" fill="white" stroke="#A8AAB8" stroke-width="0.380991"/>
</svg>
