<svg width="20" height="20" viewBox="0 0 20 20" fill="none" xmlns="http://www.w3.org/2000/svg">
<path fill-rule="evenodd" clip-rule="evenodd" d="M4.90464 0.0389341C3.69776 0.19383 2.60012 0.717699 1.72703 1.55555C0.875145 2.37305 0.341911 3.33086 0.0839399 4.50682C0.00608697 4.86179 -0.00302848 5.00785 0.000688115 5.84409C0.00518715 6.86019 0.0726336 7.52424 0.270865 8.50404C1.3279 13.7285 5.26186 17.982 10.4008 19.4566C11.6973 19.8287 12.8785 19.9978 14.1961 19.9999C14.9844 20.0012 15.1454 19.9906 15.4945 19.9143C16.8741 19.613 18.0698 18.8547 18.8914 17.7601C19.5195 16.9234 19.9208 15.8272 19.991 14.7568C20.0202 14.3113 19.9826 14.1439 19.819 13.991C19.7087 13.888 13.423 11.3522 13.1801 11.3128C13.0215 11.2871 12.8061 11.3787 12.6915 11.5206C12.6415 11.5825 12.3509 12.258 12.0457 13.0217L11.4909 14.4103L11.2337 14.4021C11.0923 14.3975 10.8074 14.3584 10.6006 14.3153C8.05166 13.7831 6.07881 11.7433 5.64542 9.19215C5.60105 8.93082 5.57022 8.66985 5.57699 8.61223C5.58861 8.51307 5.66463 8.47748 6.99767 7.94657C8.54659 7.32972 8.62499 7.28392 8.67906 6.96404C8.70437 6.8143 8.60927 6.55927 7.40857 3.55679C6.69479 1.77181 6.07412 0.264785 6.02928 0.207833C5.86822 0.00310466 5.55289 -0.0442638 4.90464 0.0389341ZM6.27466 3.87058C6.86039 5.3345 7.3331 6.53741 7.32512 6.54374C7.31718 6.55008 6.72127 6.79029 6.00096 7.07759C4.60035 7.63619 4.45716 7.71661 4.4018 7.97587C4.35337 8.2027 4.42242 9.09941 4.52739 9.60681C5.17083 12.7176 7.6674 15.0822 10.7925 15.5409C11.1345 15.5911 11.6454 15.6191 12.0001 15.6071C12.0747 15.6046 12.1608 15.5542 12.2572 15.4566C12.3797 15.3327 12.4831 15.1067 12.924 13.9996C13.2109 13.2789 13.4509 12.6827 13.4572 12.6748C13.4636 12.6668 14.669 13.1404 16.136 13.7271L18.8032 14.794L18.7805 15.0324C18.7296 15.5673 18.4298 16.3518 18.0685 16.8952C17.3843 17.9241 16.2094 18.6429 14.9309 18.8146C14.098 18.9264 12.4595 18.7698 11.1997 18.4581C9.33604 17.9969 7.61834 17.1465 6.09786 15.9325C5.54534 15.4913 4.50818 14.4543 4.0668 13.9018C2.37082 11.7787 1.40341 9.31576 1.18448 6.56393C1.13179 5.90147 1.15655 5.09504 1.24144 4.70975C1.47629 3.64379 2.06536 2.71073 2.89995 2.0827C3.20252 1.85505 3.71791 1.56544 4.00644 1.46104C4.31855 1.34804 4.88125 1.21286 5.04736 1.21086L5.20964 1.20895L6.27466 3.87058Z" fill="white"/>
</svg>
