<svg width="20" height="20" viewBox="0 0 20 20" fill="none" xmlns="http://www.w3.org/2000/svg">
<path fill-rule="evenodd" clip-rule="evenodd" d="M9.26372 0.0188203C7.8124 0.157797 6.70923 0.466312 5.5036 1.07045C4.54578 1.55038 3.76673 2.12 2.94418 2.94178C2.06452 3.82071 1.51261 4.5925 0.986453 5.67969C0.369695 6.95397 0.0580112 8.22196 0.00657242 9.66609C-0.0528071 11.3329 0.290249 12.9193 1.03249 14.4104C1.55537 15.4608 2.0926 16.2039 2.94418 17.0548C3.80514 17.9149 4.55228 18.4521 5.60628 18.9687C6.34172 19.3291 6.81656 19.5046 7.56213 19.6914C9.51724 20.1814 11.4863 20.0873 13.3879 19.4131C13.9084 19.2285 14.8442 18.7761 15.2877 18.4947C17.6418 17.0006 19.2891 14.6305 19.8213 11.9719C19.9684 11.2372 20 10.8878 20 9.99829C20 9.10873 19.9684 8.75942 19.8213 8.02463C19.3036 5.4382 17.728 3.11558 15.4833 1.62983C14.9718 1.2913 13.8763 0.746259 13.3319 0.559524C12.5346 0.286026 11.7144 0.109374 10.8871 0.0330072C10.4886 -0.00376922 9.58256 -0.0117029 9.26372 0.0188203ZM11.2587 1.42117C13.1471 1.70448 14.7749 2.52618 16.1303 3.88038C17.4929 5.24178 18.3033 6.85236 18.599 8.78673C18.6931 9.40185 18.6931 10.5947 18.599 11.2098C18.3685 12.7178 17.8229 14.0241 16.918 15.2351C16.5617 15.7118 15.7256 16.5472 15.2484 16.9032C13.67 18.0806 11.9587 18.6514 10.0069 18.6514C8.0588 18.6514 6.34039 18.0776 4.77411 16.9039C2.96483 15.5482 1.76699 13.5178 1.41502 11.2098C1.32039 10.5894 1.32 9.39755 1.41424 8.78673C1.86236 5.88202 3.59774 3.49796 6.19304 2.22169C7.19561 1.72863 8.11071 1.4787 9.40063 1.34555C9.70739 1.31389 10.8548 1.36059 11.2587 1.42117ZM9.79786 4.03535C9.61511 4.10198 9.48399 4.22001 9.40282 4.39088C9.3495 4.50316 9.34195 4.86717 9.34195 7.33069V10.1423L9.42997 10.3029C9.49799 10.427 9.90896 10.7756 11.2391 11.8373C12.1858 12.5928 13.0078 13.2356 13.0659 13.2656C13.124 13.2957 13.2578 13.3203 13.3633 13.3203C13.838 13.3203 14.1432 12.8088 13.9323 12.3668C13.8848 12.2674 13.4436 11.8927 12.2706 10.9555L10.6735 9.67957L10.6629 7.05125L10.6524 4.42292L10.5428 4.27941C10.3549 4.03331 10.0644 3.93815 9.79786 4.03535Z" fill="white"/>
</svg>
